<svg width="25" height="31" viewBox="0 0 25 31" fill="none" xmlns="http://www.w3.org/2000/svg">
<path d="M10.35 2.18634L10.36 2.13951L10.36 22.2141L4.19576 15.9034C3.89481 15.5944 3.48713 15.4249 3.05924 15.4249C2.63136 15.4249 2.22653 15.5944 1.92487 15.9034L0.967348 16.8854C0.666401 17.1941 0.5 17.6056 0.5 18.0444C0.5 18.4834 0.665212 18.8951 0.96616 19.2039L11.5086 30.0217C11.8107 30.3317 12.2132 30.5012 12.6413 30.5C13.0718 30.5012 13.4745 30.3317 13.7762 30.0217L24.3196 19.2039C24.6203 18.8951 24.7857 18.4837 24.7857 18.0444C24.7857 17.6056 24.62 17.1941 24.3196 16.8854L23.362 15.9034C23.0616 15.5944 22.6603 15.4249 22.2324 15.4249C21.8048 15.4249 21.4247 15.5944 21.1239 15.9034L14.9253 22.2854L14.9253 2.1639C14.9253 1.25976 14.1658 0.5 13.285 0.5H11.9308C11.05 0.5 10.35 1.28219 10.35 2.18634Z" fill="#989898"/>
</svg>
