<svg width="22" height="22" viewBox="0 0 22 22" fill="none" xmlns="http://www.w3.org/2000/svg">
<path d="M7.20872 16.4195L7.18828 16.4327L14.3984 9.22263L14.3694 13.7269C14.3677 13.9471 14.4548 14.156 14.6101 14.3113C14.7655 14.4666 14.9733 14.5527 15.1938 14.5512L15.8941 14.5461C16.1142 14.5445 16.3224 14.4571 16.48 14.2995C16.6377 14.1418 16.7256 13.934 16.7272 13.7138L16.7856 6.00146C16.7873 5.78044 16.7021 5.57347 16.5462 5.41849C16.3904 5.26178 16.1833 5.17648 15.9625 5.17832L8.24979 5.23638C8.02972 5.23812 7.82188 5.32585 7.66411 5.48361C7.50652 5.64121 7.41888 5.84914 7.41705 6.06911L7.41195 6.76938C7.41003 6.98945 7.49481 7.19599 7.65014 7.35132C7.80538 7.50656 8.00424 7.58366 8.22439 7.58182L12.7667 7.53981L5.5398 14.7667C5.21506 15.0915 5.21788 15.6401 5.5376 15.9598L6.0292 16.4514C6.34892 16.7711 6.88398 16.7443 7.20872 16.4195Z" fill="white"/>
</svg>
