<svg width="18" height="22" viewBox="0 0 18 22" fill="none" xmlns="http://www.w3.org/2000/svg">
<path d="M7.39498 1.68044L7.40197 1.64766L7.40197 15.6999L3.08703 11.2824C2.87637 11.0661 2.59099 10.9474 2.29147 10.9474C1.99195 10.9474 1.70857 11.0661 1.49741 11.2824L0.827144 11.9698C0.616481 12.1859 0.5 12.4739 0.5 12.7811C0.5 13.0884 0.615649 13.3766 0.826312 13.5927L8.20602 21.1652C8.41751 21.3822 8.69923 21.5008 8.99892 21.5C9.30027 21.5008 9.58215 21.3822 9.79332 21.1652L17.1737 13.5927C17.3842 13.3766 17.5 13.0886 17.5 12.7811C17.5 12.4739 17.384 12.1859 17.1737 11.9698L16.5034 11.2824C16.2931 11.0661 16.0122 10.9474 15.7127 10.9474C15.4133 10.9474 15.1473 11.0661 14.9368 11.2824L10.5977 15.7498L10.5977 1.66473C10.5977 1.03183 10.066 0.5 9.44953 0.5H8.50155C7.88503 0.5 7.39498 1.04754 7.39498 1.68044Z" fill="white"/>
</svg>
