<svg width="17" height="17" viewBox="0 0 17 17" fill="none" xmlns="http://www.w3.org/2000/svg">
<g opacity="0.456682">
<path fill-rule="evenodd" clip-rule="evenodd" d="M14.2375 3.11667C13.7947 2.87923 11.0409 1.39683 9.52765 0.447383C9.26925 0.1734 8.90545 0 8.5 0C8.09455 0 7.73075 0.1734 7.47235 0.447383C5.95878 1.39655 3.20535 2.87923 2.7625 3.11667H0V17H17V3.11667H14.2375ZM9.13057 0.852231L9.13101 0.853107C9.13145 0.853982 9.13189 0.854869 9.13268 0.855667C9.20153 0.933017 9.27747 1.05003 9.31883 1.2002C9.32031 1.20573 9.32221 1.2111 9.32412 1.21649L9.32413 1.21651L9.32413 1.21652L9.32414 1.21654L9.32414 1.21656C9.32663 1.22358 9.32913 1.23065 9.33073 1.23817C9.34263 1.29313 9.35 1.35263 9.35 1.41667C9.35 1.8853 8.96863 2.26667 8.5 2.26667C8.03137 2.26667 7.65 1.8853 7.65 1.41667C7.65 1.35263 7.65737 1.29313 7.66955 1.23817C7.67114 1.23085 7.67353 1.22398 7.67593 1.21711C7.6778 1.21173 7.67968 1.20636 7.68117 1.20077C7.72253 1.05003 7.79847 0.9333 7.86732 0.855667C7.86781 0.855047 7.86815 0.854373 7.86848 0.853692C7.86892 0.852817 7.86935 0.85193 7.87015 0.851133C8.02598 0.678017 8.24925 0.566667 8.5 0.566667C8.75075 0.566667 8.97402 0.678017 9.12985 0.851133L9.13057 0.852231ZM7.08333 1.41667C7.08333 1.39343 7.0839 1.3702 7.08503 1.34697C6.06702 1.95217 4.80845 2.64945 3.95222 3.11667H13.0478C12.1916 2.64945 10.933 1.95217 9.91497 1.34697C9.9161 1.3702 9.91667 1.39343 9.91667 1.41667C9.91667 2.19782 9.28115 2.83333 8.5 2.83333C7.71885 2.83333 7.08333 2.19782 7.08333 1.41667ZM14.1667 3.68333H16.4333V5.1H0.566667V3.68333H2.83333H14.1667ZM0.566667 5.66667V16.4333H16.4333V5.66667H0.566667Z" fill="black"/>
<path d="M6.71055 8.94747C6.95763 8.94747 7.15792 8.74718 7.15792 8.5001C7.15792 8.25303 6.95763 8.05273 6.71055 8.05273C6.46348 8.05273 6.26318 8.25303 6.26318 8.5001C6.26318 8.74718 6.46348 8.94747 6.71055 8.94747Z" fill="black"/>
<path d="M8.49998 8.94747C8.74706 8.94747 8.94735 8.74718 8.94735 8.5001C8.94735 8.25303 8.74706 8.05273 8.49998 8.05273C8.25291 8.05273 8.05261 8.25303 8.05261 8.5001C8.05261 8.74718 8.25291 8.94747 8.49998 8.94747Z" fill="black"/>
<path d="M10.2895 8.94747C10.5366 8.94747 10.7369 8.74718 10.7369 8.5001C10.7369 8.25303 10.5366 8.05273 10.2895 8.05273C10.0425 8.05273 9.84216 8.25303 9.84216 8.5001C9.84216 8.74718 10.0425 8.94747 10.2895 8.94747Z" fill="black"/>
<path d="M12.9737 8.94747C13.2208 8.94747 13.4211 8.74718 13.4211 8.5001C13.4211 8.25303 13.2208 8.05273 12.9737 8.05273C12.7267 8.05273 12.5264 8.25303 12.5264 8.5001C12.5264 8.74718 12.7267 8.94747 12.9737 8.94747Z" fill="black"/>
<path d="M13.8684 8.94747C14.1155 8.94747 14.3158 8.74718 14.3158 8.5001C14.3158 8.25303 14.1155 8.05273 13.8684 8.05273C13.6213 8.05273 13.421 8.25303 13.421 8.5001C13.421 8.74718 13.6213 8.94747 13.8684 8.94747Z" fill="black"/>
<path d="M3.13157 10.7368C3.37865 10.7368 3.57894 10.5365 3.57894 10.2894C3.57894 10.0423 3.37865 9.84204 3.13157 9.84204C2.8845 9.84204 2.6842 10.0423 2.6842 10.2894C2.6842 10.5365 2.8845 10.7368 3.13157 10.7368Z" fill="black"/>
<path d="M4.02635 10.7368C4.27342 10.7368 4.47372 10.5365 4.47372 10.2894C4.47372 10.0423 4.27342 9.84204 4.02635 9.84204C3.77927 9.84204 3.57898 10.0423 3.57898 10.2894C3.57898 10.5365 3.77927 10.7368 4.02635 10.7368Z" fill="black"/>
<path d="M6.71055 10.7368C6.95763 10.7368 7.15792 10.5365 7.15792 10.2894C7.15792 10.0423 6.95763 9.84204 6.71055 9.84204C6.46348 9.84204 6.26318 10.0423 6.26318 10.2894C6.26318 10.5365 6.46348 10.7368 6.71055 10.7368Z" fill="black"/>
<path d="M8.49998 10.7368C8.74706 10.7368 8.94735 10.5365 8.94735 10.2894C8.94735 10.0423 8.74706 9.84204 8.49998 9.84204C8.25291 9.84204 8.05261 10.0423 8.05261 10.2894C8.05261 10.5365 8.25291 10.7368 8.49998 10.7368Z" fill="black"/>
<path d="M10.2895 10.7368C10.5366 10.7368 10.7369 10.5365 10.7369 10.2894C10.7369 10.0423 10.5366 9.84204 10.2895 9.84204C10.0425 9.84204 9.84216 10.0423 9.84216 10.2894C9.84216 10.5365 10.0425 10.7368 10.2895 10.7368Z" fill="black"/>
<path d="M12.9737 10.7368C13.2208 10.7368 13.4211 10.5365 13.4211 10.2894C13.4211 10.0423 13.2208 9.84204 12.9737 9.84204C12.7267 9.84204 12.5264 10.0423 12.5264 10.2894C12.5264 10.5365 12.7267 10.7368 12.9737 10.7368Z" fill="black"/>
<path d="M13.8684 10.7368C14.1155 10.7368 14.3158 10.5365 14.3158 10.2894C14.3158 10.0423 14.1155 9.84204 13.8684 9.84204C13.6213 9.84204 13.421 10.0423 13.421 10.2894C13.421 10.5365 13.6213 10.7368 13.8684 10.7368Z" fill="black"/>
<path d="M3.13157 12.5263C3.37865 12.5263 3.57894 12.326 3.57894 12.079C3.57894 11.8319 3.37865 11.6316 3.13157 11.6316C2.8845 11.6316 2.6842 11.8319 2.6842 12.079C2.6842 12.326 2.8845 12.5263 3.13157 12.5263Z" fill="black"/>
<path d="M4.02635 12.5263C4.27342 12.5263 4.47372 12.326 4.47372 12.079C4.47372 11.8319 4.27342 11.6316 4.02635 11.6316C3.77927 11.6316 3.57898 11.8319 3.57898 12.079C3.57898 12.326 3.77927 12.5263 4.02635 12.5263Z" fill="black"/>
<path d="M6.71055 12.5263C6.95763 12.5263 7.15792 12.326 7.15792 12.079C7.15792 11.8319 6.95763 11.6316 6.71055 11.6316C6.46348 11.6316 6.26318 11.8319 6.26318 12.079C6.26318 12.326 6.46348 12.5263 6.71055 12.5263Z" fill="black"/>
<path d="M8.49998 12.5263C8.74706 12.5263 8.94735 12.326 8.94735 12.079C8.94735 11.8319 8.74706 11.6316 8.49998 11.6316C8.25291 11.6316 8.05261 11.8319 8.05261 12.079C8.05261 12.326 8.25291 12.5263 8.49998 12.5263Z" fill="black"/>
<path d="M10.2895 12.5263C10.5366 12.5263 10.7369 12.326 10.7369 12.079C10.7369 11.8319 10.5366 11.6316 10.2895 11.6316C10.0425 11.6316 9.84216 11.8319 9.84216 12.079C9.84216 12.326 10.0425 12.5263 10.2895 12.5263Z" fill="black"/>
<path d="M12.9737 12.5263C13.2208 12.5263 13.4211 12.326 13.4211 12.079C13.4211 11.8319 13.2208 11.6316 12.9737 11.6316C12.7267 11.6316 12.5264 11.8319 12.5264 12.079C12.5264 12.326 12.7267 12.5263 12.9737 12.5263Z" fill="black"/>
<path d="M13.8684 12.5263C14.1155 12.5263 14.3158 12.326 14.3158 12.079C14.3158 11.8319 14.1155 11.6316 13.8684 11.6316C13.6213 11.6316 13.421 11.8319 13.421 12.079C13.421 12.326 13.6213 12.5263 13.8684 12.5263Z" fill="black"/>
<path d="M3.13157 14.3159C3.37865 14.3159 3.57894 14.1156 3.57894 13.8685C3.57894 13.6214 3.37865 13.4211 3.13157 13.4211C2.8845 13.4211 2.6842 13.6214 2.6842 13.8685C2.6842 14.1156 2.8845 14.3159 3.13157 14.3159Z" fill="black"/>
<path d="M4.02635 14.3159C4.27342 14.3159 4.47372 14.1156 4.47372 13.8685C4.47372 13.6214 4.27342 13.4211 4.02635 13.4211C3.77927 13.4211 3.57898 13.6214 3.57898 13.8685C3.57898 14.1156 3.77927 14.3159 4.02635 14.3159Z" fill="black"/>
<path d="M6.71055 14.3159C6.95763 14.3159 7.15792 14.1156 7.15792 13.8685C7.15792 13.6214 6.95763 13.4211 6.71055 13.4211C6.46348 13.4211 6.26318 13.6214 6.26318 13.8685C6.26318 14.1156 6.46348 14.3159 6.71055 14.3159Z" fill="black"/>
<path d="M8.49998 14.3159C8.74706 14.3159 8.94735 14.1156 8.94735 13.8685C8.94735 13.6214 8.74706 13.4211 8.49998 13.4211C8.25291 13.4211 8.05261 13.6214 8.05261 13.8685C8.05261 14.1156 8.25291 14.3159 8.49998 14.3159Z" fill="black"/>
<path d="M10.2895 14.3159C10.5366 14.3159 10.7369 14.1156 10.7369 13.8685C10.7369 13.6214 10.5366 13.4211 10.2895 13.4211C10.0425 13.4211 9.84216 13.6214 9.84216 13.8685C9.84216 14.1156 10.0425 14.3159 10.2895 14.3159Z" fill="black"/>
</g>
</svg>
