<svg width="52" height="47" viewBox="0 0 52 47" fill="none" xmlns="http://www.w3.org/2000/svg">
<path d="M8.86667 19H20.1333C20.6126 19 21 18.552 21 18C21 17.448 20.6126 17 20.1333 17H8.86667C8.3874 17 8 17.448 8 18C8 18.552 8.3874 19 8.86667 19Z" fill="white"/>
<path d="M31.1429 22H8.85714C8.38314 22 8 22.448 8 23C8 23.552 8.38314 24 8.85714 24H31.1429C31.6169 24 32 23.552 32 23C32 22.448 31.6169 22 31.1429 22Z" fill="white"/>
<path d="M31.1429 28H8.85714C8.38314 28 8 28.448 8 29C8 29.552 8.38314 30 8.85714 30H31.1429C31.6169 30 32 29.552 32 29C32 28.448 31.6169 28 31.1429 28Z" fill="white"/>
<path fill-rule="evenodd" clip-rule="evenodd" d="M46.8624 0.0597411L17.2727 0C14.4387 0 12.1333 2.27016 12.1333 5.06092V9.43397L5.13933 9.44848C2.30533 9.44848 0 11.7186 0 14.5094V32.5521C0 35.3428 2.30533 37.6121 5.13933 37.6121H10.4V46.1466C10.4 46.499 10.6201 46.8157 10.9547 46.9428C11.0561 46.9812 11.1618 47 11.2667 47C11.5059 47 11.7407 46.9019 11.908 46.7209L20.3181 37.6104L34.7273 37.5524C37.5613 37.5524 39.8667 35.2822 39.8667 32.4923V32.3959L44.4253 37.3339C44.5926 37.5148 44.8275 37.613 45.0667 37.613C45.1715 37.613 45.2773 37.5942 45.3787 37.5558C45.7132 37.4286 45.9333 37.112 45.9333 36.7595V28.2251H46.8607C49.6947 28.2251 52 25.9549 52 23.165V5.12066C52 2.33075 49.6955 0.0605945 46.8624 0.0597411ZM38.1333 32.4915C38.1333 34.3409 36.6054 35.8446 34.7239 35.8446L19.9299 35.9044C19.6872 35.9052 19.4549 36.0068 19.292 36.1835L12.1333 43.9387V36.7578C12.1333 36.2867 11.7459 35.9044 11.2667 35.9044H5.13933C3.26127 35.9044 1.73333 34.3998 1.73333 32.5512V14.5085C1.73333 12.6591 3.26127 11.1545 5.14107 11.1545L13 11.1383H13.0017L34.7273 11.0939C36.6054 11.0939 38.1333 12.5985 38.1333 14.4479V30.1863V32.4915ZM46.8607 26.5165C48.7387 26.5165 50.2667 25.0127 50.2667 23.1633H50.2675V5.11981C50.2675 3.2704 48.7396 1.76578 46.8615 1.76578H46.8598L17.2709 1.70603C15.3946 1.70603 13.8667 3.21066 13.8667 5.06007V9.4297L34.7256 9.38788C37.5613 9.38788 39.8667 11.658 39.8667 14.4488V29.8569L44.2 34.5508V27.3699C44.2 26.8988 44.5874 26.5165 45.0667 26.5165H46.8607Z" fill="white"/>
</svg>
