<svg width="25" height="25" viewBox="0 0 25 25" fill="none" xmlns="http://www.w3.org/2000/svg">
<path d="M2.5 8.33333H4.16667V9.16666H2.5V8.33333Z" fill="white"/>
<path fill-rule="evenodd" clip-rule="evenodd" d="M25 5.24194C25 5.90879 24.4572 6.45161 23.7903 6.45161H22.5806V7.25806H23.3871V8.06452H21.371V12.9032H19.4734C19.5952 13.1556 19.6823 13.4258 19.7242 13.7097H22.1774V17.7419H25V25H18.5484V17.7419H21.371V14.5161H19.7258C19.5291 15.8815 18.3545 16.9355 16.9355 16.9355H8.06452C6.50851 16.9355 5.24194 15.6689 5.24194 14.1129H4.43548V17.7419H6.85484C7.5217 17.7419 8.06452 18.2848 8.06452 18.9516V22.5806H8.87097V23.7903C8.87097 24.4572 8.32815 25 7.66129 25H1.20968C0.542819 25 0 24.4572 0 23.7903V22.5806H0.806452V18.9516C0.806452 18.2848 1.34927 17.7419 2.01613 17.7419H3.62903V13.3065H5.36853C5.45595 13.0149 5.58905 12.7447 5.76054 12.5H2.82258V10.4839H1.20968C0.542819 10.4839 0 9.94105 0 9.27419V1.20968C0 0.542819 0.542819 0 1.20968 0H5.24194C5.90879 0 6.45161 0.542819 6.45161 1.20968V9.27419C6.45161 9.94105 5.90879 10.4839 5.24194 10.4839H3.62903V11.6935H6.61818C6.87748 11.5384 7.16297 11.4207 7.46933 11.3549C7.94067 10.1177 9.14563 9.27419 10.4839 9.27419C10.9379 9.27419 11.3854 9.37106 11.7993 9.55692C12.3868 8.63864 13.4126 8.06452 14.5161 8.06452C16.2948 8.06452 17.7419 9.51164 17.7419 11.2903C17.7419 11.3299 17.7411 11.3693 17.7392 11.41C18.1826 11.5423 18.5787 11.7827 18.9004 12.0968H20.5645V8.06452H18.5484V7.25806H19.3548V6.45161H18.1452C17.4783 6.45161 16.9355 5.90879 16.9355 5.24194V1.20968C16.9355 0.542819 17.4783 0 18.1452 0H23.7903C24.4572 0 25 0.542819 25 1.20968V5.24194ZM0.806452 6.45161H5.64516V2.41935H0.806452V6.45161ZM1.20968 0.806452H5.24194C5.46442 0.806452 5.64516 0.987194 5.64516 1.20968V1.6129H0.806452V1.20968C0.806452 0.987194 0.987194 0.806452 1.20968 0.806452ZM0.806452 7.25806V9.27419C0.806452 9.49668 0.987194 9.67742 1.20968 9.67742H5.24194C5.46442 9.67742 5.64516 9.49668 5.64516 9.27419V7.25806H0.806452ZM8.06452 23.7903C8.06452 24.0128 7.88377 24.1935 7.66129 24.1935H1.20968C0.987194 24.1935 0.806452 24.0128 0.806452 23.7903V23.3871H8.06452V23.7903ZM7.25806 22.5806V18.9516C7.25806 18.7291 7.07732 18.5484 6.85484 18.5484H2.01613C1.79365 18.5484 1.6129 18.7291 1.6129 18.9516V22.5806H7.25806ZM19.3548 24.1935V21.7742H24.1936V24.1935H19.3548ZM19.3548 18.5484V20.9677H24.1936V18.5484H19.3548ZM16.9355 16.129H8.06452C6.95289 16.129 6.04839 15.2245 6.04839 14.1129C6.04839 13.0936 6.81133 12.2338 7.82254 12.1129L8.08716 12.081L8.16178 11.8251C8.46006 10.7979 9.41536 10.0806 10.4839 10.0806C10.929 10.0806 11.3661 10.2057 11.7493 10.4415L12.1342 10.679L12.3261 10.2689C12.7231 9.4193 13.5827 8.87097 14.5161 8.87097C15.8504 8.87097 16.9355 9.95602 16.9355 11.2903C16.9355 11.4016 16.9254 11.5201 16.9036 11.6632L16.8428 12.0621L17.2414 12.1226C18.2164 12.2714 18.9516 13.1271 18.9516 14.1129C18.9516 15.2245 18.0471 16.129 16.9355 16.129ZM23.7903 0.806452H18.1452C17.9227 0.806452 17.7419 0.987194 17.7419 1.20968V4.03226H24.1935V1.20968C24.1935 0.987194 24.0128 0.806452 23.7903 0.806452ZM17.7419 5.24194V4.83871H24.1935V5.24194C24.1935 5.46442 24.0128 5.64516 23.7903 5.64516H18.1452C17.9227 5.64516 17.7419 5.46442 17.7419 5.24194ZM20.1613 7.25806H21.7742V6.45161H20.1613V7.25806Z" fill="white"/>
<path d="M20 19.1667H20.8333V20H20V19.1667Z" fill="white"/>
<path d="M22.5 22.5H23.3333V23.3333H22.5V22.5Z" fill="white"/>
<path d="M21.6666 19.1667H23.3333V20H21.6666V19.1667Z" fill="white"/>
<path d="M20 22.5H21.6667V23.3333H20V22.5Z" fill="white"/>
</svg>
