<svg width="720" height="356" viewBox="0 0 720 356" fill="none" xmlns="http://www.w3.org/2000/svg">
<rect x="194" y="234" width="54" height="57" fill="white"/>
<path opacity="0.2" d="M62 222.456L508 51" stroke="#979797" stroke-width="30" stroke-linecap="square"/>
<path opacity="0.2" d="M87 266.184L533 94.728" stroke="#979797" stroke-width="30" stroke-linecap="square"/>
<path opacity="0.2" d="M100 316.184L546 144.728" stroke="#979797" stroke-width="30" stroke-linecap="square"/>
<path d="M163.983 240.667H11.017C5.01695 240.667 0.149414 235.762 0.149414 229.716V193.951C0.149414 187.905 5.01695 183 11.017 183H163.98C169.983 183 174.851 187.905 174.851 193.951V229.713C174.851 235.762 169.983 240.667 163.983 240.667Z" fill="#556080"/>
<path d="M163.983 298.333H11.017C5.01695 298.333 0.149414 293.429 0.149414 287.383V251.617C0.149414 245.571 5.01695 240.667 11.017 240.667H163.98C169.983 240.667 174.847 245.571 174.847 251.617V287.38C174.85 293.429 169.983 298.333 163.983 298.333Z" fill="#38454F"/>
<path d="M163.983 356H11.017C5.01695 356 0.149414 351.095 0.149414 345.049V309.284C0.149414 303.238 5.01695 298.333 11.017 298.333H163.98C169.983 298.333 174.847 303.238 174.847 309.284V345.046C174.85 351.095 169.983 356 163.983 356Z" fill="#556080"/>
<path d="M28.7642 222.456C34.5866 222.456 39.3065 217.7 39.3065 211.833C39.3065 205.967 34.5866 201.211 28.7642 201.211C22.9419 201.211 18.2219 205.967 18.2219 211.833C18.2219 217.7 22.9419 222.456 28.7642 222.456Z" fill="#8697CB"/>
<path d="M147.742 210.316C149.405 210.316 150.754 208.957 150.754 207.281C150.754 205.604 149.405 204.246 147.742 204.246C146.078 204.246 144.73 205.604 144.73 207.281C144.73 208.957 146.078 210.316 147.742 210.316Z" fill="#8697CB"/>
<path d="M135.693 210.316C137.357 210.316 138.706 208.957 138.706 207.281C138.706 205.604 137.357 204.246 135.693 204.246C134.03 204.246 132.681 205.604 132.681 207.281C132.681 208.957 134.03 210.316 135.693 210.316Z" fill="#8697CB"/>
<path d="M153.766 219.421C155.43 219.421 156.778 218.062 156.778 216.386C156.778 214.71 155.43 213.351 153.766 213.351C152.102 213.351 150.754 214.71 150.754 216.386C150.754 218.062 152.102 219.421 153.766 219.421Z" fill="#8697CB"/>
<path d="M141.718 219.421C143.381 219.421 144.73 218.062 144.73 216.386C144.73 214.71 143.381 213.351 141.718 213.351C140.054 213.351 138.706 214.71 138.706 216.386C138.706 218.062 140.054 219.421 141.718 219.421Z" fill="#8697CB"/>
<path d="M123.645 210.316C125.309 210.316 126.657 208.957 126.657 207.281C126.657 205.604 125.309 204.246 123.645 204.246C121.982 204.246 120.633 205.604 120.633 207.281C120.633 208.957 121.982 210.316 123.645 210.316Z" fill="#8697CB"/>
<path d="M129.669 219.421C131.333 219.421 132.681 218.062 132.681 216.386C132.681 214.71 131.333 213.351 129.669 213.351C128.006 213.351 126.657 214.71 126.657 216.386C126.657 218.062 128.006 219.421 129.669 219.421Z" fill="#8697CB"/>
<path d="M111.597 210.316C113.26 210.316 114.609 208.957 114.609 207.281C114.609 205.604 113.26 204.246 111.597 204.246C109.933 204.246 108.585 205.604 108.585 207.281C108.585 208.957 109.933 210.316 111.597 210.316Z" fill="#8697CB"/>
<path d="M117.621 219.421C119.285 219.421 120.633 218.062 120.633 216.386C120.633 214.71 119.285 213.351 117.621 213.351C115.957 213.351 114.609 214.71 114.609 216.386C114.609 218.062 115.957 219.421 117.621 219.421Z" fill="#8697CB"/>
<path d="M99.5485 210.316C101.212 210.316 102.561 208.957 102.561 207.281C102.561 205.604 101.212 204.246 99.5485 204.246C97.8849 204.246 96.5364 205.604 96.5364 207.281C96.5364 208.957 97.8849 210.316 99.5485 210.316Z" fill="#8697CB"/>
<path d="M105.573 219.421C107.236 219.421 108.585 218.062 108.585 216.386C108.585 214.71 107.236 213.351 105.573 213.351C103.909 213.351 102.561 214.71 102.561 216.386C102.561 218.062 103.909 219.421 105.573 219.421Z" fill="#8697CB"/>
<path d="M28.7642 280.123C34.5866 280.123 39.3065 275.367 39.3065 269.5C39.3065 263.633 34.5866 258.877 28.7642 258.877C22.9419 258.877 18.2219 263.633 18.2219 269.5C18.2219 275.367 22.9419 280.123 28.7642 280.123Z" fill="#8697CB"/>
<path d="M147.742 267.982C149.405 267.982 150.754 266.624 150.754 264.947C150.754 263.271 149.405 261.912 147.742 261.912C146.078 261.912 144.73 263.271 144.73 264.947C144.73 266.624 146.078 267.982 147.742 267.982Z" fill="#8697CB"/>
<path d="M135.693 267.982C137.357 267.982 138.706 266.624 138.706 264.947C138.706 263.271 137.357 261.912 135.693 261.912C134.03 261.912 132.681 263.271 132.681 264.947C132.681 266.624 134.03 267.982 135.693 267.982Z" fill="#8697CB"/>
<path d="M153.766 277.088C155.43 277.088 156.778 275.729 156.778 274.053C156.778 272.376 155.43 271.018 153.766 271.018C152.102 271.018 150.754 272.376 150.754 274.053C150.754 275.729 152.102 277.088 153.766 277.088Z" fill="#8697CB"/>
<path d="M141.718 277.088C143.381 277.088 144.73 275.729 144.73 274.053C144.73 272.376 143.381 271.018 141.718 271.018C140.054 271.018 138.706 272.376 138.706 274.053C138.706 275.729 140.054 277.088 141.718 277.088Z" fill="#8697CB"/>
<path d="M123.645 267.982C125.309 267.982 126.657 266.624 126.657 264.947C126.657 263.271 125.309 261.912 123.645 261.912C121.982 261.912 120.633 263.271 120.633 264.947C120.633 266.624 121.982 267.982 123.645 267.982Z" fill="#8697CB"/>
<path d="M129.669 277.088C131.333 277.088 132.681 275.729 132.681 274.053C132.681 272.376 131.333 271.018 129.669 271.018C128.006 271.018 126.657 272.376 126.657 274.053C126.657 275.729 128.006 277.088 129.669 277.088Z" fill="#8697CB"/>
<path d="M111.597 267.982C113.26 267.982 114.609 266.624 114.609 264.947C114.609 263.271 113.26 261.912 111.597 261.912C109.933 261.912 108.585 263.271 108.585 264.947C108.585 266.624 109.933 267.982 111.597 267.982Z" fill="#8697CB"/>
<path d="M117.621 277.088C119.285 277.088 120.633 275.729 120.633 274.053C120.633 272.376 119.285 271.018 117.621 271.018C115.957 271.018 114.609 272.376 114.609 274.053C114.609 275.729 115.957 277.088 117.621 277.088Z" fill="#8697CB"/>
<path d="M99.5485 267.982C101.212 267.982 102.561 266.624 102.561 264.947C102.561 263.271 101.212 261.912 99.5485 261.912C97.8849 261.912 96.5364 263.271 96.5364 264.947C96.5364 266.624 97.8849 267.982 99.5485 267.982Z" fill="#8697CB"/>
<path d="M105.573 277.088C107.236 277.088 108.585 275.729 108.585 274.053C108.585 272.376 107.236 271.018 105.573 271.018C103.909 271.018 102.561 272.376 102.561 274.053C102.561 275.729 103.909 277.088 105.573 277.088Z" fill="#8697CB"/>
<path d="M28.7642 337.789C34.5866 337.789 39.3065 333.033 39.3065 327.167C39.3065 321.3 34.5866 316.544 28.7642 316.544C22.9419 316.544 18.2219 321.3 18.2219 327.167C18.2219 333.033 22.9419 337.789 28.7642 337.789Z" fill="#8697CB"/>
<path d="M147.742 325.649C149.405 325.649 150.754 324.29 150.754 322.614C150.754 320.938 149.405 319.579 147.742 319.579C146.078 319.579 144.73 320.938 144.73 322.614C144.73 324.29 146.078 325.649 147.742 325.649Z" fill="#8697CB"/>
<path d="M135.693 325.649C137.357 325.649 138.706 324.29 138.706 322.614C138.706 320.938 137.357 319.579 135.693 319.579C134.03 319.579 132.681 320.938 132.681 322.614C132.681 324.29 134.03 325.649 135.693 325.649Z" fill="#8697CB"/>
<path d="M153.766 334.754C155.43 334.754 156.778 333.396 156.778 331.719C156.778 330.043 155.43 328.684 153.766 328.684C152.102 328.684 150.754 330.043 150.754 331.719C150.754 333.396 152.102 334.754 153.766 334.754Z" fill="#8697CB"/>
<path d="M141.718 334.754C143.381 334.754 144.73 333.396 144.73 331.719C144.73 330.043 143.381 328.684 141.718 328.684C140.054 328.684 138.706 330.043 138.706 331.719C138.706 333.396 140.054 334.754 141.718 334.754Z" fill="#8697CB"/>
<path d="M123.645 325.649C125.309 325.649 126.657 324.29 126.657 322.614C126.657 320.938 125.309 319.579 123.645 319.579C121.982 319.579 120.633 320.938 120.633 322.614C120.633 324.29 121.982 325.649 123.645 325.649Z" fill="#8697CB"/>
<path d="M129.669 334.754C131.333 334.754 132.681 333.396 132.681 331.719C132.681 330.043 131.333 328.684 129.669 328.684C128.006 328.684 126.657 330.043 126.657 331.719C126.657 333.396 128.006 334.754 129.669 334.754Z" fill="#8697CB"/>
<path d="M111.597 325.649C113.26 325.649 114.609 324.29 114.609 322.614C114.609 320.938 113.26 319.579 111.597 319.579C109.933 319.579 108.585 320.938 108.585 322.614C108.585 324.29 109.933 325.649 111.597 325.649Z" fill="#8697CB"/>
<path d="M117.621 334.754C119.285 334.754 120.633 333.396 120.633 331.719C120.633 330.043 119.285 328.684 117.621 328.684C115.957 328.684 114.609 330.043 114.609 331.719C114.609 333.396 115.957 334.754 117.621 334.754Z" fill="#8697CB"/>
<path d="M99.5485 325.649C101.212 325.649 102.561 324.29 102.561 322.614C102.561 320.938 101.212 319.579 99.5485 319.579C97.8849 319.579 96.5364 320.938 96.5364 322.614C96.5364 324.29 97.8849 325.649 99.5485 325.649Z" fill="#8697CB"/>
<path d="M105.573 334.754C107.236 334.754 108.585 333.396 108.585 331.719C108.585 330.043 107.236 328.684 105.573 328.684C103.909 328.684 102.561 330.043 102.561 331.719C102.561 333.396 103.909 334.754 105.573 334.754Z" fill="#8697CB"/>
<path d="M588 163H516C516 156.373 521.373 151 528 151H576C582.627 151 588 156.373 588 163Z" fill="#E8EDEE"/>
<path d="M574 151H531L537.143 127H567.857L574 151Z" fill="#B0B6BB"/>
<path d="M640 103H465V10.6031C465 4.74715 469.728 0 475.56 0H629.44C635.272 0 640 4.74715 640 10.6031V103H640Z" fill="#38454F"/>
<path d="M629.439 127H475.56C469.728 127 465 122.299 465 116.5V103H640V116.5C640 122.299 635.272 127 629.439 127Z" fill="#E8EDEE"/>
<path d="M628.16 186.944V192H667.84V186.944H710V106.056C710 103.262 707.78 101 705.04 101H590.96C588.22 101 586 103.262 586 106.056V186.944H628.16Z" fill="#38454F"/>
<path d="M667.5 187V191.8H627.5V187H575V194.2C575 196.852 577.238 199 580 199H715C717.762 199 720 196.852 720 194.2V187H667.5Z" fill="#B0B6BB"/>
<path d="M590 182H705V107H590V182Z" fill="#546A79"/>
<path d="M491.372 207H451.598C448.627 207 446.221 204.607 446.221 201.658V121.342C446.221 118.393 448.627 116 451.598 116H491.372C494.343 116 496.749 118.393 496.749 121.342V201.656C496.751 204.607 494.343 207 491.372 207Z" fill="#545E73"/>
<rect x="446.221" y="125.414" width="50.5296" height="62.7586" fill="#8697CB"/>
<path d="M471.486 202.293C474.102 202.293 476.223 200.186 476.223 197.586C476.223 194.987 474.102 192.879 471.486 192.879C468.87 192.879 466.749 194.987 466.749 197.586C466.749 200.186 468.87 202.293 471.486 202.293Z" fill="#323A45"/>
<path d="M471.486 122.276H465.17C464.296 122.276 463.591 121.575 463.591 120.707C463.591 119.839 464.296 119.138 465.17 119.138H471.486C472.359 119.138 473.065 119.839 473.065 120.707C473.065 121.575 472.357 122.276 471.486 122.276Z" fill="#323A45"/>
<path d="M477.802 122.276H476.223C475.35 122.276 474.644 121.575 474.644 120.707C474.644 119.839 475.35 119.138 476.223 119.138H477.802C478.675 119.138 479.381 119.839 479.381 120.707C479.381 121.575 478.674 122.276 477.802 122.276Z" fill="#323A45"/>
</svg>
