<svg width="17" height="30" viewBox="0 0 17 30" fill="none" xmlns="http://www.w3.org/2000/svg">
<path d="M15.6056 0.006242L11.716 0C7.34627 0 4.52234 2.89785 4.52234 7.38304V10.7871H0.611591C0.273656 10.7871 0 11.0611 0 11.3991V16.3313C0 16.6693 0.273968 16.943 0.611591 16.943H4.52234V29.3883C4.52234 29.7263 4.796 30 5.13393 30H10.2364C10.5743 30 10.8479 29.726 10.8479 29.3883V16.943H15.4205C15.7585 16.943 16.0321 16.6693 16.0321 16.3313L16.034 11.3991C16.034 11.2369 15.9694 11.0814 15.8549 10.9666C15.7404 10.8517 15.5843 10.7871 15.4221 10.7871H10.8479V7.90144C10.8479 6.51447 11.1784 5.81037 12.9848 5.81037L15.6049 5.80943C15.9426 5.80943 16.2162 5.53541 16.2162 5.19772V0.617958C16.2162 0.280578 15.9429 0.0068662 15.6056 0.006242Z" fill="white"/>
</svg>
