<svg width="23" height="23" viewBox="0 0 23 23" fill="none" xmlns="http://www.w3.org/2000/svg">
<path d="M11.5 0.00223638C5.28483 -0.120299 0.141908 4.80787 0 11.022C0.0162168 14.1852 1.41702 17.1827 3.83332 19.2245V22.5209C3.83332 22.7855 4.04787 23 4.3125 23C4.4023 23 4.4903 22.9748 4.56644 22.9272L7.23732 21.2589C8.59809 21.7793 10.0431 22.0447 11.5 22.0418C17.7152 22.1643 22.8581 17.2361 23 11.022C22.8581 4.80787 17.7152 -0.120299 11.5 0.00223638Z" fill="#F54A32"/>
<path d="M18.9055 8.20101C18.766 8.00162 18.5103 7.94195 18.3055 8.06101L13.4306 10.8958L10.3978 8.12199C10.2118 7.95194 9.93443 7.96323 9.76124 8.148L4.1363 14.1476C3.95379 14.3434 3.95467 14.66 4.13832 14.8546C4.28514 15.0103 4.51027 15.0448 4.69224 14.9395L9.56718 12.1047L12.6028 14.8795C12.7887 15.0496 13.0661 15.0383 13.2393 14.8535L18.8643 8.85393C19.0282 8.67746 19.0457 8.39937 18.9055 8.20101Z" fill="#FAFAFA"/>
</svg>
