<svg width="24" height="24" viewBox="0 0 24 24" fill="none" xmlns="http://www.w3.org/2000/svg">
<path fill-rule="evenodd" clip-rule="evenodd" d="M12 0C15.2054 0 18.2188 1.24819 20.4853 3.51478C22.7518 5.78123 24 8.79464 24 12C24 15.2054 22.7518 18.2188 20.4853 20.4853C18.2188 22.7518 15.2054 24 12 24C8.79464 24 5.78123 22.7518 3.51478 20.4853C1.24819 18.2188 0 15.2054 0 12C0 8.79464 1.24819 5.78123 3.51478 3.51478C5.78123 1.24819 8.79464 0 12 0ZM0.956156 12C0.956156 18.0896 5.91042 23.0438 12 23.0438C18.0896 23.0438 23.0438 18.0896 23.0438 12C23.0438 5.91042 18.0896 0.956156 12 0.956156C5.91042 0.956156 0.956156 5.91038 0.956156 12Z" fill="white"/>
<path d="M22.7625 12.4138C22.5362 12.4138 22.3527 12.5416 22.3527 12.6992C22.3527 12.7807 22.3501 12.863 22.3451 12.9437C22.3353 13.1011 22.5107 13.2343 22.7369 13.2411C22.7429 13.2413 22.7489 13.2414 22.7549 13.2414C22.973 13.2414 23.1545 13.1216 23.164 12.9683C23.1695 12.8795 23.1723 12.7889 23.1723 12.6992C23.1723 12.5416 22.9888 12.4138 22.7625 12.4138Z" fill="white"/>
<path fill-rule="evenodd" clip-rule="evenodd" d="M10.7585 9.22893C10.7585 8.24709 11.5011 7.44827 12.4137 7.44827C13.3264 7.44827 14.0689 8.24704 14.0689 9.22893V18.0814C14.0689 19.0632 13.3264 19.8621 12.4137 19.8621C11.5011 19.8621 10.7585 19.0632 10.7585 18.0814V9.22893ZM12.4137 18.8446C12.8049 18.8446 13.1231 18.5022 13.1231 18.0814V9.22893C13.1231 8.80812 12.8049 8.46578 12.4137 8.46578C12.0226 8.46578 11.7043 8.80812 11.7043 9.22893V18.0814C11.7043 18.5022 12.0226 18.8446 12.4137 18.8446Z" fill="white"/>
<path fill-rule="evenodd" clip-rule="evenodd" d="M12.4137 4.13792C12.8488 4.13792 13.2754 4.3144 13.5838 4.62218C13.8923 4.93062 14.0689 5.35724 14.0689 5.7931C14.0689 6.22825 13.8924 6.65479 13.5845 6.96322C13.2754 7.27175 12.8489 7.44827 12.4137 7.44827C11.9785 7.44827 11.552 7.27175 11.2435 6.96392C10.935 6.65474 10.7585 6.22821 10.7585 5.7931C10.7585 5.35724 10.9352 4.93067 11.2431 4.6226C11.552 4.3144 11.9786 4.13792 12.4137 4.13792ZM12.4137 6.50247C12.6003 6.50247 12.7832 6.42661 12.9157 6.29447C13.0472 6.16269 13.1231 5.97972 13.123 5.7931C13.123 5.60624 13.0474 5.42341 12.9154 5.2914C12.7833 5.15963 12.6003 5.08377 12.4137 5.08377C12.2271 5.08377 12.0441 5.15963 11.9116 5.29177C11.7801 5.42332 11.7043 5.60619 11.7043 5.79314C11.7043 5.97968 11.7802 6.16269 11.9123 6.29521C12.0441 6.42661 12.227 6.50247 12.4137 6.50247Z" fill="white"/>
</svg>
