<svg width="435" height="24" viewBox="0 0 435 24" fill="none" xmlns="http://www.w3.org/2000/svg">
<path d="M0.965156 18V1.992H11.3812V5.52H5.14116V8.28H6.77316C9.15716 8.28 10.8452 8.8 11.8372 9.84C12.6532 10.704 13.0612 11.808 13.0612 13.152C13.0612 14.544 12.6212 15.68 11.7412 16.56C10.7652 17.52 9.06116 18 6.62916 18H0.965156ZM5.14116 14.76H6.58116C7.46116 14.76 8.07716 14.576 8.42916 14.208C8.70116 13.904 8.83716 13.528 8.83716 13.08C8.83716 12.568 8.67716 12.168 8.35716 11.88C8.02116 11.592 7.42916 11.448 6.58116 11.448H5.14116V14.76ZM26.7233 12.936V13.344H18.7313C18.7313 14.096 18.9553 14.696 19.4033 15.144C19.7553 15.496 20.2833 15.672 20.9873 15.672C21.4673 15.672 21.8833 15.576 22.2353 15.384C22.5393 15.208 22.7633 14.968 22.9073 14.664H26.5793C26.3393 15.528 25.9073 16.264 25.2833 16.872C24.2593 17.864 22.8033 18.36 20.9153 18.36C19.0433 18.36 17.5633 17.816 16.4753 16.728C15.4193 15.672 14.8913 14.32 14.8913 12.672C14.8913 10.944 15.4273 9.56 16.4993 8.52C17.5713 7.48 19.0353 6.96 20.8913 6.96C22.6033 6.96 23.9793 7.448 25.0193 8.424C26.1553 9.512 26.7233 11.016 26.7233 12.936ZM18.8513 11.136H23.1953C23.0833 10.672 22.8753 10.288 22.5713 9.984C22.1873 9.6 21.6593 9.408 20.9873 9.408C20.3313 9.408 19.8113 9.6 19.4273 9.984C19.1073 10.336 18.9153 10.72 18.8513 11.136ZM40.1251 7.272V18H36.2851V10.416H33.5491V13.488C33.5491 15.12 33.1731 16.328 32.4211 17.112C31.7491 17.8 30.7411 18.144 29.3971 18.144C28.9011 18.144 28.3891 18.096 27.8611 18V15.216C28.5331 15.296 29.0371 15.16 29.3731 14.808C29.6931 14.472 29.8531 13.896 29.8531 13.08V7.272H40.1251ZM51.0732 8.304V7.272H54.9132V18H51.0732V16.824C50.3372 17.848 49.2252 18.36 47.7372 18.36C46.2332 18.36 44.9452 17.792 43.8732 16.656C42.8492 15.568 42.3372 14.256 42.3372 12.72C42.3372 10.96 42.8892 9.528 43.9932 8.424C45.0012 7.416 46.2892 6.912 47.8572 6.912C49.1692 6.912 50.2412 7.376 51.0732 8.304ZM48.7212 10.176C48.0812 10.176 47.5212 10.408 47.0412 10.872C46.5292 11.368 46.2732 11.952 46.2732 12.624C46.2732 13.328 46.5212 13.912 47.0172 14.376C47.5292 14.856 48.1052 15.096 48.7452 15.096C49.4012 15.096 49.9772 14.848 50.4732 14.352C50.9532 13.872 51.1932 13.296 51.1932 12.624C51.1932 11.936 50.9452 11.352 50.4492 10.872C49.9532 10.408 49.3772 10.176 48.7212 10.176ZM61.3983 16.968V23.496H57.5583V7.272H61.3983V8.448C62.2143 7.424 63.3103 6.912 64.6863 6.912C66.1903 6.912 67.4623 7.432 68.5023 8.472C69.5903 9.56 70.1343 10.944 70.1343 12.624C70.1343 14.336 69.5583 15.752 68.4063 16.872C67.3983 17.864 66.1743 18.36 64.7343 18.36C63.4063 18.36 62.2943 17.896 61.3983 16.968ZM63.7503 10.176C63.0783 10.176 62.5023 10.416 62.0223 10.896C61.5263 11.392 61.2783 11.984 61.2783 12.672C61.2783 13.312 61.5263 13.88 62.0223 14.376C62.5023 14.856 63.0783 15.096 63.7503 15.096C64.4383 15.096 65.0063 14.856 65.4543 14.376C65.9503 13.88 66.1983 13.312 66.1983 12.672C66.1983 11.984 65.9503 11.392 65.4543 10.896C65.0063 10.416 64.4383 10.176 63.7503 10.176ZM71.7207 23.496L75.3207 16.536L70.1367 7.272H74.6007L77.4567 12.768L80.2407 7.272H84.6327L76.0167 23.496H71.7207ZM93.5375 14.544V17.76C92.7215 18.16 91.8335 18.36 90.8735 18.36C89.1775 18.36 87.7695 17.816 86.6495 16.728C85.5455 15.656 84.9935 14.32 84.9935 12.72C84.9935 11.072 85.5695 9.688 86.7215 8.568C87.8575 7.48 89.2975 6.936 91.0415 6.936C91.9055 6.936 92.7375 7.136 93.5375 7.536V10.752C92.8815 10.288 92.2175 10.056 91.5455 10.056C90.7935 10.056 90.1695 10.304 89.6735 10.8C89.1775 11.296 88.9295 11.912 88.9295 12.648C88.9295 13.352 89.1535 13.952 89.6015 14.448C90.1135 14.992 90.7695 15.264 91.5695 15.264C92.3215 15.264 92.9775 15.024 93.5375 14.544ZM103.827 14.544V17.76C103.011 18.16 102.123 18.36 101.163 18.36C99.4665 18.36 98.0585 17.816 96.9385 16.728C95.8345 15.656 95.2825 14.32 95.2825 12.72C95.2825 11.072 95.8585 9.688 97.0105 8.568C98.1465 7.48 99.5865 6.936 101.331 6.936C102.195 6.936 103.027 7.136 103.827 7.536V10.752C103.171 10.288 102.507 10.056 101.835 10.056C101.083 10.056 100.459 10.304 99.9625 10.8C99.4665 11.296 99.2185 11.912 99.2185 12.648C99.2185 13.352 99.4425 13.952 99.8905 14.448C100.403 14.992 101.059 15.264 101.859 15.264C102.611 15.264 103.267 15.024 103.827 14.544ZM106.004 18V7.272H109.844V11.664L113.084 7.272H117.908L113.468 12.312L118.316 18H113.348L109.844 13.248V18H106.004ZM127.222 8.304V7.272H131.062V18H127.222V16.824C126.486 17.848 125.374 18.36 123.886 18.36C122.382 18.36 121.094 17.792 120.022 16.656C118.998 15.568 118.486 14.256 118.486 12.72C118.486 10.96 119.038 9.528 120.142 8.424C121.15 7.416 122.438 6.912 124.006 6.912C125.318 6.912 126.39 7.376 127.222 8.304ZM124.87 10.176C124.23 10.176 123.67 10.408 123.19 10.872C122.678 11.368 122.422 11.952 122.422 12.624C122.422 13.328 122.67 13.912 123.166 14.376C123.678 14.856 124.254 15.096 124.894 15.096C125.55 15.096 126.126 14.848 126.622 14.352C127.102 13.872 127.342 13.296 127.342 12.624C127.342 11.936 127.094 11.352 126.598 10.872C126.102 10.408 125.526 10.176 124.87 10.176ZM133.059 18L136.035 14.256C135.299 14.112 134.675 13.8 134.163 13.32C133.603 12.76 133.323 11.992 133.323 11.016C133.323 9.944 133.643 9.072 134.283 8.4C134.987 7.648 136.203 7.272 137.931 7.272H143.595V18H139.755V14.592H139.443L137.091 18H133.059ZM139.755 12.24V9.768H138.603C138.043 9.768 137.643 9.88 137.403 10.104C137.179 10.328 137.067 10.632 137.067 11.016C137.067 11.416 137.187 11.72 137.427 11.928C137.683 12.136 138.059 12.24 138.555 12.24H139.755ZM157.871 10.176C157.215 10.176 156.639 10.408 156.143 10.872C155.647 11.336 155.399 11.92 155.399 12.624C155.399 13.264 155.647 13.832 156.143 14.328C156.623 14.808 157.199 15.048 157.871 15.048C158.527 15.048 159.095 14.808 159.575 14.328C160.071 13.864 160.319 13.296 160.319 12.624C160.319 11.952 160.071 11.368 159.575 10.872C159.079 10.408 158.511 10.176 157.871 10.176ZM162.647 8.688C163.751 9.76 164.303 11.072 164.303 12.624C164.303 14.176 163.751 15.496 162.647 16.584C161.447 17.768 159.847 18.36 157.847 18.36C155.863 18.36 154.271 17.768 153.071 16.584C151.967 15.496 151.415 14.176 151.415 12.624C151.415 11.072 151.967 9.76 153.071 8.688C154.287 7.504 155.879 6.912 157.847 6.912C159.799 6.912 161.399 7.504 162.647 8.688ZM169.447 8.424H169.615C170.447 7.448 171.655 6.96 173.239 6.96C174.983 6.96 176.399 7.464 177.487 8.472C178.495 9.416 178.999 10.712 178.999 12.36C178.999 14.088 178.447 15.504 177.343 16.608C176.175 17.776 174.575 18.36 172.543 18.36C170.559 18.36 169.015 17.792 167.911 16.656C166.695 15.408 166.087 13.528 166.087 11.016C166.087 7.8 166.855 5.392 168.391 3.792C168.919 3.264 169.511 2.848 170.167 2.544C170.839 2.24 171.703 1.984 172.759 1.776L173.455 1.632C174.303 1.472 174.847 1.272 175.087 1.032C175.295 0.791999 175.399 0.527999 175.399 0.24H178.735C178.623 1.072 178.295 1.848 177.751 2.568C177.239 3.24 176.503 3.752 175.543 4.104C175.191 4.232 174.263 4.504 172.759 4.92C171.655 5.224 170.871 5.616 170.407 6.096C169.847 6.704 169.527 7.48 169.447 8.424ZM172.543 10.128C171.903 10.128 171.351 10.336 170.887 10.752C170.343 11.232 170.071 11.84 170.071 12.576C170.071 13.312 170.343 13.928 170.887 14.424C171.351 14.84 171.903 15.048 172.543 15.048C173.199 15.048 173.751 14.84 174.199 14.424C174.743 13.912 175.015 13.264 175.015 12.48C175.015 11.808 174.743 11.232 174.199 10.752C173.719 10.336 173.167 10.128 172.543 10.128ZM189.327 14.544V17.76C188.511 18.16 187.623 18.36 186.663 18.36C184.967 18.36 183.559 17.816 182.439 16.728C181.335 15.656 180.783 14.32 180.783 12.72C180.783 11.072 181.359 9.688 182.511 8.568C183.647 7.48 185.087 6.936 186.831 6.936C187.695 6.936 188.527 7.136 189.327 7.536V10.752C188.671 10.288 188.007 10.056 187.335 10.056C186.583 10.056 185.959 10.304 185.463 10.8C184.967 11.296 184.719 11.912 184.719 12.648C184.719 13.352 184.943 13.952 185.391 14.448C185.903 14.992 186.559 15.264 187.359 15.264C188.111 15.264 188.767 15.024 189.327 14.544ZM202.88 12.936V13.344H194.888C194.888 14.096 195.112 14.696 195.56 15.144C195.912 15.496 196.44 15.672 197.144 15.672C197.624 15.672 198.04 15.576 198.392 15.384C198.696 15.208 198.92 14.968 199.064 14.664H202.736C202.496 15.528 202.064 16.264 201.44 16.872C200.416 17.864 198.96 18.36 197.072 18.36C195.2 18.36 193.72 17.816 192.632 16.728C191.576 15.672 191.048 14.32 191.048 12.672C191.048 10.944 191.584 9.56 192.656 8.52C193.728 7.48 195.192 6.96 197.048 6.96C198.76 6.96 200.136 7.448 201.176 8.424C202.312 9.512 202.88 11.016 202.88 12.936ZM195.008 11.136H199.352C199.24 10.672 199.032 10.288 198.728 9.984C198.344 9.6 197.816 9.408 197.144 9.408C196.488 9.408 195.968 9.6 195.584 9.984C195.264 10.336 195.072 10.72 195.008 11.136ZM208.937 16.968V23.496H205.097V7.272H208.937V8.448C209.753 7.424 210.849 6.912 212.225 6.912C213.729 6.912 215.001 7.432 216.041 8.472C217.129 9.56 217.673 10.944 217.673 12.624C217.673 14.336 217.097 15.752 215.945 16.872C214.937 17.864 213.713 18.36 212.273 18.36C210.945 18.36 209.833 17.896 208.937 16.968ZM211.289 10.176C210.617 10.176 210.041 10.416 209.561 10.896C209.065 11.392 208.817 11.984 208.817 12.672C208.817 13.312 209.065 13.88 209.561 14.376C210.041 14.856 210.617 15.096 211.289 15.096C211.977 15.096 212.545 14.856 212.993 14.376C213.489 13.88 213.737 13.312 213.737 12.672C213.737 11.984 213.489 11.392 212.993 10.896C212.545 10.416 211.977 10.176 211.289 10.176ZM219.886 7.272H226.462C227.742 7.272 228.654 7.528 229.198 8.04C229.694 8.504 229.942 9.128 229.942 9.912C229.942 10.536 229.79 11.072 229.486 11.52C229.23 11.888 228.838 12.184 228.31 12.408V12.456C228.934 12.584 229.446 12.832 229.846 13.2C230.358 13.664 230.614 14.28 230.614 15.048C230.614 15.912 230.358 16.6 229.846 17.112C229.254 17.704 228.382 18 227.23 18H219.886V7.272ZM223.726 11.544H225.166C225.63 11.544 225.958 11.464 226.15 11.304C226.342 11.128 226.438 10.872 226.438 10.536C226.438 10.232 226.35 10.008 226.174 9.864C225.982 9.688 225.638 9.6 225.142 9.6H223.726V11.544ZM223.726 15.672H225.43C225.83 15.672 226.142 15.568 226.366 15.36C226.574 15.152 226.678 14.896 226.678 14.592C226.678 14.256 226.582 13.992 226.39 13.8C226.214 13.624 225.894 13.536 225.43 13.536H223.726V15.672ZM240.894 8.304V7.272H244.734V18H240.894V16.824C240.158 17.848 239.046 18.36 237.558 18.36C236.054 18.36 234.766 17.792 233.694 16.656C232.67 15.568 232.158 14.256 232.158 12.72C232.158 10.96 232.71 9.528 233.814 8.424C234.822 7.416 236.11 6.912 237.678 6.912C238.99 6.912 240.062 7.376 240.894 8.304ZM238.542 10.176C237.902 10.176 237.342 10.408 236.862 10.872C236.35 11.368 236.094 11.952 236.094 12.624C236.094 13.328 236.342 13.912 236.838 14.376C237.35 14.856 237.926 15.096 238.566 15.096C239.222 15.096 239.798 14.848 240.294 14.352C240.774 13.872 241.014 13.296 241.014 12.624C241.014 11.936 240.766 11.352 240.27 10.872C239.774 10.408 239.198 10.176 238.542 10.176ZM249.083 18V10.416H246.299V7.272H255.707V10.416H252.923V18H249.083ZM263.293 10.176C262.637 10.176 262.061 10.408 261.565 10.872C261.069 11.336 260.821 11.92 260.821 12.624C260.821 13.264 261.069 13.832 261.565 14.328C262.045 14.808 262.621 15.048 263.293 15.048C263.949 15.048 264.517 14.808 264.997 14.328C265.493 13.864 265.741 13.296 265.741 12.624C265.741 11.952 265.493 11.368 264.997 10.872C264.501 10.408 263.933 10.176 263.293 10.176ZM268.069 8.688C269.173 9.76 269.725 11.072 269.725 12.624C269.725 14.176 269.173 15.496 268.069 16.584C266.869 17.768 265.269 18.36 263.269 18.36C261.285 18.36 259.693 17.768 258.493 16.584C257.389 15.496 256.837 14.176 256.837 12.624C256.837 11.072 257.389 9.76 258.493 8.688C259.709 7.504 261.301 6.912 263.269 6.912C265.221 6.912 266.821 7.504 268.069 8.688ZM275.781 16.968V23.496H271.941V7.272H275.781V8.448C276.597 7.424 277.693 6.912 279.069 6.912C280.573 6.912 281.845 7.432 282.885 8.472C283.973 9.56 284.517 10.944 284.517 12.624C284.517 14.336 283.941 15.752 282.789 16.872C281.781 17.864 280.557 18.36 279.117 18.36C277.789 18.36 276.677 17.896 275.781 16.968ZM278.133 10.176C277.461 10.176 276.885 10.416 276.405 10.896C275.909 11.392 275.661 11.984 275.661 12.672C275.661 13.312 275.909 13.88 276.405 14.376C276.885 14.856 277.461 15.096 278.133 15.096C278.821 15.096 279.389 14.856 279.837 14.376C280.333 13.88 280.581 13.312 280.581 12.672C280.581 11.984 280.333 11.392 279.837 10.896C279.389 10.416 278.821 10.176 278.133 10.176ZM286.73 7.272H290.57V12.792L294.818 7.272H298.154V18H294.314V12.336L290.114 18H286.73V7.272ZM300.145 18L303.121 14.256C302.385 14.112 301.761 13.8 301.249 13.32C300.689 12.76 300.409 11.992 300.409 11.016C300.409 9.944 300.729 9.072 301.369 8.4C302.073 7.648 303.289 7.272 305.017 7.272H310.681V18H306.841V14.592H306.529L304.177 18H300.145ZM306.841 12.24V9.768H305.689C305.129 9.768 304.729 9.88 304.489 10.104C304.265 10.328 304.153 10.632 304.153 11.016C304.153 11.416 304.273 11.72 304.513 11.928C304.769 12.136 305.145 12.24 305.641 12.24H306.841ZM318.933 7.272H322.773V12.792L327.021 7.272H330.357V18H326.517V12.336L322.317 18H318.933V7.272ZM332.996 18V7.272H336.836V10.896H340.412V7.272H344.252V18H340.412V13.92H336.836V18H332.996ZM348.598 18V10.416H345.814V7.272H355.222V10.416H352.438V18H348.598ZM368.161 12.936V13.344H360.169C360.169 14.096 360.393 14.696 360.841 15.144C361.193 15.496 361.721 15.672 362.425 15.672C362.905 15.672 363.321 15.576 363.673 15.384C363.977 15.208 364.201 14.968 364.345 14.664H368.017C367.777 15.528 367.345 16.264 366.721 16.872C365.697 17.864 364.241 18.36 362.353 18.36C360.481 18.36 359.001 17.816 357.913 16.728C356.857 15.672 356.329 14.32 356.329 12.672C356.329 10.944 356.865 9.56 357.937 8.52C359.009 7.48 360.473 6.96 362.329 6.96C364.041 6.96 365.417 7.448 366.457 8.424C367.593 9.512 368.161 11.016 368.161 12.936ZM360.289 11.136H364.633C364.521 10.672 364.313 10.288 364.009 9.984C363.625 9.6 363.097 9.408 362.425 9.408C361.769 9.408 361.249 9.6 360.865 9.984C360.545 10.336 360.353 10.72 360.289 11.136ZM374.219 16.968V23.496H370.379V7.272H374.219V8.448C375.035 7.424 376.131 6.912 377.507 6.912C379.011 6.912 380.283 7.432 381.323 8.472C382.411 9.56 382.955 10.944 382.955 12.624C382.955 14.336 382.379 15.752 381.227 16.872C380.219 17.864 378.995 18.36 377.555 18.36C376.227 18.36 375.115 17.896 374.219 16.968ZM376.571 10.176C375.899 10.176 375.323 10.416 374.843 10.896C374.347 11.392 374.099 11.984 374.099 12.672C374.099 13.312 374.347 13.88 374.843 14.376C375.323 14.856 375.899 15.096 376.571 15.096C377.259 15.096 377.827 14.856 378.275 14.376C378.771 13.88 379.019 13.312 379.019 12.672C379.019 11.984 378.771 11.392 378.275 10.896C377.827 10.416 377.259 10.176 376.571 10.176ZM385.168 18V7.272H389.008V10.896H392.584V7.272H396.424V18H392.584V13.92H389.008V18H385.168ZM410.442 12.936V13.344H402.45C402.45 14.096 402.674 14.696 403.122 15.144C403.474 15.496 404.002 15.672 404.706 15.672C405.186 15.672 405.602 15.576 405.954 15.384C406.258 15.208 406.482 14.968 406.626 14.664H410.298C410.058 15.528 409.626 16.264 409.002 16.872C407.978 17.864 406.522 18.36 404.634 18.36C402.762 18.36 401.282 17.816 400.194 16.728C399.138 15.672 398.61 14.32 398.61 12.672C398.61 10.944 399.146 9.56 400.218 8.52C401.29 7.48 402.754 6.96 404.61 6.96C406.322 6.96 407.698 7.448 408.738 8.424C409.874 9.512 410.442 11.016 410.442 12.936ZM402.57 11.136H406.914C406.802 10.672 406.594 10.288 406.29 9.984C405.906 9.6 405.378 9.408 404.706 9.408C404.05 9.408 403.53 9.6 403.146 9.984C402.826 10.336 402.634 10.72 402.57 11.136ZM414.364 18V10.416H411.58V7.272H420.988V10.416H418.204V18H414.364ZM430.55 8.304V7.272H434.39V18H430.55V16.824C429.814 17.848 428.702 18.36 427.214 18.36C425.71 18.36 424.422 17.792 423.35 16.656C422.326 15.568 421.814 14.256 421.814 12.72C421.814 10.96 422.366 9.528 423.47 8.424C424.478 7.416 425.766 6.912 427.334 6.912C428.646 6.912 429.718 7.376 430.55 8.304ZM428.198 10.176C427.558 10.176 426.998 10.408 426.518 10.872C426.006 11.368 425.75 11.952 425.75 12.624C425.75 13.328 425.998 13.912 426.494 14.376C427.006 14.856 427.582 15.096 428.222 15.096C428.878 15.096 429.454 14.848 429.95 14.352C430.43 13.872 430.67 13.296 430.67 12.624C430.67 11.936 430.422 11.352 429.926 10.872C429.43 10.408 428.854 10.176 428.198 10.176Z" fill="white"/>
</svg>
