<svg width="997" height="626" viewBox="0 0 997 626" fill="none" xmlns="http://www.w3.org/2000/svg">
<path fill-rule="evenodd" clip-rule="evenodd" d="M989.134 579.6H943.227H826.926H691.224H548.363H529.015C524.832 579.6 521.442 582.991 521.442 587.172C521.442 591.355 524.832 594.746 529.015 594.746H529.016C536.42 594.746 543.747 596.264 550.542 599.206L566.38 606.067C570.368 607.794 574.551 609.036 578.836 609.763L601.369 613.591C604.531 614.128 607.722 614.376 610.904 614.349L705.39 614.356C716.195 614.356 726.965 615.548 737.508 617.91L757.171 622.314C773.525 625.976 790.384 626.816 807.021 624.795L884.867 615.341C892.34 614.434 899.867 614.215 907.394 614.348C914.44 614.473 921.469 613.221 928.08 610.635L959.193 598.466C965.48 596.007 972.171 594.746 978.922 594.746H989.134C993.318 594.746 996.708 591.355 996.708 587.172C996.708 582.991 993.318 579.6 989.134 579.6Z" fill="#F1F4FA"/>
<path fill-rule="evenodd" clip-rule="evenodd" d="M7.60769 579.6H372.78C376.963 579.6 380.355 582.991 380.355 587.172V587.173C380.355 591.355 376.963 594.746 372.78 594.746H362.568C348.962 594.746 292.561 615.794 275.368 615.331C278.193 615.304 261.795 614.958 234.334 615.496C170.212 616.748 89.6517 615.238 79.9617 613.591L57.4277 609.763C53.1437 609.036 48.9617 607.794 44.9737 606.067L29.1337 599.206C22.3387 596.264 15.0127 594.746 7.60769 594.746C3.42469 594.746 0.0336914 591.355 0.0336914 587.173V587.172C0.0336914 582.991 3.42469 579.6 7.60769 579.6Z" fill="#F1F4FA"/>
<path fill-rule="evenodd" clip-rule="evenodd" d="M98.015 580.538L97.688 584.414L102.323 589.414L106.755 586.856L106.718 584.865L107.284 580.538H98.015Z" fill="white"/>
<path fill-rule="evenodd" clip-rule="evenodd" d="M52.6616 582.103L52.2036 585.989L57.0866 590.067C57.0866 590.067 60.6146 588.147 60.8746 587.998C61.1346 587.847 62.9616 581.647 62.9616 581.647L52.6616 582.103Z" fill="white"/>
<path fill-rule="evenodd" clip-rule="evenodd" d="M100.844 240.964L104.242 222.071C104.242 222.071 100.617 211.922 106.593 208.594C112.568 205.266 117.918 208.372 118.701 210.2C119.484 212.027 106.158 244.454 106.158 244.454L100.844 240.964Z" fill="#FDD4C6"/>
<path fill-rule="evenodd" clip-rule="evenodd" d="M40.0059 401.773C45.3539 449.285 51.2479 462.077 56.9079 496.586C59.9499 515.138 56.6299 540.988 52.2339 581.856C51.8599 585.327 65.2169 585.206 66.1969 581.856C75.2339 550.973 86.5799 510.562 88.7119 495.042C91.4239 475.302 89.3889 436.808 89.3889 436.808L77.2449 393.941L40.0059 401.773Z" fill="#2233A3"/>
<path fill-rule="evenodd" clip-rule="evenodd" d="M92.9007 386.501C112.656 430.043 115.766 464.026 117.947 482.699C121.076 509.483 113.936 532.569 109.348 580.342C109.062 583.32 97.4527 583.333 97.3797 580.342C96.3287 536.876 96.2007 490.533 89.3887 473.303C83.6287 458.733 71.1297 438.171 71.1297 438.171L56.9077 398.851L92.9007 386.501Z" fill="#2233A3"/>
<path fill-rule="evenodd" clip-rule="evenodd" d="M78.0991 311.339L97.2321 260.567L100.844 240.964L112.718 248.763L106.582 303.903L93.5911 339.122L78.0991 311.339Z" fill="#ADB8FD"/>
<path fill-rule="evenodd" clip-rule="evenodd" d="M68.0629 412.704C89.3889 412.704 93.3299 405.24 93.3299 405.24L92.9409 348.793C92.9409 348.793 87.8409 321.403 88.0109 321.209C88.1809 321.015 80.6099 313.473 80.8409 316.833C81.0709 320.194 81.2529 323.511 75.5539 324.078C69.8539 324.644 61.5469 319.345 61.5469 319.345L63.7989 328.254L68.0629 412.704Z" fill="white"/>
<path fill-rule="evenodd" clip-rule="evenodd" d="M100.844 240.964L99.1572 250.118L111.775 257.236L112.718 248.763L100.844 240.964Z" fill="#2233A3"/>
<path fill-rule="evenodd" clip-rule="evenodd" d="M80.877 319.743C83.454 324.206 86.841 349.314 86.97 357.602C87.1 365.891 88.044 386.642 90.177 400.823C91.321 408.432 107.213 447.981 107.213 447.981C107.213 447.981 117.273 443.283 117.267 436.248C117.26 427.714 97.184 402.818 99.278 354.235C99.83 341.424 93.835 322.899 91.051 318.3C88.266 313.701 85.416 311.435 85.416 311.435L81.05 312.289L80.877 319.743Z" fill="#ADB8FD"/>
<path fill-rule="evenodd" clip-rule="evenodd" d="M69.529 326.195C69.529 326.195 69.054 445.093 73.167 458.798C73.167 458.798 33.461 451.974 30.353 441.625C19.481 405.429 30.279 338.199 44.021 326.723C56.475 316.321 59.554 314.39 59.554 314.39L63.292 325.513L69.529 326.195Z" fill="#ADB8FD"/>
<path fill-rule="evenodd" clip-rule="evenodd" d="M76.6306 313.848C81.0716 320.119 81.7876 322.033 81.7876 322.033C81.7876 322.033 84.3536 320.603 86.7586 320.701C86.7586 320.701 81.5756 311.156 77.4386 309.688C73.3016 308.219 76.6306 313.848 76.6306 313.848Z" fill="#2233A3"/>
<path fill-rule="evenodd" clip-rule="evenodd" d="M61.0913 312.473C74.6393 307.534 52.1193 290.975 67.5243 285.158C82.9293 279.34 88.7993 302.588 87.1073 307.012C85.4163 311.434 79.3233 308.039 78.7363 312.213C78.6473 312.841 78.9253 317.408 78.8833 318.009C78.6303 321.599 77.6553 322.71 74.0703 323.04C71.1653 323.308 68.2373 322.901 65.5153 321.851L61.5473 320.322L61.0913 312.473Z" fill="#FDD4C6"/>
<path fill-rule="evenodd" clip-rule="evenodd" d="M56.9741 314.787C58.3661 320.218 58.8741 322.266 64.1621 327.962C64.1621 327.962 68.5161 326.084 69.5291 326.195C69.5291 326.195 66.4181 323.027 63.2511 317.892C61.2741 314.686 61.0911 312.474 61.0911 312.474L56.9741 314.787Z" fill="#2233A3"/>
<path fill-rule="evenodd" clip-rule="evenodd" d="M39.2264 412.086L38.1494 417.079C38.1494 417.079 44.5924 421.157 62.9984 424.813V419.33C62.9984 419.33 45.7384 415.845 39.2264 412.086Z" fill="#2233A3"/>
<path fill-rule="evenodd" clip-rule="evenodd" d="M106.271 406.712L103.32 412.704L108.453 415.12L110.216 409.638L106.271 406.712Z" fill="#2233A3"/>
<path fill-rule="evenodd" clip-rule="evenodd" d="M81.8142 289.379C79.6172 288.346 77.0222 288.111 76.5822 289.379C76.1412 290.647 73.3322 288.934 71.5392 290.647C69.7462 292.36 72.2732 299.604 70.9022 300.143C69.5322 300.681 67.3642 299.541 67.2972 301.971C67.2312 304.401 71.1512 305.451 71.1512 305.451C71.1512 305.451 70.5602 310.765 66.6432 309.443C62.7272 308.121 59.8872 306.066 58.0262 301.758C56.1662 297.45 55.3832 289.605 62.2372 285.158C69.0912 280.711 74.5752 282.179 78.0992 283.124C81.6242 284.067 81.8142 289.379 81.8142 289.379Z" fill="#2233A3"/>
<path fill-rule="evenodd" clip-rule="evenodd" d="M108.747 219.232C112.174 215.708 112.81 214.974 113.741 216.002C114.671 217.029 108.747 224.176 108.747 224.176V219.232Z" fill="#FDD4C6"/>
<path fill-rule="evenodd" clip-rule="evenodd" d="M105.858 593.782C100.913 592.856 96.6652 592.309 97.1662 588.304C97.3162 587.112 97.6882 584.414 97.6882 584.414C99.6882 585.891 106.386 586.332 106.717 584.865C106.717 584.865 130.866 592.684 131.514 595.02C131.546 595.137 131.56 595.96 131.502 596.102C130.919 598.503 110.762 594.701 105.858 593.782Z" fill="#465FE9"/>
<path fill-rule="evenodd" clip-rule="evenodd" d="M61.7924 599.191C59.9864 598.555 51.1484 594.423 51.6494 590.419C51.7984 589.226 52.2614 585.523 52.2614 585.523C53.5474 588.305 60.5314 588.19 60.8744 587.998C60.8744 587.998 72.9654 595.329 73.6134 597.665C73.6464 597.782 73.6594 598.604 73.6014 598.747C73.0184 601.147 66.4764 600.84 61.7924 599.191Z" fill="#465FE9"/>
<path fill-rule="evenodd" clip-rule="evenodd" d="M232.851 521.949C231.873 519.196 230.112 516.314 230.112 516.314C230.112 516.314 209.371 479.284 202.326 468.133C198.912 462.727 198.067 455.195 195.821 448.141C193.433 440.642 189.722 433.738 188.759 432.404C187.057 430.045 188.262 442.916 191.197 465.3C194.132 487.683 212.698 495.671 228.546 516.314L230.568 522.051L240.417 572.108H243.026C243.026 572.108 233.83 524.702 232.851 521.949Z" fill="#ADB8FD"/>
<path fill-rule="evenodd" clip-rule="evenodd" d="M291.894 379.653C291.894 379.653 274.283 407.256 266.456 412.356C258.629 417.456 257.064 461.953 260.717 472.429C264.369 482.905 266.848 572.108 266.848 572.108H269.196C269.196 572.108 266.261 479.029 264.499 472.429C262.738 465.83 264.695 464.3 267.239 462.007C269.783 459.713 275.773 428.926 278.942 423.293C282.11 417.66 291.894 391.692 291.894 391.692V379.653Z" fill="#465FE9"/>
<path fill-rule="evenodd" clip-rule="evenodd" d="M180.08 374.122C180.08 374.122 203.701 396.795 212.509 399.907C221.318 403.018 233.328 445.893 232.248 456.935C231.168 467.976 245.309 579.6 245.309 579.6L243.027 580.153C243.027 580.153 228.416 464.655 228.572 457.826C228.727 450.997 226.465 449.973 223.453 448.343C220.44 446.713 207.361 418.207 202.954 413.479C198.547 408.751 182.918 385.822 182.918 385.822L180.08 374.122Z" fill="#ADB8FD"/>
<path fill-rule="evenodd" clip-rule="evenodd" d="M257.726 572.108C257.726 572.108 250.414 418.587 247.805 404.925C245.196 391.265 248.848 384.974 247.805 379.964C246.761 374.953 244.622 327.278 243.056 318.819C241.491 310.361 216.105 265.916 212.583 258.451C209.061 250.986 205.539 255.431 205.344 259.631C205.148 263.832 214.858 288.891 220.411 310.525C224.214 325.344 225.504 367.252 233.916 385.133C236.367 390.341 242.521 398.554 243.892 406.2C245.261 413.846 254.152 572.108 254.152 572.108H257.726Z" fill="#ADB8FD"/>
<path fill-rule="evenodd" clip-rule="evenodd" d="M285.224 596.886H231.534L225.784 539.667H291.894L285.224 596.886Z" fill="#E4ECF5"/>
<path fill-rule="evenodd" clip-rule="evenodd" d="M243.188 382.684C243.188 382.684 249.79 223.826 254.627 212.091C259.465 200.357 274.529 170.587 288.158 161.621C301.788 152.654 325.275 123.612 323.667 130.178C317.864 153.858 310.216 164.849 299.277 178.478C288.338 192.108 276.501 202.509 272.018 205.558C267.535 208.606 258.07 212.054 257.46 215.837C246.912 281.241 246.69 402.655 246.69 402.655L243.188 382.684Z" fill="#ADB8FD"/>
<path fill-rule="evenodd" clip-rule="evenodd" d="M298.792 271.98C295.958 290.065 282.826 323.303 276.681 339.639C270.536 355.975 263.022 359.947 257.983 369.205C252.943 378.462 247.056 423.43 247.056 423.43L245.089 412.74C245.089 412.74 250.568 371.962 252.873 365.836C255.177 359.71 253.521 345.857 256.028 336.847C258.536 327.836 277.229 300.387 282.34 291.768C287.451 283.148 295.939 264.198 298.73 262.097C301.52 259.997 298.792 271.98 298.792 271.98Z" fill="#ADB8FD"/>
<path fill-rule="evenodd" clip-rule="evenodd" d="M225.652 140.593C225.431 153.013 230.323 176.766 232.52 188.405C234.717 200.043 239.275 203.578 241.562 210.355C243.848 217.133 251.167 252.82 251.167 252.82L252.768 248.501C252.768 248.501 245.913 215.364 245.089 211C244.265 206.636 247.274 195.27 246.652 188.954C246.029 182.637 236.744 162.103 234.335 155.744C231.926 149.385 228.469 135.724 226.849 133.994C225.23 132.264 225.652 140.593 225.652 140.593Z" fill="#ADB8FD"/>
<path fill-rule="evenodd" clip-rule="evenodd" d="M347.104 475.511H869.409V111.131H347.104V475.511Z" fill="#EDF5FC"/>
<path fill-rule="evenodd" clip-rule="evenodd" d="M385.671 285.188H849.347V131.189H385.671V285.188Z" fill="white"/>
<path fill-rule="evenodd" clip-rule="evenodd" d="M347.104 285.188H350.356V246.688H347.104V285.188Z" fill="#465FE9"/>
<mask id="mask0" mask-type="alpha" maskUnits="userSpaceOnUse" x="409" y="171" width="297" height="85">
<path fill-rule="evenodd" clip-rule="evenodd" d="M418.879 236.297C432.883 236.532 447.797 203.506 463.984 203.264C480.17 203.021 492.865 228.721 509.089 228.721C525.312 228.721 534.611 171.988 554.193 171.988C573.775 171.988 582.202 216.356 599.298 216.174C616.395 215.993 627.731 209.386 644.402 208.901C661.074 208.416 670.351 226.95 689.508 226.782H705.452V255.997H409.894V236.328L418.879 236.297Z" fill="white"/>
</mask>
<g mask="url(#mask0)">
<path fill-rule="evenodd" clip-rule="evenodd" d="M418.879 236.297C432.883 236.532 447.797 203.506 463.984 203.264C480.17 203.021 492.865 228.721 509.089 228.721C525.312 228.721 534.611 171.988 554.193 171.988C573.775 171.988 582.202 216.356 599.298 216.174C616.395 215.993 627.731 209.386 644.402 208.901C661.074 208.416 670.351 226.95 689.508 226.782H705.452V255.997H409.894V236.328L418.879 236.297Z" fill="url(#paint0_linear)"/>
</g>
<path fill-rule="evenodd" clip-rule="evenodd" d="M418.879 256.997C418.327 256.997 417.879 256.549 417.879 255.997V224.721C417.879 224.169 418.327 223.721 418.879 223.721C419.431 223.721 419.879 224.169 419.879 224.721V255.997C419.879 256.549 419.431 256.997 418.879 256.997Z" fill="#D3DCE6"/>
<path fill-rule="evenodd" clip-rule="evenodd" d="M411.422 271.817H426.336V265.634H411.422V271.817Z" fill="#D3DCE6"/>
<path fill-rule="evenodd" clip-rule="evenodd" d="M463.984 256.997C463.432 256.997 462.984 256.549 462.984 255.997V179.455C462.984 178.902 463.432 178.455 463.984 178.455C464.536 178.455 464.984 178.902 464.984 179.455V255.997C464.984 256.549 464.536 256.997 463.984 256.997Z" fill="#D3DCE6"/>
<path fill-rule="evenodd" clip-rule="evenodd" d="M456.527 271.817H471.441V265.634H456.527V271.817Z" fill="#D3DCE6"/>
<path fill-rule="evenodd" clip-rule="evenodd" d="M509.089 256.997C508.536 256.997 508.089 256.549 508.089 255.997V224.721C508.089 224.169 508.536 223.721 509.089 223.721C509.642 223.721 510.089 224.169 510.089 224.721V255.997C510.089 256.549 509.642 256.997 509.089 256.997Z" fill="#D3DCE6"/>
<path fill-rule="evenodd" clip-rule="evenodd" d="M501.632 271.817H516.545V265.634H501.632V271.817Z" fill="#D3DCE6"/>
<path fill-rule="evenodd" clip-rule="evenodd" d="M554.193 256.997C553.64 256.997 553.193 256.549 553.193 255.997V179.455C553.193 178.902 553.64 178.455 554.193 178.455C554.746 178.455 555.193 178.902 555.193 179.455V255.997C555.193 256.549 554.746 256.997 554.193 256.997Z" fill="#D3DCE6"/>
<path fill-rule="evenodd" clip-rule="evenodd" d="M546.736 271.817H561.65V265.634H546.736V271.817Z" fill="#D3DCE6"/>
<path fill-rule="evenodd" clip-rule="evenodd" d="M599.298 256.997C598.745 256.997 598.298 256.549 598.298 255.997V224.721C598.298 224.169 598.745 223.721 599.298 223.721C599.851 223.721 600.298 224.169 600.298 224.721V255.997C600.298 256.549 599.851 256.997 599.298 256.997Z" fill="#D3DCE6"/>
<path fill-rule="evenodd" clip-rule="evenodd" d="M591.841 271.817H606.755V265.634H591.841V271.817Z" fill="#D3DCE6"/>
<path fill-rule="evenodd" clip-rule="evenodd" d="M644.402 256.997C643.849 256.997 643.402 256.549 643.402 255.997V179.455C643.402 178.902 643.849 178.455 644.402 178.455C644.955 178.455 645.402 178.902 645.402 179.455V255.997C645.402 256.549 644.955 256.997 644.402 256.997Z" fill="#D3DCE6"/>
<path fill-rule="evenodd" clip-rule="evenodd" d="M636.946 271.817H651.859V265.634H636.946V271.817Z" fill="#D3DCE6"/>
<path fill-rule="evenodd" clip-rule="evenodd" d="M689.508 256.997C688.955 256.997 688.508 256.549 688.508 255.997V224.721C688.508 224.169 688.955 223.721 689.508 223.721C690.061 223.721 690.508 224.169 690.508 224.721V255.997C690.508 256.549 690.061 256.997 689.508 256.997Z" fill="#D3DCE6"/>
<path fill-rule="evenodd" clip-rule="evenodd" d="M682.051 271.817H696.965V265.634H682.051V271.817Z" fill="#D3DCE6"/>
<mask id="mask1" mask-type="alpha" maskUnits="userSpaceOnUse" x="408" y="168" width="300" height="69">
<path fill-rule="evenodd" clip-rule="evenodd" d="M527.948 200.011C521.97 212.517 515.787 225.448 509.089 225.448C501.627 225.448 494.54 219.175 487.687 213.11C480.398 206.659 472.863 199.99 464.211 199.99C464.128 199.99 464.043 199.99 463.959 199.991C454.921 200.126 446.7 209.183 438.749 217.941C432.016 225.359 425.056 233.025 418.993 233.025C418.953 233.025 418.913 233.025 418.874 233.024L409.887 233.056C408.984 233.058 408.254 233.794 408.256 234.697C408.26 235.599 408.992 236.328 409.894 236.328H409.899L418.851 236.297C418.912 236.298 418.97 236.299 419.03 236.299C426.505 236.298 433.632 228.448 441.173 220.142C448.655 211.9 456.39 203.378 464.008 203.264C464.077 203.263 464.146 203.262 464.214 203.262C471.622 203.262 478.373 209.238 485.517 215.56C492.827 222.031 500.386 228.721 509.089 228.721C517.85 228.721 524.19 215.461 530.901 201.422C537.498 187.626 544.975 171.988 554.193 171.988C563.377 171.988 570.264 183.397 576.925 194.432C583.673 205.612 590.05 216.175 599.19 216.175C599.23 216.175 599.273 216.175 599.316 216.174C608.281 216.079 615.746 214.242 622.965 212.465C629.932 210.751 636.511 209.131 644.45 208.901C652.017 208.676 658.115 212.756 664.554 217.072C671.677 221.847 679.041 226.784 689.228 226.784C689.321 226.783 689.415 226.783 689.507 226.782H705.452C706.355 226.782 707.089 226.049 707.089 225.145C707.089 224.241 706.355 223.508 705.452 223.508H689.493C689.412 223.509 689.332 223.51 689.252 223.51C680.037 223.51 673.094 218.855 666.376 214.353C659.794 209.941 652.976 205.372 644.355 205.628C636.067 205.869 629.008 207.607 622.183 209.288C615.145 211.019 607.867 212.81 599.281 212.901C599.252 212.902 599.223 212.903 599.194 212.903C591.897 212.903 585.985 203.107 579.727 192.74C572.597 180.929 565.225 168.716 554.193 168.716C542.91 168.716 535.304 184.625 527.948 200.011Z" fill="white"/>
</mask>
<g mask="url(#mask1)">
<path fill-rule="evenodd" clip-rule="evenodd" d="M527.948 200.011C521.97 212.517 515.787 225.448 509.089 225.448C501.627 225.448 494.54 219.175 487.687 213.11C480.398 206.659 472.863 199.99 464.211 199.99C464.128 199.99 464.043 199.99 463.959 199.991C454.921 200.126 446.7 209.183 438.749 217.941C432.016 225.359 425.056 233.025 418.993 233.025C418.953 233.025 418.913 233.025 418.874 233.024L409.887 233.056C408.984 233.058 408.254 233.794 408.256 234.697C408.26 235.599 408.992 236.328 409.894 236.328H409.899L418.851 236.297C418.912 236.298 418.97 236.299 419.03 236.299C426.505 236.298 433.632 228.448 441.173 220.142C448.655 211.9 456.39 203.378 464.008 203.264C464.077 203.263 464.146 203.262 464.214 203.262C471.622 203.262 478.373 209.238 485.517 215.56C492.827 222.031 500.386 228.721 509.089 228.721C517.85 228.721 524.19 215.461 530.901 201.422C537.498 187.626 544.975 171.988 554.193 171.988C563.377 171.988 570.264 183.397 576.925 194.432C583.673 205.612 590.05 216.175 599.19 216.175C599.23 216.175 599.273 216.175 599.316 216.174C608.281 216.079 615.746 214.242 622.965 212.465C629.932 210.751 636.511 209.131 644.45 208.901C652.017 208.676 658.115 212.756 664.554 217.072C671.677 221.847 679.041 226.784 689.228 226.784C689.321 226.783 689.415 226.783 689.507 226.782H705.452C706.355 226.782 707.089 226.049 707.089 225.145C707.089 224.241 706.355 223.508 705.452 223.508H689.493C689.412 223.509 689.332 223.51 689.252 223.51C680.037 223.51 673.094 218.855 666.376 214.353C659.794 209.941 652.976 205.372 644.355 205.628C636.067 205.869 629.008 207.607 622.183 209.288C615.145 211.019 607.867 212.81 599.281 212.901C599.252 212.902 599.223 212.903 599.194 212.903C591.897 212.903 585.985 203.107 579.727 192.74C572.597 180.929 565.225 168.716 554.193 168.716C542.91 168.716 535.304 184.625 527.948 200.011Z" fill="url(#paint1_linear)"/>
</g>
<path fill-rule="evenodd" clip-rule="evenodd" d="M683.023 226.2C684.956 226.59 686.983 226.819 689.142 226.819C689.236 226.818 689.332 226.818 689.425 226.817H705.597C706.514 226.817 707.257 226.074 707.257 225.158C707.257 224.241 706.514 223.497 705.597 223.497H689.411C689.329 223.498 689.248 223.499 689.166 223.499C687.18 223.499 685.303 223.275 683.505 222.896L683.023 226.2Z" fill="white"/>
<path fill-rule="evenodd" clip-rule="evenodd" d="M743.048 242.485H772.553V239.197H743.048V242.485Z" fill="#D3DCE6"/>
<path fill-rule="evenodd" clip-rule="evenodd" d="M743.048 251.577H772.553V248.288H743.048V251.577Z" fill="#D3DCE6"/>
<path fill-rule="evenodd" clip-rule="evenodd" d="M743.048 233.393H772.553V230.105H743.048V233.393Z" fill="#D3DCE6"/>
<path fill-rule="evenodd" clip-rule="evenodd" d="M743.048 260.668H753.496V257.38H743.048V260.668Z" fill="#D3DCE6"/>
<path fill-rule="evenodd" clip-rule="evenodd" d="M786.58 261.668C786.027 261.668 785.58 261.22 785.58 260.668V230.106C785.58 229.553 786.027 229.105 786.58 229.105C787.133 229.105 787.58 229.553 787.58 230.106V260.668C787.58 261.22 787.133 261.668 786.58 261.668Z" fill="#D3DCE6"/>
<path fill-rule="evenodd" clip-rule="evenodd" d="M370.204 265.938C370.204 263.953 368.595 262.343 366.609 262.343C364.623 262.343 363.014 263.953 363.014 265.938C363.014 267.923 364.623 269.533 366.609 269.533C368.595 269.533 370.204 267.923 370.204 265.938Z" fill="#465FE9"/>
<path fill-rule="evenodd" clip-rule="evenodd" d="M370.204 227.438C370.204 225.453 368.595 223.843 366.609 223.843C364.623 223.843 363.014 225.453 363.014 227.438C363.014 229.423 364.623 231.033 366.609 231.033C368.595 231.033 370.204 229.423 370.204 227.438Z" fill="#D3DCE6"/>
<path fill-rule="evenodd" clip-rule="evenodd" d="M370.204 188.938C370.204 186.953 368.595 185.344 366.609 185.344C364.623 185.344 363.014 186.953 363.014 188.938C363.014 190.923 364.623 192.533 366.609 192.533C368.595 192.533 370.204 190.923 370.204 188.938Z" fill="#D3DCE6"/>
<path fill-rule="evenodd" clip-rule="evenodd" d="M370.204 150.439C370.204 148.454 368.595 146.845 366.609 146.845C364.623 146.845 363.014 148.454 363.014 150.439C363.014 152.424 364.623 154.034 366.609 154.034C368.595 154.034 370.204 152.424 370.204 150.439Z" fill="#D3DCE6"/>
<path fill-rule="evenodd" clip-rule="evenodd" d="M593.36 331.139L344.408 294.153L347.104 475.511H573.609L593.36 331.139Z" fill="#E5E7ED"/>
<path fill-rule="evenodd" clip-rule="evenodd" d="M569.992 277.649L111.352 209.51L88.7124 361.837L547.352 429.975L569.992 277.649Z" fill="white"/>
<path fill-rule="evenodd" clip-rule="evenodd" d="M231.363 261.307C231.314 261.307 231.264 261.304 231.215 261.296L189.878 255.155C189.332 255.074 188.955 254.565 189.036 254.018C189.117 253.471 189.631 253.097 190.172 253.176L231.509 259.318C232.055 259.399 232.432 259.908 232.351 260.454C232.277 260.951 231.85 261.307 231.363 261.307Z" fill="#D3DCE6"/>
<path fill-rule="evenodd" clip-rule="evenodd" d="M226.671 292.877C226.622 292.877 226.572 292.874 226.523 292.866L136.066 279.427C135.52 279.346 135.143 278.837 135.224 278.291C135.305 277.744 135.818 277.368 136.36 277.449L226.817 290.888C227.363 290.969 227.74 291.478 227.659 292.024C227.585 292.521 227.158 292.877 226.671 292.877Z" fill="#D3DCE6"/>
<path fill-rule="evenodd" clip-rule="evenodd" d="M221.978 324.447C221.929 324.447 221.879 324.444 221.83 324.436L154.466 314.428C153.919 314.347 153.542 313.838 153.624 313.292C153.705 312.745 154.218 312.369 154.76 312.449L222.124 322.458C222.67 322.539 223.047 323.048 222.966 323.594C222.892 324.091 222.465 324.447 221.978 324.447Z" fill="#D3DCE6"/>
<path fill-rule="evenodd" clip-rule="evenodd" d="M217.286 356.018C217.237 356.018 217.187 356.015 217.138 356.007L175.801 349.866C175.254 349.785 174.877 349.276 174.958 348.729C175.039 348.182 175.553 347.808 176.095 347.887L217.432 354.029C217.978 354.11 218.355 354.619 218.274 355.165C218.2 355.662 217.773 356.018 217.286 356.018Z" fill="#D3DCE6"/>
<mask id="mask2" mask-type="alpha" maskUnits="userSpaceOnUse" x="128" y="243" width="69" height="14">
<path fill-rule="evenodd" clip-rule="evenodd" d="M128.904 245.049L128.894 245.118C128.761 246.016 129.379 246.851 130.276 246.984L194.789 256.568C195.685 256.701 196.521 256.082 196.654 255.186L196.664 255.116C196.797 254.22 196.179 253.385 195.281 253.252L130.768 243.667C130.687 243.655 130.606 243.649 130.526 243.649C129.726 243.649 129.025 244.234 128.904 245.049Z" fill="white"/>
</mask>
<g mask="url(#mask2)">
<path fill-rule="evenodd" clip-rule="evenodd" d="M128.904 245.049L128.894 245.118C128.761 246.016 129.379 246.851 130.276 246.984L194.789 256.568C195.685 256.701 196.521 256.082 196.654 255.186L196.664 255.116C196.797 254.22 196.179 253.385 195.281 253.252L130.768 243.667C130.687 243.655 130.606 243.649 130.526 243.649C129.726 243.649 129.025 244.234 128.904 245.049Z" fill="url(#paint2_linear)"/>
</g>
<mask id="mask3" mask-type="alpha" maskUnits="userSpaceOnUse" x="124" y="275" width="21" height="7">
<path fill-rule="evenodd" clip-rule="evenodd" d="M124.211 276.619L124.201 276.689C124.068 277.586 124.687 278.421 125.584 278.553L142.381 281.049C143.278 281.182 144.112 280.564 144.246 279.667L144.256 279.597C144.389 278.701 143.771 277.867 142.874 277.732L126.076 275.238C125.994 275.225 125.912 275.219 125.831 275.219C125.032 275.219 124.332 275.805 124.211 276.619Z" fill="white"/>
</mask>
<g mask="url(#mask3)">
<path fill-rule="evenodd" clip-rule="evenodd" d="M124.211 276.619L124.201 276.689C124.068 277.586 124.687 278.421 125.584 278.553L142.381 281.049C143.278 281.182 144.112 280.564 144.246 279.667L144.256 279.597C144.389 278.701 143.771 277.867 142.874 277.732L126.076 275.238C125.994 275.225 125.912 275.219 125.831 275.219C125.032 275.219 124.332 275.805 124.211 276.619Z" fill="url(#paint3_linear)"/>
</g>
<mask id="mask4" mask-type="alpha" maskUnits="userSpaceOnUse" x="119" y="306" width="43" height="10">
<path fill-rule="evenodd" clip-rule="evenodd" d="M119.519 308.19L119.509 308.26C119.375 309.156 119.995 309.99 120.891 310.124L159.568 315.87C160.466 316.003 161.3 315.385 161.433 314.489L161.444 314.418C161.577 313.522 160.958 312.687 160.062 312.554L121.384 306.808C121.302 306.796 121.221 306.79 121.141 306.79C120.34 306.79 119.64 307.375 119.519 308.19Z" fill="white"/>
</mask>
<g mask="url(#mask4)">
<path fill-rule="evenodd" clip-rule="evenodd" d="M119.519 308.19L119.509 308.26C119.375 309.156 119.995 309.99 120.891 310.124L159.568 315.87C160.466 316.003 161.3 315.385 161.433 314.489L161.444 314.418C161.577 313.522 160.958 312.687 160.062 312.554L121.384 306.808C121.302 306.796 121.221 306.79 121.141 306.79C120.34 306.79 119.64 307.375 119.519 308.19Z" fill="url(#paint4_linear)"/>
</g>
<mask id="mask5" mask-type="alpha" maskUnits="userSpaceOnUse" x="114" y="338" width="85" height="16">
<path fill-rule="evenodd" clip-rule="evenodd" d="M114.827 339.76L114.817 339.83C114.684 340.726 115.302 341.561 116.199 341.695L196.405 353.611C197.302 353.743 198.137 353.125 198.27 352.228L198.28 352.159C198.413 351.262 197.794 350.426 196.898 350.293L116.692 338.378C116.61 338.366 116.529 338.36 116.448 338.36C115.649 338.36 114.948 338.945 114.827 339.76Z" fill="white"/>
</mask>
<g mask="url(#mask5)">
<path fill-rule="evenodd" clip-rule="evenodd" d="M114.827 339.76L114.817 339.83C114.684 340.726 115.302 341.561 116.199 341.695L196.405 353.611C197.302 353.743 198.137 353.125 198.27 352.228L198.28 352.159C198.413 351.262 197.794 350.426 196.898 350.293L116.692 338.378C116.61 338.366 116.529 338.36 116.448 338.36C115.649 338.36 114.948 338.945 114.827 339.76Z" fill="url(#paint5_linear)"/>
</g>
<path fill-rule="evenodd" clip-rule="evenodd" d="M159.584 235.248L130.991 231L130.083 237.115L158.675 241.363L159.584 235.248Z" fill="#D3DCE6"/>
<path fill-rule="evenodd" clip-rule="evenodd" d="M154.893 266.815L126.301 262.567L125.392 268.682L153.984 272.93L154.893 266.815Z" fill="#D3DCE6"/>
<path fill-rule="evenodd" clip-rule="evenodd" d="M150.201 298.381L121.609 294.133L120.7 300.248L149.292 304.496L150.201 298.381Z" fill="#D3DCE6"/>
<path fill-rule="evenodd" clip-rule="evenodd" d="M145.509 329.948L116.916 325.7L116.008 331.815L144.6 336.063L145.509 329.948Z" fill="#D3DCE6"/>
<path fill-rule="evenodd" clip-rule="evenodd" d="M239.316 362.213C239.267 362.213 239.217 362.21 239.168 362.202C238.621 362.121 238.244 361.612 238.325 361.066L254.95 249.214C255.031 248.667 255.543 248.293 256.086 248.372C256.632 248.453 257.009 248.962 256.928 249.508L240.304 361.36C240.23 361.857 239.803 362.213 239.316 362.213Z" fill="#D3DCE6"/>
<path fill-rule="evenodd" clip-rule="evenodd" d="M387.832 387.242C387.783 387.242 387.733 387.239 387.684 387.231C387.137 387.15 386.76 386.641 386.841 386.095L403.466 274.243C403.547 273.696 404.062 273.322 404.602 273.401C405.148 273.482 405.525 273.991 405.444 274.537L388.82 386.389C388.746 386.886 388.319 387.242 387.832 387.242Z" fill="#D3DCE6"/>
<path fill-rule="evenodd" clip-rule="evenodd" d="M316.274 306.708L322.39 307.617L323.299 301.501L317.183 300.593L316.274 306.708Z" fill="#D3DCE6"/>
<path fill-rule="evenodd" clip-rule="evenodd" d="M332.095 309.058L338.211 309.967L339.12 303.851L333.004 302.943L332.095 309.058Z" fill="#D3DCE6"/>
<mask id="mask6" mask-type="alpha" maskUnits="userSpaceOnUse" x="347" y="305" width="8" height="8">
<path fill-rule="evenodd" clip-rule="evenodd" d="M347.914 311.408L354.031 312.318L354.94 306.201L348.824 305.293L347.914 311.408Z" fill="white"/>
</mask>
<g mask="url(#mask6)">
<path fill-rule="evenodd" clip-rule="evenodd" d="M347.914 311.408L354.031 312.318L354.94 306.201L348.824 305.293L347.914 311.408Z" fill="url(#paint6_linear)"/>
</g>
<mask id="mask7" mask-type="alpha" maskUnits="userSpaceOnUse" x="363" y="307" width="8" height="8">
<path fill-rule="evenodd" clip-rule="evenodd" d="M363.734 313.759L369.852 314.668L370.761 308.552L364.644 307.644L363.734 313.759Z" fill="white"/>
</mask>
<g mask="url(#mask7)">
<path fill-rule="evenodd" clip-rule="evenodd" d="M363.734 313.759L369.852 314.668L370.761 308.552L364.644 307.644L363.734 313.759Z" fill="url(#paint7_linear)"/>
</g>
<path fill-rule="evenodd" clip-rule="evenodd" d="M266.474 315.398L272.591 316.307L273.499 310.191L267.383 309.283L266.474 315.398Z" fill="#D3DCE6"/>
<path fill-rule="evenodd" clip-rule="evenodd" d="M282.294 317.749L288.411 318.658L289.319 312.542L283.203 311.634L282.294 317.749Z" fill="#D3DCE6"/>
<path fill-rule="evenodd" clip-rule="evenodd" d="M298.114 320.1L304.231 321.009L305.139 314.893L299.023 313.984L298.114 320.1Z" fill="#D3DCE6"/>
<path fill-rule="evenodd" clip-rule="evenodd" d="M313.935 322.45L320.052 323.359L320.96 317.243L314.844 316.335L313.935 322.45Z" fill="#D3DCE6"/>
<path fill-rule="evenodd" clip-rule="evenodd" d="M329.755 324.8L335.872 325.709L336.78 319.593L330.664 318.685L329.755 324.8Z" fill="#D3DCE6"/>
<mask id="mask8" mask-type="alpha" maskUnits="userSpaceOnUse" x="345" y="321" width="8" height="8">
<path fill-rule="evenodd" clip-rule="evenodd" d="M345.575 327.151L351.691 328.059L352.6 321.944L346.484 321.035L345.575 327.151Z" fill="white"/>
</mask>
<g mask="url(#mask8)">
<path fill-rule="evenodd" clip-rule="evenodd" d="M345.575 327.151L351.691 328.059L352.6 321.944L346.484 321.035L345.575 327.151Z" fill="url(#paint8_linear)"/>
</g>
<mask id="mask9" mask-type="alpha" maskUnits="userSpaceOnUse" x="361" y="323" width="8" height="8">
<path fill-rule="evenodd" clip-rule="evenodd" d="M361.395 329.501L367.512 330.409L368.421 324.295L362.304 323.386L361.395 329.501Z" fill="white"/>
</mask>
<g mask="url(#mask9)">
<path fill-rule="evenodd" clip-rule="evenodd" d="M361.395 329.501L367.512 330.409L368.421 324.295L362.304 323.386L361.395 329.501Z" fill="url(#paint9_linear)"/>
</g>
<path fill-rule="evenodd" clip-rule="evenodd" d="M264.134 331.141L270.251 332.05L271.159 325.934L265.043 325.026L264.134 331.141Z" fill="#D3DCE6"/>
<mask id="mask10" mask-type="alpha" maskUnits="userSpaceOnUse" x="279" y="327" width="8" height="8">
<path fill-rule="evenodd" clip-rule="evenodd" d="M279.954 333.491L286.071 334.4L286.98 328.285L280.863 327.376L279.954 333.491Z" fill="white"/>
</mask>
<g mask="url(#mask10)">
<path fill-rule="evenodd" clip-rule="evenodd" d="M279.954 333.491L286.071 334.4L286.98 328.285L280.863 327.376L279.954 333.491Z" fill="url(#paint10_linear)"/>
</g>
<path fill-rule="evenodd" clip-rule="evenodd" d="M295.774 335.841L301.891 336.75L302.799 330.634L296.683 329.726L295.774 335.841Z" fill="#D3DCE6"/>
<path fill-rule="evenodd" clip-rule="evenodd" d="M311.595 338.192L317.712 339.101L318.62 332.985L312.504 332.077L311.595 338.192Z" fill="#D3DCE6"/>
<path fill-rule="evenodd" clip-rule="evenodd" d="M327.415 340.542L333.532 341.451L334.44 335.335L328.324 334.427L327.415 340.542Z" fill="#D3DCE6"/>
<mask id="mask11" mask-type="alpha" maskUnits="userSpaceOnUse" x="343" y="336" width="8" height="8">
<path fill-rule="evenodd" clip-rule="evenodd" d="M343.235 342.893L349.352 343.802L350.26 337.686L344.144 336.777L343.235 342.893Z" fill="white"/>
</mask>
<g mask="url(#mask11)">
<path fill-rule="evenodd" clip-rule="evenodd" d="M343.235 342.893L349.352 343.802L350.26 337.686L344.144 336.777L343.235 342.893Z" fill="url(#paint11_linear)"/>
</g>
<mask id="mask12" mask-type="alpha" maskUnits="userSpaceOnUse" x="359" y="339" width="8" height="8">
<path fill-rule="evenodd" clip-rule="evenodd" d="M359.055 345.243L365.173 346.152L366.081 340.037L359.964 339.128L359.055 345.243Z" fill="white"/>
</mask>
<g mask="url(#mask12)">
<path fill-rule="evenodd" clip-rule="evenodd" d="M359.055 345.243L365.173 346.152L366.081 340.037L359.964 339.128L359.055 345.243Z" fill="url(#paint12_linear)"/>
</g>
<path fill-rule="evenodd" clip-rule="evenodd" d="M261.794 346.883L267.91 347.792L268.819 341.676L262.703 340.768L261.794 346.883Z" fill="#D3DCE6"/>
<path fill-rule="evenodd" clip-rule="evenodd" d="M277.614 349.233L283.731 350.142L284.64 344.026L278.523 343.118L277.614 349.233Z" fill="#D3DCE6"/>
<path fill-rule="evenodd" clip-rule="evenodd" d="M293.435 351.584L299.552 352.493L300.461 346.377L294.344 345.469L293.435 351.584Z" fill="#D3DCE6"/>
<path fill-rule="evenodd" clip-rule="evenodd" d="M309.255 353.934L315.372 354.843L316.28 348.727L310.164 347.818L309.255 353.934Z" fill="#D3DCE6"/>
<path fill-rule="evenodd" clip-rule="evenodd" d="M325.075 356.284L331.192 357.193L332.1 351.077L325.984 350.169L325.075 356.284Z" fill="#D3DCE6"/>
<mask id="mask13" mask-type="alpha" maskUnits="userSpaceOnUse" x="340" y="352" width="8" height="8">
<path fill-rule="evenodd" clip-rule="evenodd" d="M340.895 358.634L347.012 359.543L347.92 353.428L341.805 352.52L340.895 358.634Z" fill="white"/>
</mask>
<g mask="url(#mask13)">
<path fill-rule="evenodd" clip-rule="evenodd" d="M340.895 358.634L347.012 359.543L347.92 353.428L341.805 352.52L340.895 358.634Z" fill="url(#paint13_linear)"/>
</g>
<mask id="mask14" mask-type="alpha" maskUnits="userSpaceOnUse" x="356" y="354" width="8" height="8">
<path fill-rule="evenodd" clip-rule="evenodd" d="M356.716 360.985L362.833 361.893L363.742 355.779L357.625 354.87L356.716 360.985Z" fill="white"/>
</mask>
<g mask="url(#mask14)">
<path fill-rule="evenodd" clip-rule="evenodd" d="M356.716 360.985L362.833 361.893L363.742 355.779L357.625 354.87L356.716 360.985Z" fill="url(#paint14_linear)"/>
</g>
<path fill-rule="evenodd" clip-rule="evenodd" d="M259.455 362.625L265.572 363.534L266.48 357.418L260.364 356.51L259.455 362.625Z" fill="#D3DCE6"/>
<path fill-rule="evenodd" clip-rule="evenodd" d="M275.275 364.975L281.392 365.884L282.3 359.768L276.184 358.86L275.275 364.975Z" fill="#D3DCE6"/>
<path fill-rule="evenodd" clip-rule="evenodd" d="M291.095 367.326L297.211 368.235L298.12 362.119L292.004 361.211L291.095 367.326Z" fill="#D3DCE6"/>
<path fill-rule="evenodd" clip-rule="evenodd" d="M306.916 369.676L313.032 370.585L313.941 364.469L307.825 363.561L306.916 369.676Z" fill="#D3DCE6"/>
<path fill-rule="evenodd" clip-rule="evenodd" d="M322.735 372.026L328.852 372.935L329.761 366.819L323.644 365.911L322.735 372.026Z" fill="#D3DCE6"/>
<path fill-rule="evenodd" clip-rule="evenodd" d="M305.093 256.255L275.908 251.919L275.425 255.172L304.61 259.507L305.093 256.255Z" fill="#D3DCE6"/>
<path fill-rule="evenodd" clip-rule="evenodd" d="M303.756 265.248L274.571 260.912L274.088 264.165L303.273 268.5L303.756 265.248Z" fill="#D3DCE6"/>
<path fill-rule="evenodd" clip-rule="evenodd" d="M283.57 271.44L273.236 269.904L272.752 273.157L283.087 274.692L283.57 271.44Z" fill="#D3DCE6"/>
<path fill-rule="evenodd" clip-rule="evenodd" d="M213.66 246.863L212.152 246.639L211.923 248.181L210.857 248.023L211.086 246.48L209.57 246.256L209.72 245.248L211.236 245.472L211.464 243.933L212.531 244.092L212.302 245.632L213.81 245.855L213.66 246.863Z" fill="#465FE9"/>
<path fill-rule="evenodd" clip-rule="evenodd" d="M217.877 247.966C217.96 247.407 217.537 247.007 216.968 246.923C216.487 246.852 216.057 247.056 215.827 247.445C215.831 248.172 216.085 248.617 216.737 248.714C217.355 248.806 217.808 248.432 217.877 247.966ZM219.174 248.098C218.997 249.292 217.918 249.972 216.647 249.782C214.946 249.53 214.356 248.195 214.608 246.503C214.877 244.691 216.128 243.552 217.737 243.791C218.465 243.9 219.013 244.233 219.431 244.683L218.696 245.544C218.385 245.195 218.064 244.965 217.582 244.893C216.828 244.781 216.218 245.331 215.962 246.297C216.378 246.004 216.933 245.879 217.483 245.96C218.559 246.12 219.345 246.946 219.174 248.098Z" fill="#465FE9"/>
<path fill-rule="evenodd" clip-rule="evenodd" d="M219.697 249.327L220.564 248.556C220.934 249.035 221.427 249.385 221.987 249.468C222.638 249.564 223.103 249.235 223.177 248.736C223.253 248.228 222.887 247.827 222.254 247.732C221.813 247.668 221.419 247.757 221.07 247.947L220.282 247.484L220.834 244.355L224.686 244.928L224.518 246.055L221.818 245.653L221.593 246.934C221.911 246.773 222.307 246.677 222.78 246.747C223.814 246.9 224.604 247.693 224.428 248.879C224.244 250.115 223.204 250.765 221.816 250.559C220.842 250.415 220.159 249.95 219.697 249.327Z" fill="#465FE9"/>
<path fill-rule="evenodd" clip-rule="evenodd" d="M233.02 250.684C233.088 250.226 232.862 249.881 232.515 249.83C232.142 249.774 231.844 250.034 231.775 250.499C231.708 250.948 231.925 251.291 232.29 251.345C232.654 251.4 232.952 251.14 233.02 250.684ZM230.946 250.376C231.069 249.546 231.76 248.973 232.624 249.101C233.496 249.231 233.972 249.985 233.85 250.807C233.726 251.645 233.027 252.207 232.18 252.081C231.308 251.952 230.822 251.205 230.946 250.376ZM229.916 247.166C229.983 246.719 229.766 246.375 229.401 246.321C229.046 246.268 228.748 246.526 228.68 246.983C228.612 247.442 228.838 247.787 229.185 247.838C229.541 247.891 229.847 247.633 229.916 247.166ZM232.863 246.143L233.761 246.276L228.85 251.492L227.952 251.359L232.863 246.143ZM227.841 246.868C227.965 246.03 228.647 245.456 229.52 245.586C230.4 245.717 230.869 246.469 230.747 247.29C230.622 248.129 229.931 248.692 229.068 248.564C228.205 248.436 227.718 247.698 227.841 246.868Z" fill="#465FE9"/>
<path fill-rule="evenodd" clip-rule="evenodd" d="M208.925 278.72L207.417 278.496L207.188 280.037L206.122 279.879L206.351 278.338L204.835 278.113L204.985 277.105L206.501 277.33L206.73 275.789L207.796 275.948L207.567 277.489L209.075 277.712L208.925 278.72Z" fill="#465FE9"/>
<path fill-rule="evenodd" clip-rule="evenodd" d="M211.352 276.969L210.27 277.44L209.902 276.486L211.818 275.575L212.818 275.724L211.954 281.541L210.7 281.356L211.352 276.969Z" fill="#465FE9"/>
<path fill-rule="evenodd" clip-rule="evenodd" d="M216.917 278.445C216.912 277.717 216.659 277.272 216.006 277.175C215.388 277.084 214.936 277.458 214.866 277.924C214.783 278.482 215.208 278.882 215.775 278.966C216.258 279.039 216.687 278.834 216.917 278.445ZM218.135 279.386C217.866 281.199 216.616 282.337 215.006 282.097C214.278 281.989 213.731 281.658 213.313 281.206L214.047 280.345C214.358 280.695 214.68 280.925 215.161 280.997C215.916 281.109 216.525 280.558 216.781 279.592C216.365 279.885 215.811 280.011 215.26 279.929C214.185 279.769 213.398 278.943 213.569 277.791C213.747 276.597 214.826 275.918 216.097 276.107C217.799 276.36 218.387 277.693 218.135 279.386Z" fill="#465FE9"/>
<path fill-rule="evenodd" clip-rule="evenodd" d="M226.565 282.284C226.633 281.826 226.407 281.481 226.06 281.43C225.687 281.375 225.389 281.634 225.32 282.098C225.253 282.547 225.471 282.891 225.835 282.945C226.198 283 226.497 282.741 226.565 282.284ZM224.49 281.975C224.613 281.146 225.304 280.573 226.169 280.701C227.041 280.831 227.516 281.586 227.394 282.407C227.27 283.245 226.571 283.807 225.726 283.681C224.853 283.553 224.366 282.805 224.49 281.975ZM223.461 278.767C223.528 278.319 223.31 277.974 222.946 277.92C222.591 277.867 222.292 278.127 222.224 278.584C222.156 279.042 222.382 279.386 222.729 279.437C223.085 279.49 223.392 279.234 223.461 278.767ZM226.408 277.743L227.306 277.876L222.394 283.093L221.496 282.959L226.408 277.743ZM221.385 278.468C221.51 277.629 222.191 277.056 223.064 277.186C223.945 277.317 224.413 278.069 224.291 278.89C224.166 279.728 223.477 280.293 222.613 280.164C221.749 280.036 221.262 279.297 221.385 278.468Z" fill="#465FE9"/>
<path fill-rule="evenodd" clip-rule="evenodd" d="M204.191 310.574L202.683 310.35L202.454 311.892L201.387 311.734L201.617 310.191L200.101 309.967L200.251 308.96L201.766 309.185L201.996 307.644L203.062 307.803L202.833 309.344L204.34 309.567L204.191 310.574Z" fill="#465FE9"/>
<path fill-rule="evenodd" clip-rule="evenodd" d="M204.707 312.131L205.568 311.411C205.909 311.911 206.422 312.239 207.007 312.326C207.65 312.422 208.066 312.181 208.128 311.767C208.195 311.318 207.881 311.037 207.093 310.928L206.425 310.828L206.583 309.762L207.25 309.87C207.886 309.965 208.302 309.783 208.364 309.369C208.426 308.945 208.068 308.615 207.493 308.529C206.942 308.448 206.47 308.654 206.02 309.004L205.414 308.134C205.983 307.621 206.744 307.277 207.777 307.43C209.09 307.625 209.812 308.415 209.674 309.339C209.575 310.007 209.045 310.422 208.384 310.515C208.997 310.752 209.515 311.287 209.4 312.059C209.25 313.066 208.253 313.662 206.898 313.461C205.848 313.305 205.114 312.772 204.707 312.131Z" fill="#465FE9"/>
<path fill-rule="evenodd" clip-rule="evenodd" d="M213.703 310.093C213.762 309.696 213.416 309.341 212.857 309.258C212.299 309.175 211.873 309.415 211.814 309.813C211.748 310.261 212.193 310.587 212.644 310.689C213.106 310.723 213.639 310.525 213.703 310.093ZM213.46 312.593C213.528 312.136 212.996 311.763 212.498 311.671C211.997 311.614 211.386 311.818 211.318 312.275C211.252 312.715 211.656 313.086 212.274 313.178C212.892 313.27 213.395 313.033 213.46 312.593ZM210.029 312.222C210.131 311.535 210.679 311.098 211.387 310.944C210.847 310.613 210.495 310.128 210.593 309.467C210.745 308.443 211.878 308.039 213.013 308.208C214.173 308.381 215.12 309.118 214.971 310.117C214.874 310.77 214.396 311.131 213.774 311.298C214.42 311.671 214.801 312.246 214.702 312.916C214.545 313.975 213.396 314.418 212.118 314.228C210.832 314.036 209.873 313.272 210.029 312.222Z" fill="#465FE9"/>
<path fill-rule="evenodd" clip-rule="evenodd" d="M223.288 314.356C223.356 313.898 223.13 313.554 222.783 313.502C222.41 313.448 222.112 313.706 222.043 314.171C221.976 314.62 222.193 314.963 222.558 315.017C222.922 315.072 223.22 314.813 223.288 314.356ZM221.214 314.048C221.337 313.218 222.028 312.646 222.891 312.774C223.763 312.904 224.24 313.657 224.118 314.479C223.994 315.317 223.295 315.879 222.448 315.753C221.576 315.625 221.09 314.878 221.214 314.048ZM220.184 310.84C220.251 310.392 220.034 310.047 219.669 309.993C219.314 309.94 219.016 310.2 218.948 310.657C218.88 311.114 219.106 311.459 219.453 311.51C219.809 311.563 220.115 311.306 220.184 310.84ZM223.131 309.816L224.029 309.949L219.118 315.164L218.22 315.031L223.131 309.816ZM218.108 310.54C218.232 309.702 218.915 309.128 219.788 309.258C220.668 309.389 221.136 310.142 221.015 310.963C220.89 311.801 220.199 312.366 219.336 312.237C218.473 312.109 217.985 311.37 218.108 310.54Z" fill="#465FE9"/>
<path fill-rule="evenodd" clip-rule="evenodd" d="M199.456 342.431L197.948 342.207L197.719 343.749L196.653 343.59L196.882 342.049L195.366 341.824L195.516 340.816L197.032 341.041L197.261 339.5L198.327 339.66L198.098 341.2L199.606 341.423L199.456 342.431Z" fill="#465FE9"/>
<path fill-rule="evenodd" clip-rule="evenodd" d="M203.834 341.186C203.893 340.788 203.547 340.434 202.988 340.351C202.429 340.268 202.004 340.507 201.945 340.906C201.879 341.354 202.324 341.679 202.775 341.782C203.238 341.815 203.77 341.618 203.834 341.186ZM203.591 343.685C203.659 343.228 203.127 342.854 202.629 342.764C202.128 342.706 201.517 342.91 201.449 343.367C201.383 343.808 201.788 344.179 202.406 344.271C203.024 344.363 203.526 344.125 203.591 343.685ZM200.16 343.313C200.262 342.627 200.81 342.19 201.518 342.036C200.978 341.705 200.626 341.22 200.724 340.56C200.876 339.535 202.009 339.131 203.144 339.3C204.304 339.472 205.251 340.21 205.102 341.21C205.005 341.861 204.527 342.223 203.906 342.39C204.551 342.764 204.932 343.339 204.833 344.007C204.676 345.067 203.528 345.51 202.25 345.321C200.963 345.129 200.004 344.364 200.16 343.313Z" fill="#465FE9"/>
<path fill-rule="evenodd" clip-rule="evenodd" d="M209.66 343.342C209.823 342.249 209.396 341.39 208.609 341.273C207.831 341.157 207.164 341.855 207.002 342.947C206.84 344.038 207.273 344.909 208.052 345.025C208.839 345.142 209.498 344.433 209.66 343.342ZM205.722 342.757C205.985 340.994 207.245 339.91 208.778 340.138C210.311 340.365 211.209 341.771 210.947 343.533C210.684 345.303 209.416 346.386 207.883 346.158C206.351 345.931 205.459 344.527 205.722 342.757Z" fill="#465FE9"/>
<path fill-rule="evenodd" clip-rule="evenodd" d="M219.401 346.338C219.469 345.88 219.243 345.535 218.896 345.484C218.523 345.428 218.225 345.688 218.156 346.153C218.089 346.602 218.306 346.945 218.671 346.999C219.034 347.053 219.333 346.794 219.401 346.338ZM217.326 346.029C217.449 345.199 218.14 344.627 219.005 344.755C219.877 344.885 220.352 345.639 220.23 346.461C220.106 347.298 219.407 347.861 218.561 347.735C217.688 347.606 217.202 346.859 217.326 346.029ZM216.297 342.82C216.364 342.373 216.147 342.029 215.782 341.975C215.427 341.922 215.128 342.18 215.06 342.637C214.992 343.095 215.218 343.441 215.566 343.491C215.922 343.545 216.228 343.287 216.297 342.82ZM219.244 341.797L220.142 341.93L215.23 347.146L214.332 347.013L219.244 341.797ZM214.221 342.522C214.345 341.684 215.027 341.11 215.901 341.239C216.781 341.37 217.249 342.123 217.127 342.944C217.002 343.783 216.312 344.346 215.449 344.218C214.585 344.09 214.098 343.352 214.221 342.522Z" fill="#465FE9"/>
<path fill-rule="evenodd" clip-rule="evenodd" d="M463.056 280.334L432.805 275.839L431.896 281.955L462.147 286.449L463.056 280.334Z" fill="#D3DCE6"/>
<path fill-rule="evenodd" clip-rule="evenodd" d="M419.756 386.44L416.439 385.947L428.967 301.658L432.284 302.151L419.756 386.44Z" fill="#D3DCE6"/>
<path fill-rule="evenodd" clip-rule="evenodd" d="M447.404 390.548L444.087 390.055L456.614 305.767L459.931 306.259L447.404 390.548Z" fill="#D3DCE6"/>
<path fill-rule="evenodd" clip-rule="evenodd" d="M475.052 394.655L471.735 394.162L484.262 309.874L487.58 310.366L475.052 394.655Z" fill="#D3DCE6"/>
<path fill-rule="evenodd" clip-rule="evenodd" d="M502.699 398.763L499.382 398.27L511.91 313.981L515.226 314.474L502.699 398.763Z" fill="#D3DCE6"/>
<path fill-rule="evenodd" clip-rule="evenodd" d="M530.347 402.871L527.03 402.378L539.558 318.089L542.874 318.582L530.347 402.871Z" fill="#D3DCE6"/>
<mask id="mask15" mask-type="alpha" maskUnits="userSpaceOnUse" x="424" y="310" width="8" height="20">
<path fill-rule="evenodd" clip-rule="evenodd" d="M426.562 312.139L424.376 326.844C424.177 328.189 425.105 329.441 426.45 329.641L426.555 329.657C427.9 329.857 429.153 328.928 429.352 327.583L431.538 312.878C431.737 311.533 430.809 310.28 429.464 310.08L429.36 310.065C429.237 310.047 429.115 310.038 428.995 310.038C427.795 310.038 426.744 310.916 426.562 312.139Z" fill="white"/>
</mask>
<g mask="url(#mask15)">
<path fill-rule="evenodd" clip-rule="evenodd" d="M426.562 312.139L424.376 326.844C424.177 328.189 425.105 329.441 426.45 329.641L426.555 329.657C427.9 329.857 429.153 328.928 429.352 327.583L431.538 312.878C431.737 311.533 430.809 310.28 429.464 310.08L429.36 310.065C429.237 310.047 429.115 310.038 428.995 310.038C427.795 310.038 426.744 310.916 426.562 312.139Z" fill="url(#paint15_linear)"/>
</g>
<mask id="mask16" mask-type="alpha" maskUnits="userSpaceOnUse" x="446" y="338" width="10" height="33">
<path fill-rule="evenodd" clip-rule="evenodd" d="M450.642 340.252L446.521 367.975C446.321 369.319 447.25 370.572 448.594 370.772L448.7 370.788C450.045 370.987 451.297 370.059 451.497 368.714L455.617 340.991C455.817 339.646 454.889 338.393 453.544 338.194L453.439 338.177C453.316 338.159 453.195 338.15 453.074 338.15C451.874 338.15 450.824 339.029 450.642 340.252Z" fill="white"/>
</mask>
<g mask="url(#mask16)">
<path fill-rule="evenodd" clip-rule="evenodd" d="M450.642 340.252L446.521 367.975C446.321 369.319 447.25 370.572 448.594 370.772L448.7 370.788C450.045 370.987 451.297 370.059 451.497 368.714L455.617 340.991C455.817 339.646 454.889 338.393 453.544 338.194L453.439 338.177C453.316 338.159 453.195 338.15 453.074 338.15C451.874 338.15 450.824 339.029 450.642 340.252Z" fill="url(#paint16_linear)"/>
</g>
<mask id="mask17" mask-type="alpha" maskUnits="userSpaceOnUse" x="504" y="332" width="9" height="26">
<path fill-rule="evenodd" clip-rule="evenodd" d="M507.932 335.044L504.944 355.142C504.745 356.486 505.672 357.738 507.019 357.938L507.123 357.954C508.468 358.154 509.721 357.225 509.92 355.88L512.908 335.783C513.107 334.439 512.179 333.187 510.834 332.986L510.729 332.971C510.606 332.953 510.484 332.944 510.364 332.944C509.165 332.944 508.114 333.822 507.932 335.044Z" fill="white"/>
</mask>
<g mask="url(#mask17)">
<path fill-rule="evenodd" clip-rule="evenodd" d="M507.932 335.044L504.944 355.142C504.745 356.486 505.672 357.738 507.019 357.938L507.123 357.954C508.468 358.154 509.721 357.225 509.92 355.88L512.908 335.783C513.107 334.439 512.179 333.187 510.834 332.986L510.729 332.971C510.606 332.953 510.484 332.944 510.364 332.944C509.165 332.944 508.114 333.822 507.932 335.044Z" fill="url(#paint17_linear)"/>
</g>
<mask id="mask18" mask-type="alpha" maskUnits="userSpaceOnUse" x="532" y="349" width="7" height="14">
<path fill-rule="evenodd" clip-rule="evenodd" d="M533.767 351.348L532.591 359.248C532.393 360.594 533.32 361.846 534.666 362.046L534.77 362.062C536.115 362.261 537.368 361.333 537.568 359.988L538.742 352.088C538.941 350.742 538.014 349.49 536.669 349.291L536.563 349.275C536.44 349.257 536.319 349.248 536.198 349.248C534.999 349.248 533.948 350.126 533.767 351.348Z" fill="white"/>
</mask>
<g mask="url(#mask18)">
<path fill-rule="evenodd" clip-rule="evenodd" d="M533.767 351.348L532.591 359.248C532.393 360.594 533.32 361.846 534.666 362.046L534.77 362.062C536.115 362.261 537.368 361.333 537.568 359.988L538.742 352.088C538.941 350.742 538.014 349.49 536.669 349.291L536.563 349.275C536.44 349.257 536.319 349.248 536.198 349.248C534.999 349.248 533.948 350.126 533.767 351.348Z" fill="url(#paint18_linear)"/>
</g>
<mask id="mask19" mask-type="alpha" maskUnits="userSpaceOnUse" x="473" y="319" width="14" height="62">
<path fill-rule="evenodd" clip-rule="evenodd" d="M481.683 321.527L473.329 377.727C473.13 379.072 474.058 380.323 475.404 380.524L475.508 380.539C476.854 380.739 478.105 379.811 478.305 378.466L486.658 322.267C486.858 320.923 485.93 319.67 484.585 319.47L484.479 319.455C484.356 319.436 484.234 319.427 484.113 319.427C482.914 319.427 481.864 320.306 481.683 321.527Z" fill="white"/>
</mask>
<g mask="url(#mask19)">
<path fill-rule="evenodd" clip-rule="evenodd" d="M481.683 321.527L473.329 377.727C473.13 379.072 474.058 380.323 475.404 380.524L475.508 380.539C476.854 380.739 478.105 379.811 478.305 378.466L486.658 322.267C486.858 320.923 485.93 319.67 484.585 319.47L484.479 319.455C484.356 319.436 484.234 319.427 484.113 319.427C482.914 319.427 481.864 320.306 481.683 321.527Z" fill="url(#paint19_linear)"/>
</g>
<path fill-rule="evenodd" clip-rule="evenodd" d="M489.477 59.1489C489.477 59.1489 524.671 97.0449 555.895 113.433C555.895 113.433 559.623 114.51 562.111 118.507C563.257 120.349 567.533 122.778 566.299 119.33C565.067 115.88 567.325 116.791 569.7 118.162C571.864 119.41 574.55 120.96 574.55 120.96C574.55 120.96 576.425 118.165 568.983 113.922C561.541 109.68 560.583 110.246 558.212 108.189C556.399 106.615 529.963 81.8569 529.963 81.8569L500.004 48.8609C500.004 48.8609 489.935 52.6709 489.477 59.1489Z" fill="#FDD4C6"/>
<path fill-rule="evenodd" clip-rule="evenodd" d="M504.137 53.4136C504.137 53.4136 497.446 47.9116 498.615 40.5006C499.783 33.0906 500.219 24.5226 500.219 24.5226C500.219 24.5226 489.477 50.6826 487.548 57.1196L491.9 61.5486C490.748 59.4926 500.976 49.7926 504.137 53.4136Z" fill="#ADB8FD"/>
<path fill-rule="evenodd" clip-rule="evenodd" d="M493.83 189.315L492.843 194.672C492.843 194.672 491.967 197.89 491.202 198.906C490.437 199.923 490.665 200.781 490.665 200.781L498.009 207.954L500.261 204.573C500.261 204.573 498.075 201.104 498.261 199.942C498.447 198.782 499.375 196.091 499.375 196.091L501.404 189.887L493.83 189.315Z" fill="#ADB8FD"/>
<path fill-rule="evenodd" clip-rule="evenodd" d="M495.736 212.21C491.046 210.022 486.683 205.981 488.846 202.572C489.628 201.342 491.389 198.688 491.389 198.688C492.587 202.579 499.675 205.055 500.26 204.573C500.26 204.573 517.553 215.957 517.095 218.25C517.072 218.364 516.733 219.083 516.624 219.184C515.118 221.027 499.948 214.174 495.736 212.21Z" fill="#2233A3"/>
<path fill-rule="evenodd" clip-rule="evenodd" d="M480.621 228.89C480.621 228.89 481.388 236.613 480.935 237.852C480.484 239.091 480.88 240.144 480.88 240.144L489.557 246.418C489.557 246.418 488.9 240.097 488.295 232.848C488.155 231.167 488.338 226.092 488.338 226.092L480.621 228.89Z" fill="#ADB8FD"/>
<path fill-rule="evenodd" clip-rule="evenodd" d="M486.864 250.291C482.118 248.622 478.494 246.353 479.6 242.471C479.929 241.315 480.935 237.852 480.935 237.852C481.782 240.797 488.521 243.008 489.072 241.608C489.072 241.608 509.197 252.281 509.481 254.688C509.495 254.809 509.383 255.624 509.304 255.756C508.362 258.039 491.572 251.946 486.864 250.291Z" fill="#2233A3"/>
<path fill-rule="evenodd" clip-rule="evenodd" d="M459.146 77.0127C491.381 84.4947 537.361 102.497 537.373 121.363C537.381 133.893 500.181 197.526 500.181 197.526C500.181 197.526 493.597 196.918 492.036 194.456C492.109 188.67 522.138 130.009 513.201 125.083C495.812 115.497 454.389 111.569 454.389 111.569L459.146 77.0127Z" fill="#465FE9"/>
<path fill-rule="evenodd" clip-rule="evenodd" d="M427.545 99.6948C427.659 120.166 468.726 154.012 470.154 162.04C472.483 175.134 480.621 228.89 480.621 228.89C481.755 231.183 488.25 231.802 488.254 229.638C488.254 229.638 491.922 157.542 490.362 151.919C487.715 142.379 477.93 112.492 469.174 99.4338C466.238 95.0558 458.029 81.9518 458.029 81.9518C458.029 81.9518 427.357 66.1848 427.545 99.6948Z" fill="#465FE9"/>
<path fill-rule="evenodd" clip-rule="evenodd" d="M564.267 127.081L563.506 132.589L567.895 129.174L572.539 131.854L577.759 122.812L564.842 115.359L559.622 124.401L564.267 127.081Z" fill="#465FE9"/>
<path fill-rule="evenodd" clip-rule="evenodd" d="M434.795 111.569C434.795 111.569 415.517 113.139 420.413 73.9808C424.484 41.4178 438.406 28.6378 467.672 12.3518C495.088 -2.9042 501.791 18.1068 499.929 30.0788C499.739 31.3038 491.298 45.4918 485.671 62.6928C482.856 71.2998 479.872 81.1638 480.725 89.5288C481.719 99.2788 440.06 110.203 440.06 110.203L437.201 90.6988L434.795 111.569Z" fill="#2233A3"/>
<path fill-rule="evenodd" clip-rule="evenodd" d="M524.356 20.0562C516.22 35.8282 513.505 35.9262 510.029 35.0932C506.552 34.2612 506.574 31.9672 502.771 30.4812C498.968 28.9942 497.771 32.4762 493.752 33.6482C490.969 34.4592 490.503 26.0522 493.326 22.5102C496.148 18.9682 497.066 15.0822 503.152 17.1302C509.238 19.1772 510.505 15.4042 518.035 15.3452C525.563 15.2862 524.356 20.0562 524.356 20.0562Z" fill="#FDD4C6"/>
<path fill-rule="evenodd" clip-rule="evenodd" d="M525.584 11.3721C532.225 19.4051 524.676 20.9951 521.33 20.3991C516.753 19.5851 510.572 21.2121 510.572 21.2121C506.227 14.9491 503.09 22.1791 504.674 23.5451C507.051 25.5941 496.088 21.2241 492.151 30.3851C488.215 39.5461 480.327 36.2601 477.455 27.7751C474.85 20.0801 471.501 11.2361 463.903 14.9501C456.304 18.6641 442.093 28.8811 436.438 35.6061C427.168 46.6281 422.554 62.0711 422.554 62.0711C421.569 56.1911 414.441 64.2281 412.084 56.3011C408.44 44.0511 418.825 28.8371 432.419 26.8531C443.974 25.1671 446.571 19.4561 453.181 6.8251C459.792 -5.8069 482.746 8.7691 490.748 5.7151C514.962 -3.5259 516.494 0.375102 525.584 11.3721Z" fill="#F94110"/>
<path fill-rule="evenodd" clip-rule="evenodd" d="M460.616 57.1191C468.064 81.2251 469.73 92.1891 492.151 98.8471C514.573 105.503 525.385 102.502 529.973 107.807C534.562 113.113 533.08 108.049 532.688 107.167C532.297 106.286 529.033 100.152 526.161 98.2591C526.161 98.2591 523.823 96.1071 518.686 96.3011C515.648 96.4161 486.276 92.9731 482.36 80.3441C479.621 71.5151 476.093 52.9731 476.093 52.9731L465.844 48.8611L460.616 57.1191Z" fill="#FDD4C6"/>
<path fill-rule="evenodd" clip-rule="evenodd" d="M471.654 18.2461C476.093 27.4111 476.093 52.9731 476.093 52.9731C476.093 52.9731 463.217 50.8291 460.616 57.1191C460.616 57.1191 454.642 43.0881 455.726 35.2561C456.811 27.4251 469.122 13.0181 471.654 18.2461Z" fill="#ADB8FD"/>
<path fill-rule="evenodd" clip-rule="evenodd" d="M624.658 364.108C634.309 366.78 634.065 382.717 634.065 382.717C634.065 382.717 636.929 380.99 638.668 379.617C640.569 378.116 642.18 376.597 643.594 372.475C646.012 365.422 642.291 351.978 639.451 350.901C636.611 349.825 624.658 364.108 624.658 364.108Z" fill="white"/>
<path fill-rule="evenodd" clip-rule="evenodd" d="M583.626 537.154C583.626 537.154 599.403 575.59 599.661 576.883C599.919 578.175 599.367 579.157 599.367 579.157L592.981 582.904L591.048 579.357L567.624 541.025L583.626 537.154Z" fill="#465FE9"/>
<path fill-rule="evenodd" clip-rule="evenodd" d="M591.907 588.274C596.852 587.347 601.903 585.656 601.402 581.651C601.253 580.459 599.661 576.882 599.661 576.882C598.375 579.665 591.379 580.824 591.048 579.357C591.048 579.357 569.532 586.841 568.885 589.177C568.852 589.295 568.839 590.117 568.896 590.259C569.48 592.66 587.003 589.193 591.907 588.274Z" fill="#465FE9"/>
<path fill-rule="evenodd" clip-rule="evenodd" d="M629.667 449.193C626.437 469.408 585.146 491.209 581.411 506.259C578.207 519.168 583.626 537.154 583.626 537.154C583.803 538.807 568.717 543.165 567.624 541.025C567.624 541.025 552.786 512.354 552.796 499.126C552.812 479.063 577.92 454.172 588.563 442.598C592.131 438.718 602.24 427.017 602.24 427.017C602.24 427.017 634.955 416.102 629.667 449.193Z" fill="#2233A3"/>
<path fill-rule="evenodd" clip-rule="evenodd" d="M625.105 538.199C625.105 538.199 631.257 576.717 631.515 578.01C631.773 579.303 631.221 580.284 631.221 580.284L627.211 582.904L622.902 580.483L610.12 542.31L625.105 538.199Z" fill="#465FE9"/>
<path fill-rule="evenodd" clip-rule="evenodd" d="M621.985 591.677C623.791 591.041 632.629 586.909 632.128 582.905C631.978 581.712 631.515 578.01 631.515 578.01C630.23 580.791 623.246 580.677 622.902 580.484C622.902 580.484 614.019 587.673 613.372 590.01C613.339 590.127 613.326 590.948 613.383 591.092C613.967 593.492 617.301 593.326 621.985 591.677Z" fill="#465FE9"/>
<path fill-rule="evenodd" clip-rule="evenodd" d="M654.956 445.019C651.726 465.233 631.387 495.301 627.65 510.351C624.446 523.259 625.104 538.199 625.104 538.199C625.28 539.852 611.213 544.449 610.119 542.311C610.119 542.311 599.025 516.446 599.035 503.218C599.051 483.155 613.512 457.974 624.154 446.401C627.722 442.52 636.47 427.017 636.47 427.017C636.47 427.017 660.244 411.928 654.956 445.019Z" fill="#2233A3"/>
<path fill-rule="evenodd" clip-rule="evenodd" d="M602.24 427.017C615.08 409.238 604.59 381.748 601.817 355.41C599.747 335.734 636.933 325.425 653.024 358.613C669.115 391.801 654.956 445.019 654.956 445.019L608.728 442.268L602.24 427.017Z" fill="white"/>
<path fill-rule="evenodd" clip-rule="evenodd" d="M610.576 333.532C615.659 336.664 610.576 340.133 610.576 340.133C610.576 340.133 610.173 348.324 622.978 345.129C628.788 343.679 630.326 338.739 627.031 337.416C623.736 336.092 622.326 327.214 616.712 319.408C611.098 311.603 600.352 306.121 598.479 320.74C596.606 335.359 606.829 331.222 610.576 333.532Z" fill="#545872"/>
<path fill-rule="evenodd" clip-rule="evenodd" d="M601.734 314.279C591.714 313.455 588.279 315.062 598.253 317.281C608.226 319.5 610.772 324.069 612.991 323.22C615.211 322.372 617.887 322.568 617.495 325.439C617.103 328.311 615.235 327.81 615.235 327.81C615.235 327.81 615.42 331.011 618.736 331.378C622.051 331.745 622.976 331.378 622.976 331.378C622.976 331.378 624.154 325.439 621.608 320.218C619.062 314.997 612.047 315.127 601.734 314.279Z" fill="#FFAF94"/>
<path fill-rule="evenodd" clip-rule="evenodd" d="M599.516 314.077C606.17 318.091 606.656 318.307 612.833 320.971C620.848 324.428 622.29 321.886 622.29 321.886C622.29 321.886 621.745 314.661 616.843 312.06C605.98 306.298 599.516 314.077 599.516 314.077Z" fill="#465FE9"/>
<path fill-rule="evenodd" clip-rule="evenodd" d="M605.25 317.442C605.25 317.442 593.675 314.629 591.587 313.667C588.728 312.35 588.045 312.28 584.579 309.934C583.624 309.287 587.221 308.125 589.71 309.327C594.406 311.595 600.932 313.088 600.932 313.088L605.25 317.442Z" fill="#465FE9"/>
<path fill-rule="evenodd" clip-rule="evenodd" d="M607.762 342.017C603.159 347.653 610.986 380.408 612.246 388.526C614.702 404.352 610.322 415.479 608.257 410.911C608.257 410.911 606.351 422.286 601.735 427.601L608.328 449.286H654.065C654.065 449.286 660.719 424.816 660.714 411.694C660.714 411.694 654.707 419.548 642.036 416.698C629.366 413.848 619.857 352.109 640.768 343.233L639.277 342.182C639.277 342.182 634.751 342.776 630.345 350.803C625.939 358.831 625.156 377.235 626.918 387.808L629.366 403.471L615.81 401.916C615.81 401.916 616.441 395.509 614.702 387.612C613.935 384.122 608.999 357.558 608.902 352.859C608.804 348.16 607.668 343.536 609.901 340.525L607.762 342.017Z" fill="#2233A3"/>
<path fill-rule="evenodd" clip-rule="evenodd" d="M548.445 422.619C544.44 422.137 542.294 422.212 541.853 422.619C541.413 423.026 542.172 424.298 544.717 424.69C547.263 425.081 540.563 428.967 538.5 428.66C536.437 428.353 533.885 430.208 538.5 431.208C543.115 432.208 549.853 431.621 552.796 428.271C555.738 424.922 590.647 411.142 602.009 403.322C607.126 399.802 624.685 389.121 634.065 382.717C643.133 376.527 640.327 367.48 635.532 357.604C635.275 357.076 635.045 356.655 634.848 356.372C632.89 353.544 605.176 385.217 594.495 393.925C583.981 402.494 548.445 422.619 548.445 422.619Z" fill="#545872"/>
<path fill-rule="evenodd" clip-rule="evenodd" d="M603.031 347.928C603.031 347.928 586.157 362.755 579.037 364.264C573.825 365.369 563.615 345.517 563.909 342.727C564.203 339.937 565.28 337.735 565.427 334.357C565.573 330.98 562.399 328.732 562.399 328.732C562.399 328.732 561.819 332.637 561.624 333.953C561.427 335.27 560.824 336.56 559.209 335.581C557.593 334.602 553.824 331.682 553.443 332.699C552.721 334.626 556.064 335.365 556.662 340.525C556.908 342.646 558.423 344.069 558.423 344.069C558.423 344.069 562.587 375.212 573.945 378.149C585.303 381.087 605.768 366.075 605.768 366.075L603.031 347.928Z" fill="#545872"/>
<path fill-rule="evenodd" clip-rule="evenodd" d="M110.11 364.395C110.11 364.395 75.4578 337.304 63.1138 327.764C57.1638 323.166 37.0128 334.424 49.7888 349.136C58.7188 359.42 90.0218 372.391 98.5208 375.761C100.257 376.449 115.321 375.603 120.396 375.749V366.543L110.11 364.395Z" fill="#ADB8FD"/>
<path fill-rule="evenodd" clip-rule="evenodd" d="M166.344 373.37L156.194 371.862C156.194 371.862 157.972 370.138 158.756 368.817C159.539 367.495 158.584 365.978 157.336 367.568C156.088 369.16 151.65 371.187 151.65 371.187L120.396 366.544V375.749C131.786 375.553 148.003 374.34 150.949 375.163C167.203 379.708 166.344 373.37 166.344 373.37Z" fill="#FDD4C6"/>
<path fill-rule="evenodd" clip-rule="evenodd" d="M111.962 364.782V375.863L121.87 375.72V366.543L111.962 364.782Z" fill="#2233A3"/>
<path fill-rule="evenodd" clip-rule="evenodd" d="M676.364 314.973C675.862 314.973 675.429 314.597 675.372 314.086C674.676 307.995 673.128 303.989 670.771 302.179C669.511 301.211 668.022 300.87 666.226 301.137C660.474 301.988 659.558 310.662 659.69 313.932C659.713 314.484 659.283 314.95 658.731 314.972C658.172 314.976 657.715 314.565 657.692 314.014C657.503 309.325 658.981 300.187 665.933 299.158C668.26 298.814 670.302 299.296 671.99 300.593C674.832 302.776 676.589 307.116 677.358 313.86C677.422 314.408 677.027 314.904 676.478 314.967C676.44 314.971 676.402 314.973 676.364 314.973Z" fill="#ADB8FD"/>
<path fill-rule="evenodd" clip-rule="evenodd" d="M669.185 303.384C666.052 298.424 665.781 299.377 664.078 299.901C662.916 300.258 661.972 298.261 664.747 296.14C668.528 293.249 673.167 296.858 673.69 297.902C674.211 298.946 674.734 303.384 674.734 303.384H669.185Z" fill="#FDD4C6"/>
<path fill-rule="evenodd" clip-rule="evenodd" d="M675.584 328.576H659.461L657.166 312.326H678.539L675.584 328.576Z" fill="#ADB8FD"/>
<path fill-rule="evenodd" clip-rule="evenodd" d="M692.152 217.993C689.556 218.733 687.333 221.377 687.716 222.535C687.918 223.141 688.258 223.129 689.449 222.655C690.006 222.434 691.408 221.852 691.918 220.816C692.499 219.632 692.152 217.993 692.152 217.993Z" fill="#FDD4C6"/>
<path fill-rule="evenodd" clip-rule="evenodd" d="M721.113 513.794L722.64 516.671L723.202 518.95L730.154 514.153L729.664 512.915L728.255 510.621L719.383 504.135L721.113 513.794Z" fill="white"/>
<path fill-rule="evenodd" clip-rule="evenodd" d="M748.284 465.036L761.174 411.674L747.226 455.576L741.333 461.158L740.753 464.619L746.975 470.242L748.284 465.036Z" fill="white"/>
<path fill-rule="evenodd" clip-rule="evenodd" d="M734.767 374.858C728.519 394.111 751.006 399.525 748.11 407.926C743.387 421.629 741.333 461.158 741.333 461.158C742.737 459.294 748.371 461.694 748.285 465.036C748.285 465.036 770.803 407.743 772.781 401.671C775.032 394.756 782.637 390.905 781.822 385.946C780.324 376.844 778.851 373.464 778.851 373.464L748.789 345.756L734.767 374.858Z" fill="#465FE9"/>
<path fill-rule="evenodd" clip-rule="evenodd" d="M695.67 232.373C692.673 227.622 688.944 223.11 689.976 222.261C690.712 221.654 690.983 221.81 691.774 222.831C693.488 225.04 692.061 221.651 692.061 221.651L691.231 221.061C691.578 218.996 690.372 217.45 694.644 217.888C696.81 218.11 697.224 220.264 698.159 222.394C699.575 225.615 698.882 227.298 699.014 229.208C699.146 231.119 695.67 232.373 695.67 232.373Z" fill="#FDD4C6"/>
<path fill-rule="evenodd" clip-rule="evenodd" d="M668.658 306.347C668.658 306.347 667.878 303.183 667.708 302.141C667.259 299.387 672.455 295.911 674.602 301.171C674.878 301.844 675.498 304.315 675.498 304.315L668.658 306.347Z" fill="white"/>
<path fill-rule="evenodd" clip-rule="evenodd" d="M696.677 234.473C696.209 233.685 695.342 232.476 694.333 230.722C693.186 228.726 697.76 227.116 699.071 228.979L700.453 233.307L696.677 234.473Z" fill="white"/>
<path fill-rule="evenodd" clip-rule="evenodd" d="M740.765 463.906C742.657 462.955 746.425 465.525 749.408 472.851C752.382 480.154 764.182 492.63 758.545 496.066C756.634 497.231 736.467 471.986 737.57 469.298C737.629 469.153 737.689 469.011 737.748 468.873C738.827 466.344 739.75 464.416 740.765 463.906Z" fill="#2233A3"/>
<path fill-rule="evenodd" clip-rule="evenodd" d="M758.546 496.066C756.691 498.171 738.8 475.244 738.041 473.552C737.282 471.861 736.751 470.462 737.57 469.297C738.391 468.133 741.526 468.639 743.817 471.682C744.873 473.084 762.244 491.872 758.546 496.066Z" fill="#000C59"/>
<path fill-rule="evenodd" clip-rule="evenodd" d="M657.937 313.23C659.089 314.171 659.408 313.974 659.863 318.464C660.302 322.806 660.178 322.618 660.502 322.71C661.301 322.938 661.241 316.825 661.458 315.931C661.591 315.379 662.264 314.626 662.486 315.98C662.707 317.334 662.962 317.799 663.403 317.789C664.385 317.766 664.034 314.359 664.664 314.091C665.353 313.797 666.046 313.632 666.732 314.635C667.416 315.639 668.011 314.783 668.266 314.416C668.522 314.049 671.711 314.255 671.966 313.386C672.221 312.517 672.717 312.326 672.717 312.326H657.589C657.589 312.326 657.807 313.124 657.937 313.23Z" fill="#000C59"/>
<path fill-rule="evenodd" clip-rule="evenodd" d="M720.606 357.189C703.306 390.826 689.701 424.048 695.184 454.396C697.476 467.08 721.113 513.793 721.113 513.793C721.551 510.038 727.444 509.094 728.254 510.621C728.254 510.621 710.532 456.985 714.982 442.236C719.356 427.739 741.659 400.869 748.256 392.538C748.256 392.538 762.279 373.585 760.83 357.933C759.38 342.28 720.606 357.189 720.606 357.189Z" fill="#465FE9"/>
<path fill-rule="evenodd" clip-rule="evenodd" d="M766.122 329.451C759.267 308.222 759.855 304.357 753.496 290.398C744.533 270.724 711.873 258.302 707.764 252.478C703.023 245.761 702.876 239.485 699.474 229.677C699.474 229.677 695.821 227.868 694.1 231.109C694.1 231.109 695.757 254.209 698.972 259.017C702.107 263.705 723.013 287.627 723.013 287.627C723.013 287.627 721.679 288.945 721.107 289.168C701.04 296.993 683.023 317.163 683.023 317.163C683.023 317.163 679.958 311.142 676.051 303.377C673.403 298.117 667.228 301.535 668.264 306.166C668.952 309.244 678.066 333.604 682.051 338.201C688.785 345.972 707.089 325.182 707.089 325.182C707.089 325.182 707.978 371.18 706.648 383.265C706.648 383.265 719.011 376.613 731.347 373.464C740.849 371.038 754.991 371.45 754.991 371.45L755.654 355.408L758.932 371.752C758.932 371.752 772.479 371.278 778.851 373.464C778.851 373.464 772.906 350.461 766.122 329.451Z" fill="#2233A3"/>
<path fill-rule="evenodd" clip-rule="evenodd" d="M726.069 258.418C721.705 264.201 716.314 277.116 721.654 280.803C727.286 284.69 723.371 288.993 723.371 288.993C723.371 288.993 729.845 287.23 734.679 285.984C739.101 284.845 737.056 280.579 738.372 277.961C741.555 271.62 744.544 266.814 741.443 262.495C737.062 256.393 728.898 254.668 726.069 258.418Z" fill="#FDD4C6"/>
<path fill-rule="evenodd" clip-rule="evenodd" d="M724.486 286.435L721.107 289.168C721.107 289.168 729.42 288.395 733.954 286.533C736.554 285.465 737.468 284.612 737.745 283.703C737.745 283.703 732.076 283.078 730.019 284.51C727.918 285.975 724.486 286.435 724.486 286.435Z" fill="white"/>
<path fill-rule="evenodd" clip-rule="evenodd" d="M728.263 254.021C724.494 255.362 723.069 261.551 725.552 268.84C725.552 268.84 729.508 266.756 730.61 271.03C731.916 276.104 728.475 275.539 728.783 276.229C731.717 282.816 729.483 281.805 731.088 282.597C733.62 283.848 738.064 284.834 739.654 283.224C741.244 281.614 740.878 278.181 743.494 274.143C746.112 270.105 748.134 264.367 745.111 260.289C742.087 256.21 733.02 252.329 728.263 254.021Z" fill="#FF3D2B"/>
<path fill-rule="evenodd" clip-rule="evenodd" d="M725.108 522.75C728.971 519.982 733.239 519.978 733.239 519.978C732.504 516.111 729.664 512.915 729.664 512.915C729.435 511.542 724.186 514.377 722.64 516.671C719.766 520.935 710.778 528.186 710.832 533.513C710.838 534.194 711.341 535.674 711.407 535.534C713.378 531.35 718.214 527.689 725.108 522.75Z" fill="#2233A3"/>
<path fill-rule="evenodd" clip-rule="evenodd" d="M711.407 535.534C711.542 536.835 722.971 527.453 727.444 525.877C731.916 524.302 733.665 520.647 733.239 519.977C732.814 519.308 730.219 519.7 727.648 521.022C725.078 522.344 717.539 527.85 716.07 529.355C714.601 530.86 711.309 534.592 711.407 535.534Z" fill="#000C59"/>
<path fill-rule="evenodd" clip-rule="evenodd" d="M686.238 222.844L699.261 218.194L700.064 220.367L686.865 224.925L686.238 222.844Z" fill="#2233A3"/>
<path fill-rule="evenodd" clip-rule="evenodd" d="M690.847 225.113C689.47 223.061 688.631 221.234 689.508 220.842C690.384 220.45 692.027 223.143 692.027 223.143L690.847 225.113Z" fill="#FDD4C6"/>
<path fill-rule="evenodd" clip-rule="evenodd" d="M686.238 222.844C686.238 222.844 684.29 223.423 683.509 221.961L682.307 225.06C682.307 225.06 682.748 226.993 684.273 226.895C685.798 226.797 687.041 224.864 687.041 224.864L686.238 222.844Z" fill="#000C59"/>
<path fill-rule="evenodd" clip-rule="evenodd" d="M699.262 218.194L700.233 217.889L701.04 220.091L700.065 220.367L699.262 218.194Z" fill="#465FE9"/>
<path fill-rule="evenodd" clip-rule="evenodd" d="M731.349 589.195C731.267 589.195 731.183 589.188 731.1 589.174C730.269 589.038 729.705 588.254 729.842 587.423L761.394 395.571C761.531 394.741 762.321 394.178 763.146 394.314C763.977 394.451 764.54 395.236 764.404 396.067L732.852 587.917C732.729 588.665 732.082 589.195 731.349 589.195Z" fill="#D3DCE6"/>
<path fill-rule="evenodd" clip-rule="evenodd" d="M793.065 461.619H818.236V458.568H793.065V461.619Z" fill="#D3DCE6"/>
<path fill-rule="evenodd" clip-rule="evenodd" d="M838.937 589.195C838.203 589.195 837.555 588.663 837.434 587.914L806.3 396.063C806.165 395.232 806.73 394.448 807.561 394.314C808.396 394.178 809.175 394.743 809.31 395.575L840.444 587.425C840.58 588.257 840.014 589.04 839.183 589.174C839.1 589.188 839.018 589.195 838.937 589.195Z" fill="#D3DCE6"/>
<path fill-rule="evenodd" clip-rule="evenodd" d="M813.236 589.195C812.502 589.195 811.854 588.663 811.733 587.914L780.599 396.063C780.464 395.232 781.029 394.448 781.86 394.314C782.691 394.178 783.474 394.743 783.609 395.575L814.743 587.425C814.879 588.257 814.313 589.04 813.482 589.174C813.399 589.188 813.317 589.195 813.236 589.195Z" fill="#D3DCE6"/>
<path fill-rule="evenodd" clip-rule="evenodd" d="M706.169 588.995C706.089 588.995 706.009 588.989 705.928 588.975C705.11 588.844 704.554 588.074 704.687 587.256L735.779 394.666C735.91 393.848 736.686 393.289 737.499 393.425C738.316 393.557 738.873 394.327 738.74 395.145L707.648 587.734C707.529 588.471 706.892 588.995 706.169 588.995Z" fill="#D3DCE6"/>
<path fill-rule="evenodd" clip-rule="evenodd" d="M731.347 400.579H803.879V391.059H731.347V400.579Z" fill="#ADB3BC"/>
<path fill-rule="evenodd" clip-rule="evenodd" d="M770.484 400.579H813.237V391.059H770.484V400.579Z" fill="#D3DCE6"/>
<path fill-rule="evenodd" clip-rule="evenodd" d="M759.465 418.198H734.767C733.939 418.198 733.267 417.527 733.267 416.698C733.267 415.869 733.939 415.198 734.767 415.198H759.465C760.293 415.198 760.965 415.869 760.965 416.698C760.965 417.527 760.293 418.198 759.465 418.198Z" fill="#D3DCE6"/>
<path fill-rule="evenodd" clip-rule="evenodd" d="M755.091 444.792H730.394C729.566 444.792 728.894 444.121 728.894 443.292C728.894 442.463 729.566 441.792 730.394 441.792H755.091C755.919 441.792 756.591 442.463 756.591 443.292C756.591 444.121 755.919 444.792 755.091 444.792Z" fill="#D3DCE6"/>
<path fill-rule="evenodd" clip-rule="evenodd" d="M750.718 471.387H726.02C725.192 471.387 724.52 470.715 724.52 469.887C724.52 469.059 725.192 468.387 726.02 468.387H750.718C751.546 468.387 752.218 469.059 752.218 469.887C752.218 470.715 751.546 471.387 750.718 471.387Z" fill="#D3DCE6"/>
<path fill-rule="evenodd" clip-rule="evenodd" d="M746.344 497.981H721.646C720.818 497.981 720.146 497.309 720.146 496.481C720.146 495.653 720.818 494.981 721.646 494.981H746.344C747.172 494.981 747.844 495.653 747.844 496.481C747.844 497.309 747.172 497.981 746.344 497.981Z" fill="#D3DCE6"/>
<path fill-rule="evenodd" clip-rule="evenodd" d="M741.97 524.576H717.272C716.444 524.576 715.772 523.904 715.772 523.076C715.772 522.248 716.444 521.576 717.272 521.576H741.97C742.798 521.576 743.47 522.248 743.47 523.076C743.47 523.904 742.798 524.576 741.97 524.576Z" fill="#D3DCE6"/>
<path fill-rule="evenodd" clip-rule="evenodd" d="M737.596 551.171H712.898C712.07 551.171 711.398 550.499 711.398 549.671C711.398 548.843 712.07 548.171 712.898 548.171H737.596C738.424 548.171 739.096 548.843 739.096 549.671C739.096 550.499 738.424 551.171 737.596 551.171Z" fill="#D3DCE6"/>
<path fill-rule="evenodd" clip-rule="evenodd" d="M733.222 577.766H708.524C707.696 577.766 707.024 577.094 707.024 576.266C707.024 575.438 707.696 574.766 708.524 574.766H733.222C734.05 574.766 734.722 575.438 734.722 576.266C734.722 577.094 734.05 577.766 733.222 577.766Z" fill="#D3DCE6"/>
<path fill-rule="evenodd" clip-rule="evenodd" d="M821.592 266.175C821.204 262.012 823.065 259.761 822.868 257.607C822.673 255.453 821.4 258.292 820.91 259.369C820.421 260.446 820.47 255.6 818.805 253.153C817.141 250.705 813.273 253.691 813.664 257.901C814.056 262.11 814.815 263.885 815.378 265.645C815.942 267.405 816.015 268.718 816.015 268.718L821.592 266.175Z" fill="#545872"/>
<path fill-rule="evenodd" clip-rule="evenodd" d="M926.855 400.839C926.425 410.65 921.311 481.888 921.197 490.041C921.008 503.339 933.725 564.779 933.725 564.779C932.975 567.226 928.725 569.719 925.897 567.336C925.897 567.336 898.224 491.722 898.857 485.922C899.931 476.079 893.531 408.838 893.531 408.838L903.437 394.887L926.855 400.839Z" fill="#2233A3"/>
<path fill-rule="evenodd" clip-rule="evenodd" d="M855.68 247.529L852.322 242.432C852.322 242.432 847.939 234.824 842.785 237.83C837.632 240.837 839.223 249.468 842.87 248.151C847.477 246.486 849.263 249.323 849.263 249.323C849.263 249.323 850.014 250.56 851.23 252.566C855.427 259.489 855.68 247.529 855.68 247.529Z" fill="#545872"/>
<path fill-rule="evenodd" clip-rule="evenodd" d="M874.574 400.839C866.123 429.768 879.404 473.989 881.465 506.262C881.957 513.968 894.282 570.025 894.282 570.025C894.282 570.025 900.356 574.696 901.332 565.978C898.912 553.6 899.872 516.898 900.784 506.148C903.856 469.958 913.971 410.548 913.971 410.548L874.574 400.839Z" fill="#2233A3"/>
<path fill-rule="evenodd" clip-rule="evenodd" d="M871.789 407.093L869.497 429.59C869.497 429.59 887.297 431.077 902.964 428.532C918.63 425.987 930.119 411.302 930.119 411.302L926.037 393.349L871.789 407.093Z" fill="#ADB8FD"/>
<path fill-rule="evenodd" clip-rule="evenodd" d="M924.902 391.35C911.473 371.557 919.935 377.778 913.63 349.834C905.353 313.164 889.362 323.659 889.362 323.659C885.15 327.404 890.352 325.388 882.131 332.009C879.71 333.048 876.482 332.848 873.003 331.985C864.324 329.833 856.941 337.716 863.565 352.23C867.603 361.08 867.973 374.715 866.148 390.103C863.145 415.414 866.399 415.421 872.284 418.351C891.266 427.804 937.773 410.322 924.902 391.35Z" fill="#465FE9"/>
<path fill-rule="evenodd" clip-rule="evenodd" d="M871.789 331.658C875.417 338.861 873.381 388.367 867.172 376.218C867.172 376.218 861.733 353.387 855.68 345.443C849.625 337.498 831.357 324.765 825.774 318.304C820.192 311.841 814.901 267.684 814.901 267.684L822.51 265.645C822.51 265.645 835.075 304.793 837.817 308.187C840.559 311.58 871.789 331.658 871.789 331.658Z" fill="#ADB8FD"/>
<path fill-rule="evenodd" clip-rule="evenodd" d="M887.297 330.833C895.01 324.456 908.982 339.674 914.39 353.39C914.39 353.39 913.915 333.02 908.234 324.65C902.553 316.281 881.716 282.55 880.15 280.357C878.583 278.165 855.68 245.925 855.68 245.925L848.763 252.308L871.789 295.413L887.297 330.833Z" fill="#ADB8FD"/>
<path fill-rule="evenodd" clip-rule="evenodd" d="M891.018 300.29C874.697 307.264 875.157 311.56 875.736 315.087C876.315 318.614 878.605 318.757 879.813 322.657C881.021 326.557 879.827 328.959 878.368 332.882C877.358 335.598 883.345 335.21 887.082 332.651C890.82 330.093 892.128 329.648 890.526 323.432C888.922 317.215 895.413 316.034 896.015 308.53C896.617 301.026 891.018 300.29 891.018 300.29Z" fill="#545872"/>
<path fill-rule="evenodd" clip-rule="evenodd" d="M889.23 299.257C885.18 300.342 887.885 312.428 887.232 312.82C887.232 312.82 890.888 312.885 889.06 315.495C887.232 318.106 885.405 316.214 885.405 316.214C885.405 316.214 884.948 319.542 887.297 320.912C889.648 322.283 890.283 321.917 890.283 321.917C890.283 321.917 896.26 322.485 900.437 317.85C905.495 312.238 898.167 296.863 889.23 299.257Z" fill="#2233A3"/>
<path fill-rule="evenodd" clip-rule="evenodd" d="M900.027 311.963C898.285 312.43 898.852 315.683 899.512 316.197C900.173 316.711 905.662 319.46 905.651 325.342C905.64 331.224 901.398 330.506 901.006 339.904C900.614 349.302 925.811 355.959 923.07 363.791C920.328 371.622 910.376 366.404 908.992 373.981C908.371 377.38 909.623 381.412 924.114 378.279C938.606 375.147 940.042 361.466 930.12 348.401C920.198 335.336 925.55 328.426 923.07 321.961C920.589 315.495 908.319 309.742 900.027 311.963Z" fill="#2233A3"/>
<path fill-rule="evenodd" clip-rule="evenodd" d="M836.877 248.83C830.412 248.83 825.171 243.59 825.171 237.127C825.171 230.663 830.412 225.424 836.877 225.424C843.341 225.424 848.582 230.663 848.582 237.127C848.582 243.59 843.341 248.83 836.877 248.83ZM836.877 221.846C828.436 221.846 821.592 228.687 821.592 237.127C821.592 245.567 828.436 252.409 836.877 252.409C845.318 252.409 852.161 245.567 852.161 237.127C852.161 228.687 845.318 221.846 836.877 221.846Z" fill="#D3DCE6"/>
<mask id="mask20" mask-type="alpha" maskUnits="userSpaceOnUse" x="836" y="221" width="17" height="29">
<path fill-rule="evenodd" clip-rule="evenodd" d="M836.877 223.668V223.821C836.877 224.693 837.534 225.41 838.398 225.522C844.144 226.268 848.582 231.18 848.582 237.127C848.582 240.963 846.735 244.366 843.882 246.501C843.182 247.024 842.956 247.969 843.384 248.732L843.457 248.863C843.964 249.766 845.148 250.016 845.98 249.399C849.731 246.615 852.161 242.156 852.161 237.127C852.161 229.35 846.35 222.93 838.832 221.969C838.755 221.96 838.68 221.955 838.605 221.955C837.667 221.955 836.877 222.702 836.877 223.668Z" fill="white"/>
</mask>
<g mask="url(#mask20)">
<path fill-rule="evenodd" clip-rule="evenodd" d="M836.877 223.668V223.821C836.877 224.693 837.534 225.41 838.398 225.522C844.144 226.268 848.582 231.18 848.582 237.127C848.582 240.963 846.735 244.366 843.882 246.501C843.182 247.024 842.956 247.969 843.384 248.732L843.457 248.863C843.964 249.766 845.148 250.016 845.98 249.399C849.731 246.615 852.161 242.156 852.161 237.127C852.161 229.35 846.35 222.93 838.832 221.969C838.755 221.96 838.68 221.955 838.605 221.955C837.667 221.955 836.877 222.702 836.877 223.668Z" fill="url(#paint20_linear)"/>
</g>
<defs>
<linearGradient id="paint0_linear" x1="422.037" y1="178.909" x2="422.037" y2="256.015" gradientUnits="userSpaceOnUse">
<stop stop-color="#EBEBEB"/>
<stop offset="1" stop-color="white"/>
</linearGradient>
<linearGradient id="paint1_linear" x1="698.051" y1="234.096" x2="698.051" y2="170.574" gradientUnits="userSpaceOnUse">
<stop stop-color="#2133A3"/>
<stop offset="1" stop-color="#FFAF93"/>
</linearGradient>
<linearGradient id="paint2_linear" x1="54.2391" y1="262.32" x2="71.0493" y2="330.951" gradientUnits="userSpaceOnUse">
<stop stop-color="#2133A3"/>
<stop offset="1" stop-color="#FFAF93"/>
</linearGradient>
<linearGradient id="paint3_linear" x1="74.3505" y1="303.16" x2="131.51" y2="403.426" gradientUnits="userSpaceOnUse">
<stop stop-color="#2133A3"/>
<stop offset="1" stop-color="#FFAF93"/>
</linearGradient>
<linearGradient id="paint4_linear" x1="53.4811" y1="327.862" x2="78.1758" y2="405.969" gradientUnits="userSpaceOnUse">
<stop stop-color="#2133A3"/>
<stop offset="1" stop-color="#FFAF93"/>
</linearGradient>
<linearGradient id="paint5_linear" x1="37.0392" y1="356.297" x2="51.8289" y2="422.032" gradientUnits="userSpaceOnUse">
<stop stop-color="#2133A3"/>
<stop offset="1" stop-color="#FFAF93"/>
</linearGradient>
<linearGradient id="paint6_linear" x1="246.858" y1="357.815" x2="373.186" y2="376.595" gradientUnits="userSpaceOnUse">
<stop stop-color="#2133A3"/>
<stop offset="1" stop-color="#FFAF93"/>
</linearGradient>
<linearGradient id="paint7_linear" x1="246.854" y1="357.796" x2="373.181" y2="376.587" gradientUnits="userSpaceOnUse">
<stop stop-color="#2133A3"/>
<stop offset="1" stop-color="#FFAF93"/>
</linearGradient>
<linearGradient id="paint8_linear" x1="244.52" y1="373.556" x2="370.846" y2="392.336" gradientUnits="userSpaceOnUse">
<stop stop-color="#2133A3"/>
<stop offset="1" stop-color="#FFAF93"/>
</linearGradient>
<linearGradient id="paint9_linear" x1="244.517" y1="373.537" x2="370.842" y2="392.328" gradientUnits="userSpaceOnUse">
<stop stop-color="#2133A3"/>
<stop offset="1" stop-color="#FFAF93"/>
</linearGradient>
<linearGradient id="paint10_linear" x1="242.178" y1="389.292" x2="368.503" y2="408.078" gradientUnits="userSpaceOnUse">
<stop stop-color="#2133A3"/>
<stop offset="1" stop-color="#FFAF93"/>
</linearGradient>
<linearGradient id="paint11_linear" x1="242.181" y1="389.307" x2="368.508" y2="408.082" gradientUnits="userSpaceOnUse">
<stop stop-color="#2133A3"/>
<stop offset="1" stop-color="#FFAF93"/>
</linearGradient>
<linearGradient id="paint12_linear" x1="242.177" y1="389.289" x2="368.504" y2="408.075" gradientUnits="userSpaceOnUse">
<stop stop-color="#2133A3"/>
<stop offset="1" stop-color="#FFAF93"/>
</linearGradient>
<linearGradient id="paint13_linear" x1="239.837" y1="405.032" x2="366.165" y2="423.818" gradientUnits="userSpaceOnUse">
<stop stop-color="#2133A3"/>
<stop offset="1" stop-color="#FFAF93"/>
</linearGradient>
<linearGradient id="paint14_linear" x1="239.835" y1="405.022" x2="366.162" y2="423.813" gradientUnits="userSpaceOnUse">
<stop stop-color="#2133A3"/>
<stop offset="1" stop-color="#FFAF93"/>
</linearGradient>
<linearGradient id="paint15_linear" x1="433.075" y1="385.208" x2="473.262" y2="348.731" gradientUnits="userSpaceOnUse">
<stop stop-color="#2133A3"/>
<stop offset="1" stop-color="#FFAF93"/>
</linearGradient>
<linearGradient id="paint16_linear" x1="457.698" y1="393.684" x2="494.413" y2="374.299" gradientUnits="userSpaceOnUse">
<stop stop-color="#2133A3"/>
<stop offset="1" stop-color="#FFAF93"/>
</linearGradient>
<linearGradient id="paint17_linear" x1="514.385" y1="399.593" x2="553.808" y2="372.39" gradientUnits="userSpaceOnUse">
<stop stop-color="#2133A3"/>
<stop offset="1" stop-color="#FFAF93"/>
</linearGradient>
<linearGradient id="paint18_linear" x1="547.687" y1="398.267" x2="582.095" y2="344.214" gradientUnits="userSpaceOnUse">
<stop stop-color="#2133A3"/>
<stop offset="1" stop-color="#FFAF93"/>
</linearGradient>
<linearGradient id="paint19_linear" x1="483.221" y1="402.94" x2="512.828" y2="393.395" gradientUnits="userSpaceOnUse">
<stop stop-color="#2133A3"/>
<stop offset="1" stop-color="#FFAF93"/>
</linearGradient>
<linearGradient id="paint20_linear" x1="825.228" y1="231.769" x2="854.108" y2="249.343" gradientUnits="userSpaceOnUse">
<stop stop-color="#2133A3"/>
<stop offset="1" stop-color="#FFAF93"/>
</linearGradient>
</defs>
</svg>
