<svg width="30" height="24" viewBox="0 0 30 24" fill="none" xmlns="http://www.w3.org/2000/svg">
<path d="M29.4167 14.5326C29.046 14.3259 28.5756 14.3714 28.1261 14.6573L19.822 19.9406C19.5909 20.0877 19.5215 20.3961 19.6671 20.6296C19.8126 20.8631 20.1179 20.9332 20.349 20.7861L28.6531 15.5028C28.8285 15.3913 28.9245 15.3995 28.9387 15.4074C28.953 15.4154 29.0109 15.493 29.0109 15.7024C29.0109 16.2653 28.5975 17.022 28.1261 17.3219L20.0757 22.4438C19.6477 22.7161 19.2564 22.791 19.0021 22.6492C18.7478 22.5074 18.602 22.1329 18.602 21.6218C18.602 20.3269 19.5182 18.65 20.6028 17.9601L29.769 12.1283C29.9128 12.0368 30 11.8772 30 11.7055C30 11.5338 29.9128 11.3741 29.769 11.2827L12.156 0.0768422C11.995 -0.0256141 11.79 -0.0256141 11.629 0.0768422L2.35118 5.9796C1.03278 6.81844 0 8.70855 0 10.2827V10.5492C0 12.1233 1.03278 14.0135 2.35118 14.8523L16.1505 23.6317C16.3816 23.7788 16.6869 23.7086 16.8325 23.4752C16.978 23.2417 16.9086 22.9332 16.6775 22.7862L2.87819 14.0067C1.85411 13.3553 0.989 11.7718 0.989 10.5492V10.2827C0.989 9.06002 1.85411 7.47668 2.87819 6.82517L11.8925 1.09008L28.5775 11.7054L20.0758 17.1144C18.6948 17.993 17.613 19.9729 17.613 21.6218C17.613 22.5208 17.9366 23.1963 18.5241 23.524C18.7601 23.6556 19.0203 23.7209 19.2961 23.7209C19.7069 23.7209 20.1523 23.576 20.6027 23.2893L28.6531 18.1675C29.4084 17.687 29.9999 16.6042 29.9999 15.7024C29.9999 15.1658 29.7874 14.7394 29.4167 14.5326Z" fill="white"/>
<path d="M23.2202 12.5581C23.3864 12.5581 23.5489 12.4744 23.644 12.3218C23.7912 12.0854 23.721 11.7731 23.4873 11.6242L11.9296 4.26389C11.6958 4.11504 11.387 4.18606 11.2398 4.4224C11.0926 4.6588 11.1628 4.97115 11.3966 5.12001L22.9542 12.4803C23.037 12.533 23.1291 12.5581 23.2202 12.5581Z" fill="white"/>
<path d="M21.153 13.2558C21.311 13.2558 21.4654 13.1702 21.5554 13.0141C21.6947 12.7729 21.6276 12.4548 21.4055 12.3036L16.7733 9.14862C16.5512 8.99728 16.2583 9.07034 16.1192 9.31151C15.98 9.55274 16.0471 9.87082 16.2692 10.022L20.9013 13.177C20.9797 13.2304 21.0668 13.2558 21.153 13.2558Z" fill="white"/>
<path d="M14.6747 10.5432C14.4538 10.3928 14.1629 10.4662 14.025 10.7071C13.8871 10.948 13.9543 11.2651 14.1753 11.4155L18.8134 14.5731C18.8911 14.6259 18.9774 14.6512 19.0627 14.6512C19.2199 14.6512 19.3737 14.5654 19.4631 14.4092C19.6011 14.1684 19.5338 13.8512 19.3129 13.7008L14.6747 10.5432Z" fill="white"/>
<path d="M9.85252 4.96381L5.80857 7.68956C5.66668 7.78518 5.58078 7.95225 5.5813 8.13175C5.58182 8.31125 5.66856 8.47776 5.81097 8.57254L10.6338 11.7819C10.7125 11.8343 10.8016 11.8605 10.8907 11.8605C10.9827 11.8605 11.0745 11.8326 11.1548 11.7771L12.229 11.0341C12.4547 10.8779 12.5194 10.5556 12.3735 10.314C12.2277 10.0724 11.9265 10.0033 11.7007 10.1593L10.8857 10.7231L6.98523 8.12744L10.1124 6.01963L13.9562 8.59907L13.508 8.90904C13.2823 9.06521 13.2176 9.38755 13.3635 9.62913C13.5094 9.8707 13.8108 9.93993 14.0363 9.78383L15.1263 9.0298C15.2659 8.93314 15.3498 8.76683 15.3487 8.58879C15.3476 8.41082 15.2615 8.24576 15.1206 8.15119L10.3703 4.96332C10.212 4.85701 10.0107 4.85722 9.85252 4.96381Z" fill="white"/>
<path d="M17.371 15.8044C17.5077 15.5639 17.4403 15.2477 17.2205 15.0982L12.5764 11.9379C12.3566 11.7883 12.0676 11.8621 11.9311 12.1026C11.7944 12.3431 11.8618 12.6593 12.0816 12.8088L16.7257 15.9691C16.8027 16.0215 16.8882 16.0465 16.9727 16.0465C17.1293 16.0465 17.2823 15.9606 17.371 15.8044Z" fill="white"/>
<path d="M3.56387 9.29947C3.41781 9.52764 3.48981 9.82754 3.72476 9.96939L15.9787 17.3684C16.0609 17.4182 16.1524 17.4419 16.2427 17.4419C16.41 17.4419 16.5737 17.3604 16.6685 17.2122C16.8146 16.984 16.7426 16.6841 16.5076 16.5423L4.25371 9.14323C4.01876 9.00126 3.70994 9.0713 3.56387 9.29947Z" fill="white"/>
</svg>
