<svg width="25" height="25" viewBox="0 0 25 25" fill="none" xmlns="http://www.w3.org/2000/svg">
<path fill-rule="evenodd" clip-rule="evenodd" d="M21.3741 9.72222H23.713C24.4227 9.72222 25 10.2995 25 11.0093V13.9907C25 14.7005 24.4227 15.2778 23.713 15.2778H21.3741C20.9981 15.2778 20.6875 15.4847 20.544 15.8319C20.4005 16.1792 20.4731 16.5449 20.7384 16.8106L22.3921 18.4639C22.6352 18.7074 22.769 19.0306 22.769 19.3741C22.769 19.7181 22.6352 20.0417 22.3921 20.2847L20.2843 22.3926C19.7981 22.8787 18.9505 22.8796 18.4634 22.3926L16.8102 20.7389C16.5444 20.4736 16.1792 20.4 15.8315 20.5444C15.4843 20.6884 15.2773 20.9981 15.2773 21.3741V23.713C15.2773 24.4227 14.7 25 13.9903 25H11.0093C10.2995 25 9.72222 24.4227 9.72222 23.713V21.3741C9.72222 20.9981 9.51528 20.6884 9.16806 20.5444C8.82037 20.4005 8.45509 20.4736 8.18935 20.7389L6.53611 22.3926C6.04907 22.8801 5.20185 22.8792 4.71528 22.3926L2.60741 20.2847C2.36435 20.0412 2.23056 19.7181 2.23056 19.3741C2.23056 19.0306 2.36435 18.7069 2.60741 18.4639L4.26111 16.8106C4.52639 16.5449 4.59954 16.1792 4.45556 15.8319C4.31157 15.4847 4.00185 15.2778 3.62593 15.2778H1.28704C0.577315 15.2778 0 14.7005 0 13.9903V11.0093C0 10.2995 0.577315 9.72222 1.28704 9.72222H3.62593C4.00185 9.72222 4.31204 9.51528 4.45556 9.16806C4.59907 8.82083 4.52639 8.45509 4.26111 8.18935L2.60741 6.53611C2.36435 6.29259 2.23056 5.96944 2.23056 5.62593C2.23056 5.28194 2.36435 4.95833 2.60741 4.71528L4.71528 2.60741C5.20139 2.1213 6.04907 2.12037 6.53611 2.60741L8.18935 4.26065C8.45509 4.52593 8.82176 4.60046 9.16806 4.45556C9.51528 4.31157 9.72222 4.00185 9.72222 3.62593V1.28704C9.72222 0.577315 10.2995 0 11.0093 0H13.9907C14.7005 0 15.2778 0.577315 15.2778 1.28704V3.62593C15.2778 4.00185 15.4847 4.31157 15.8319 4.45556C16.1782 4.6 16.5449 4.52593 16.8106 4.26065L18.4639 2.60741C18.9509 2.12037 19.7986 2.1213 20.2847 2.60741L22.3926 4.71528C22.6356 4.9588 22.7694 5.28194 22.7694 5.62593C22.7694 5.96944 22.6356 6.29306 22.3926 6.53611L20.7389 8.18935C20.4736 8.45509 20.4005 8.82083 20.5444 9.16806C20.6884 9.51528 20.9981 9.72222 21.3741 9.72222ZM23.713 14.3519C23.912 14.3519 24.0741 14.1898 24.0741 13.9907V11.0093C24.0741 10.8102 23.912 10.6481 23.713 10.6486H21.3741C20.6222 10.6486 19.9764 10.2171 19.6889 9.52269C19.4009 8.82824 19.5528 8.0662 20.0843 7.53472L21.738 5.88148C21.8792 5.74074 21.8792 5.51157 21.738 5.37037L19.6301 3.2625C19.4898 3.1213 19.2606 3.1213 19.119 3.2625L17.4657 4.91574C16.9343 5.44722 16.1731 5.59907 15.4778 5.31111C14.7833 5.02361 14.3519 4.37778 14.3519 3.62593V1.28704C14.3519 1.08796 14.1898 0.925926 13.9903 0.925926H11.0093C10.8102 0.925926 10.6481 1.08796 10.6481 1.28704V3.62593C10.6481 4.37778 10.2167 5.02361 9.52222 5.31065C8.82685 5.59861 8.06528 5.4463 7.53426 4.91528L5.88102 3.26204C5.73981 3.12083 5.51065 3.12083 5.36991 3.26204L3.26204 5.36991C3.12083 5.51065 3.12083 5.73981 3.26204 5.88102L4.91574 7.53426C5.44769 8.06574 5.59907 8.82778 5.31111 9.52222C5.02361 10.2167 4.37778 10.6481 3.62593 10.6481H1.28704C1.08796 10.6481 0.925926 10.8102 0.925926 11.0093V13.9907C0.925926 14.1898 1.08796 14.3519 1.28704 14.3519H3.62593C4.37778 14.3519 5.02361 14.7833 5.31111 15.4773C5.59907 16.1718 5.44722 16.9338 4.91574 17.4653L3.26204 19.1185C3.12083 19.2593 3.12083 19.4884 3.26204 19.6296L5.36991 21.7375C5.51019 21.8782 5.73935 21.8792 5.88102 21.7375L7.53426 20.0838C7.88796 19.7301 8.34306 19.5449 8.8125 19.5449C9.04954 19.5449 9.28935 19.5921 9.52222 19.6889C10.2167 19.9764 10.6481 20.6222 10.6481 21.3741V23.713C10.6481 23.912 10.8102 24.0741 11.0093 24.0741H13.9907C14.1898 24.0741 14.3519 23.912 14.3519 23.713V21.3741C14.3519 20.6222 14.7833 19.9764 15.4778 19.6889C16.1722 19.4019 16.9338 19.5523 17.4657 20.0843L19.119 21.738C19.2602 21.8796 19.4894 21.8787 19.6301 21.738L21.738 19.6301C21.8792 19.4894 21.8792 19.2602 21.738 19.119L20.0843 17.4657C19.5523 16.9343 19.4009 16.1722 19.6889 15.4778C19.9764 14.7833 20.6222 14.3519 21.3741 14.3519H23.713Z" fill="white"/>
<path fill-rule="evenodd" clip-rule="evenodd" d="M8.62061 12.931C8.62061 10.5541 10.554 8.6207 12.931 8.6207C15.3079 8.6207 17.2413 10.5541 17.2413 12.931C17.2413 15.308 15.3079 17.2414 12.931 17.2414C10.554 17.2414 8.62061 15.308 8.62061 12.931ZM9.57846 12.931C9.57846 14.7792 11.0828 16.2835 12.931 16.2835C14.7791 16.2835 16.2834 14.7792 16.2834 12.931C16.2834 11.0829 14.7791 9.57855 12.931 9.57855C11.0828 9.57855 9.57846 11.0829 9.57846 12.931Z" fill="white"/>
</svg>
