<svg width="24" height="22" viewBox="0 0 24 22" fill="none" xmlns="http://www.w3.org/2000/svg">
<path fill-rule="evenodd" clip-rule="evenodd" d="M5.954 13.1281L0.423911 11.0538C-0.137769 10.8423 -0.142649 10.0454 0.417431 9.82829L23.1131 1.02944C23.5942 0.842429 24.0907 1.26605 23.9859 1.77384L19.913 21.4626C19.817 21.9275 19.2747 22.1383 18.8919 21.8587L13.332 17.802C12.9943 17.5557 12.5341 17.5689 12.211 17.8335L9.1284 20.3589C8.77056 20.6529 8.23144 20.4892 8.09448 20.0461L5.954 13.1281ZM18.5574 5.33419L7.74952 12.0239C7.33528 12.2808 7.14024 12.7836 7.27408 13.2542L8.44264 17.3807C8.5256 17.6731 8.94792 17.6431 8.98816 17.3409L9.292 15.078C9.34928 14.652 9.55152 14.2595 9.86504 13.9662L18.7847 5.63376C18.9515 5.47827 18.7516 5.21432 18.5574 5.33419Z" fill="#64B400"/>
</svg>
