<svg width="64" height="53" viewBox="0 0 64 53" fill="none" xmlns="http://www.w3.org/2000/svg">
<path fill-rule="evenodd" clip-rule="evenodd" d="M2.05 1H20.95C21.5307 1 22 1.45696 22 2.02V8.14C22 8.70304 21.5307 9.16 20.95 9.16H15.7V50.98C15.7 51.543 15.2306 52 14.65 52H8.35C7.76935 52 7.3 51.543 7.3 50.98V9.16H2.05C1.46935 9.16 1 8.70304 1 8.14V2.02C1 1.45696 1.46935 1 2.05 1ZM14.65 7.12H19.9V3.04H3.1V7.12H8.35C8.93065 7.12 9.4 7.57696 9.4 8.14V49.96H13.6V8.14C13.6 7.57696 14.0694 7.12 14.65 7.12Z" fill="white"/>
<path d="M15.7 9.16V8.66H15.2V9.16H15.7ZM7.3 9.16H7.8V8.66H7.3V9.16ZM19.9 7.12V7.62H20.4V7.12H19.9ZM19.9 3.04H20.4V2.54H19.9V3.04ZM3.1 3.04V2.54H2.6V3.04H3.1ZM3.1 7.12H2.6V7.62H3.1V7.12ZM9.4 49.96H8.9V50.46H9.4V49.96ZM13.6 49.96V50.46H14.1V49.96H13.6ZM20.95 0.5H2.05V1.5H20.95V0.5ZM22.5 2.02C22.5 1.16758 21.7934 0.5 20.95 0.5V1.5C21.2679 1.5 21.5 1.74634 21.5 2.02H22.5ZM22.5 8.14V2.02H21.5V8.14H22.5ZM20.95 9.66C21.7934 9.66 22.5 8.99242 22.5 8.14H21.5C21.5 8.41366 21.2679 8.66 20.95 8.66V9.66ZM15.7 9.66H20.95V8.66H15.7V9.66ZM16.2 50.98V9.16H15.2V50.98H16.2ZM14.65 52.5C15.4934 52.5 16.2 51.8324 16.2 50.98H15.2C15.2 51.2537 14.9679 51.5 14.65 51.5V52.5ZM8.35 52.5H14.65V51.5H8.35V52.5ZM6.8 50.98C6.8 51.8324 7.50664 52.5 8.35 52.5V51.5C8.03206 51.5 7.8 51.2537 7.8 50.98H6.8ZM6.8 9.16V50.98H7.8V9.16H6.8ZM2.05 9.66H7.3V8.66H2.05V9.66ZM0.5 8.14C0.5 8.99242 1.20664 9.66 2.05 9.66V8.66C1.73206 8.66 1.5 8.41366 1.5 8.14H0.5ZM0.5 2.02V8.14H1.5V2.02H0.5ZM2.05 0.5C1.20664 0.5 0.5 1.16757 0.5 2.02H1.5C1.5 1.74634 1.73206 1.5 2.05 1.5V0.5ZM19.9 6.62H14.65V7.62H19.9V6.62ZM19.4 3.04V7.12H20.4V3.04H19.4ZM3.1 3.54H19.9V2.54H3.1V3.54ZM3.6 7.12V3.04H2.6V7.12H3.6ZM8.35 6.62H3.1V7.62H8.35V6.62ZM9.9 8.14C9.9 7.28757 9.19336 6.62 8.35 6.62V7.62C8.66794 7.62 8.9 7.86634 8.9 8.14H9.9ZM9.9 49.96V8.14H8.9V49.96H9.9ZM13.6 49.46H9.4V50.46H13.6V49.46ZM13.1 8.14V49.96H14.1V8.14H13.1ZM14.65 6.62C13.8066 6.62 13.1 7.28757 13.1 8.14H14.1C14.1 7.86634 14.3321 7.62 14.65 7.62V6.62Z" fill="#424D9A"/>
<path fill-rule="evenodd" clip-rule="evenodd" d="M50 33C50 26.935 55.3463 22 61.9167 22C62.5157 22 63 22.448 63 23V29C63 29.552 62.5157 30 61.9167 30C60.1248 30 58.6667 31.346 58.6667 33V51C58.6667 51.552 58.1824 52 57.5833 52H51.0833C50.4843 52 50 51.552 50 51V33ZM56.5 33C56.5 30.586 58.3644 28.565 60.8333 28.101V24.055C55.9648 24.554 52.1667 28.375 52.1667 33V50H56.5V33Z" fill="white"/>
<path d="M60.8333 28.101L60.9257 28.5924L61.3333 28.5158V28.101H60.8333ZM60.8333 24.055H61.3333V23.5011L60.7824 23.5576L60.8333 24.055ZM52.1667 50H51.6667V50.5H52.1667V50ZM56.5 50V50.5H57V50H56.5ZM61.9167 21.5C55.1085 21.5 49.5 26.6219 49.5 33H50.5C50.5 27.2481 55.584 22.5 61.9167 22.5V21.5ZM63.5 23C63.5 22.1352 62.7538 21.5 61.9167 21.5V22.5C62.2777 22.5 62.5 22.7608 62.5 23H63.5ZM63.5 29V23H62.5V29H63.5ZM61.9167 30.5C62.7538 30.5 63.5 29.8648 63.5 29H62.5C62.5 29.2392 62.2777 29.5 61.9167 29.5V30.5ZM59.1667 33C59.1667 31.6591 60.3625 30.5 61.9167 30.5V29.5C59.8871 29.5 58.1667 31.0329 58.1667 33H59.1667ZM59.1667 51V33H58.1667V51H59.1667ZM57.5833 52.5C58.4205 52.5 59.1667 51.8648 59.1667 51H58.1667C58.1667 51.2392 57.9444 51.5 57.5833 51.5V52.5ZM51.0833 52.5H57.5833V51.5H51.0833V52.5ZM49.5 51C49.5 51.8648 50.2462 52.5 51.0833 52.5V51.5C50.7223 51.5 50.5 51.2392 50.5 51H49.5ZM49.5 33V51H50.5V33H49.5ZM60.741 27.6096C58.0687 28.1118 56 30.3134 56 33H57C57 30.8586 58.6602 29.0182 60.9257 28.5924L60.741 27.6096ZM60.3333 24.055V28.101H61.3333V24.055H60.3333ZM52.6667 33C52.6667 28.6658 56.2352 25.0289 60.8843 24.5524L60.7824 23.5576C55.6945 24.0791 51.6667 28.0842 51.6667 33H52.6667ZM52.6667 50V33H51.6667V50H52.6667ZM56.5 49.5H52.1667V50.5H56.5V49.5ZM56 33V50H57V33H56Z" fill="#424D9A"/>
<path fill-rule="evenodd" clip-rule="evenodd" d="M37.6667 19.2912V22.2237C43.7881 24.3692 48 30.2006 48 36.6677C48 45.1219 41.0467 52 32.5 52C23.9533 52 17 45.1219 17 36.6677C17 30.2006 21.2119 24.3692 27.3333 22.2237V15.2026C27.3333 14.8479 27.5183 14.5187 27.8231 14.3327C28.128 14.1467 28.5082 14.1303 28.8286 14.2877L31.4708 15.594C31.4801 15.1699 31.508 14.6915 31.569 14.1753C30.3476 14.1579 28.2964 13.9075 26.919 12.545C24.8936 10.5416 25.2925 7.08259 25.3101 6.93643C25.3679 6.47033 25.7399 6.10133 26.2122 6.04511C26.3599 6.02671 29.8567 5.63318 31.881 7.63558C32.4742 8.22331 32.8555 8.93473 33.1035 9.65228C33.367 9.25569 33.6656 8.87442 34.018 8.52587C37.1562 5.41955 42.6628 6.04 42.8964 6.06964C43.3686 6.12586 43.7406 6.49383 43.7985 6.96096C43.8274 7.19196 44.4546 12.639 41.3154 15.7443C39.9297 17.115 38.0841 17.759 36.4339 18.0493L37.0952 18.3763C37.4455 18.5501 37.6667 18.9038 37.6667 19.2912ZM27.3354 8.05262C27.3685 9.00015 27.5937 10.3238 28.3801 11.1007C29.2068 11.9184 30.5728 12.1044 31.4646 12.131C31.4315 11.1845 31.2063 9.8608 30.4199 9.08294C29.5943 8.26522 28.2272 8.07919 27.3354 8.05262ZM31.4667 49.7186C29.7069 48.9019 28.3667 46.0644 28.3667 42.8006C28.3667 39.5369 29.7069 36.6994 31.4667 35.8817V49.7186ZM26.3 42.8006C26.3 38.1672 28.5 34.4456 31.4667 33.7342V31.651C27.9657 32.2899 25.2667 36.1301 25.2667 40.7563C25.2667 42.8569 25.8267 44.7908 26.7619 46.3403C26.4653 45.2548 26.3 44.062 26.3 42.8006ZM31.4667 29.5863C26.8239 30.2098 23.2 34.9791 23.2 40.7563C23.2 42.1935 23.4325 43.5632 23.8407 44.8286C22.7856 43.0654 22.1667 40.9679 22.1667 38.712C22.1667 32.8919 26.2525 28.0898 31.4667 27.5246V29.5863ZM20.1 38.712C20.1 31.7563 25.1148 26.0425 31.4729 25.4793L31.5225 17.9062L29.4 16.8564V22.9658C29.4 23.4176 29.0993 23.8162 28.6612 23.945C23.0119 25.6101 19.0667 30.8415 19.0667 36.6677C19.0667 39.0851 19.7332 41.3471 20.8781 43.3025C20.3842 41.8695 20.1 40.327 20.1 38.712ZM35.4801 9.97221C37.274 8.19674 40.3316 8.01888 41.7948 8.05159C41.8258 9.51327 41.6481 12.5235 39.8542 14.299C38.0573 16.0755 35.0151 16.2472 33.5354 16.2196C33.5023 14.762 33.6759 11.7569 35.4801 9.97221ZM33.5333 34.6234V49.9036C40.4577 49.3782 45.9333 43.65 45.9333 36.6677C45.9333 30.8415 41.9881 25.6101 36.3388 23.945C35.9007 23.8162 35.6 23.4176 35.6 22.9658V19.9229L33.5829 18.9252L33.5333 26.4524V30.5348V34.6234Z" fill="white"/>
<path d="M37.6667 22.2237H37.1667V22.5783L37.5013 22.6956L37.6667 22.2237ZM27.3333 22.2237L27.4987 22.6956L27.8333 22.5783V22.2237H27.3333ZM28.8286 14.2877L29.0502 13.8395L29.0491 13.839L28.8286 14.2877ZM31.4708 15.594L31.2492 16.0423L31.9535 16.3904L31.9707 15.605L31.4708 15.594ZM31.569 14.1753L32.0655 14.2339L32.1306 13.6832L31.5761 13.6754L31.569 14.1753ZM26.919 12.545L26.5673 12.9004L26.919 12.545ZM25.3101 6.93643L24.8139 6.87482L24.8136 6.87676L25.3101 6.93643ZM26.2122 6.04511L26.2713 6.54161L26.2739 6.54128L26.2122 6.04511ZM31.881 7.63558L32.233 7.28041L32.2327 7.28011L31.881 7.63558ZM33.1035 9.65228L32.6309 9.81561L32.9609 10.7704L33.5199 9.92898L33.1035 9.65228ZM34.018 8.52587L34.3696 8.88134L34.3697 8.88123L34.018 8.52587ZM42.8964 6.06964L42.8334 6.56568L42.8373 6.56614L42.8964 6.06964ZM43.7985 6.96096L43.3023 7.02243L43.3023 7.0231L43.7985 6.96096ZM41.3154 15.7443L40.9637 15.3888L41.3154 15.7443ZM36.4339 18.0493L36.3473 17.5568L34.8448 17.8211L36.2122 18.4974L36.4339 18.0493ZM37.0952 18.3763L37.3174 17.9284L37.3169 17.9282L37.0952 18.3763ZM28.3801 11.1007L28.7317 10.7452L28.7315 10.745L28.3801 11.1007ZM27.3354 8.05262L27.3503 7.55284L26.8171 7.53695L26.8357 8.07005L27.3354 8.05262ZM31.4646 12.131L31.4497 12.6308L31.9829 12.6467L31.9643 12.1135L31.4646 12.131ZM30.4199 9.08294L30.0681 9.4382L30.0683 9.43842L30.4199 9.08294ZM31.4667 49.7186L31.2562 50.1721L31.9667 50.5018V49.7186H31.4667ZM31.4667 35.8817H31.9667V35.098L31.256 35.4283L31.4667 35.8817ZM31.4667 33.7342L31.5833 34.2204L31.9667 34.1284V33.7342H31.4667ZM31.4667 31.651H31.9667V31.0515L31.3769 31.1591L31.4667 31.651ZM26.7619 46.3403L26.3338 46.5987L27.2442 46.2086L26.7619 46.3403ZM31.4667 29.5863L31.5332 30.0818L31.9667 30.0236V29.5863H31.4667ZM23.8407 44.8286L23.4116 45.0853L24.3165 44.6751L23.8407 44.8286ZM31.4667 27.5246H31.9667V26.9675L31.4128 27.0275L31.4667 27.5246ZM31.4729 25.4793L31.517 25.9773L31.9699 25.9372L31.9729 25.4825L31.4729 25.4793ZM31.5225 17.9062L32.0225 17.9094L32.0245 17.5966L31.7441 17.458L31.5225 17.9062ZM29.4 16.8564L29.6217 16.4082L28.9 16.0513V16.8564H29.4ZM28.6612 23.945L28.5202 23.4653L28.5198 23.4654L28.6612 23.945ZM20.8781 43.3025L20.4466 43.5552L21.3508 43.1396L20.8781 43.3025ZM41.7948 8.05159L42.2947 8.04099L42.2846 7.56242L41.806 7.55172L41.7948 8.05159ZM35.4801 9.97221L35.8318 10.3277L35.8319 10.3276L35.4801 9.97221ZM39.8542 14.299L40.2058 14.6546L40.206 14.6544L39.8542 14.299ZM33.5354 16.2196L33.0355 16.2309L33.0464 16.7106L33.5261 16.7195L33.5354 16.2196ZM33.5333 49.9036H33.0333V50.4429L33.5712 50.4021L33.5333 49.9036ZM36.3388 23.945L36.4802 23.4654L36.4798 23.4653L36.3388 23.945ZM35.6 19.9229H36.1V19.6123L35.8217 19.4747L35.6 19.9229ZM33.5829 18.9252L33.8046 18.4771L33.0882 18.1227L33.0829 18.9219L33.5829 18.9252ZM33.5333 26.4524L33.0333 26.4491V26.4524H33.5333ZM38.1667 22.2237V19.2912H37.1667V22.2237H38.1667ZM48.5 36.6677C48.5 29.9838 44.1497 23.9661 37.832 21.7519L37.5013 22.6956C43.4265 24.7723 47.5 30.4174 47.5 36.6677H48.5ZM32.5 52.5C41.3177 52.5 48.5 45.4032 48.5 36.6677H47.5C47.5 44.8407 40.7757 51.5 32.5 51.5V52.5ZM16.5 36.6677C16.5 45.4032 23.6823 52.5 32.5 52.5V51.5C24.2243 51.5 17.5 44.8407 17.5 36.6677H16.5ZM27.168 21.7519C20.8503 23.9661 16.5 29.9838 16.5 36.6677H17.5C17.5 30.4174 21.5735 24.7723 27.4987 22.6956L27.168 21.7519ZM26.8333 15.2026V22.2237H27.8333V15.2026H26.8333ZM27.5627 13.9059C27.1098 14.1823 26.8333 14.6727 26.8333 15.2026H27.8333C27.8333 15.0231 27.9268 14.8552 28.0836 14.7595L27.5627 13.9059ZM29.0491 13.839C28.5762 13.6066 28.0144 13.6302 27.5627 13.9059L28.0836 14.7595C28.2415 14.6631 28.4403 14.6541 28.6081 14.7365L29.0491 13.839ZM31.6924 15.1458L29.0502 13.8395L28.607 14.736L31.2492 16.0423L31.6924 15.1458ZM31.0724 14.1167C31.0093 14.6508 30.9805 15.1453 30.9709 15.5831L31.9707 15.605C31.9797 15.1944 32.0067 14.7321 32.0655 14.2339L31.0724 14.1167ZM26.5673 12.9004C28.0899 14.4065 30.3134 14.6575 31.5619 14.6752L31.5761 13.6754C30.3818 13.6584 28.5029 13.4085 27.2706 12.1895L26.5673 12.9004ZM24.8136 6.87676C24.8024 6.9706 24.6938 7.91842 24.8528 9.11037C25.0109 10.2948 25.4422 11.7875 26.5673 12.9004L27.2706 12.1895C26.3704 11.299 25.9885 10.0606 25.844 8.97809C25.7006 7.90317 25.8002 7.04842 25.8065 6.99609L24.8136 6.87676ZM26.1531 5.54862C25.4549 5.63173 24.9004 6.17803 24.8139 6.87482L25.8063 6.99803C25.8355 6.76262 26.025 6.57093 26.2713 6.5416L26.1531 5.54862ZM32.2327 7.28011C31.1089 6.16851 29.6024 5.74277 28.4076 5.58676C27.2052 5.42973 26.2484 5.53674 26.1504 5.54894L26.2739 6.54128C26.3237 6.53508 27.1892 6.43613 28.2782 6.57834C29.3749 6.72155 30.6289 7.10025 31.5294 7.99105L32.2327 7.28011ZM33.576 9.48895C33.3102 8.71967 32.8941 7.93551 32.233 7.28041L31.5291 7.99074C32.0543 8.51112 32.4008 9.14979 32.6309 9.81561L33.576 9.48895ZM33.6663 8.1704C33.2847 8.54787 32.965 8.9571 32.687 9.37558L33.5199 9.92898C33.7689 9.55427 34.0465 9.20098 34.3696 8.88134L33.6663 8.1704ZM42.9593 5.57362C42.8177 5.55564 41.3373 5.38916 39.4831 5.62579C37.6373 5.86135 35.3482 6.50564 33.6662 8.17052L34.3697 8.88123C35.826 7.43979 37.8593 6.84114 39.6097 6.61775C41.3518 6.39543 42.7415 6.554 42.8334 6.56566L42.9593 5.57362ZM44.2947 6.89949C44.2082 6.20117 43.6532 5.65621 42.9555 5.57315L42.8373 6.56614C43.084 6.59551 43.273 6.7865 43.3023 7.02243L44.2947 6.89949ZM41.667 16.0998C43.3503 14.4346 44.0023 12.1678 44.2408 10.3394C44.4803 8.50304 44.3119 7.03741 44.2946 6.89882L43.3023 7.0231C43.3139 7.11551 43.4737 8.4889 43.2492 10.2101C43.0237 11.9394 42.4197 13.9487 40.9637 15.3888L41.667 16.0998ZM36.5205 18.5417C38.2225 18.2423 40.1805 17.5702 41.667 16.0998L40.9637 15.3888C39.6788 16.6598 37.9457 17.2756 36.3473 17.5568L36.5205 18.5417ZM37.3169 17.9282L36.6556 17.6011L36.2122 18.4974L36.8736 18.8245L37.3169 17.9282ZM38.1667 19.2912C38.1667 18.7112 37.8356 18.1854 37.3174 17.9284L36.873 18.8243C37.0555 18.9148 37.1667 19.0963 37.1667 19.2912H38.1667ZM28.7315 10.745C28.4201 10.4374 28.2003 10.0001 28.0554 9.50117C27.9114 9.00547 27.8507 8.48096 27.8351 8.03518L26.8357 8.07005C26.8532 8.5718 26.9216 9.1829 27.0951 9.78014C27.2677 10.3742 27.5537 10.9871 28.0287 11.4564L28.7315 10.745ZM31.4795 11.6312C31.0574 11.6186 30.5353 11.5684 30.0298 11.4302C29.5214 11.2913 29.0625 11.0723 28.7317 10.7452L28.0285 11.4561C28.5244 11.9467 29.1619 12.2297 29.7661 12.3948C30.3733 12.5608 30.98 12.6168 31.4497 12.6308L31.4795 11.6312ZM30.0683 9.43842C30.3798 9.7466 30.5997 10.1843 30.7446 10.6832C30.8886 11.1789 30.9493 11.7032 30.9649 12.1485L31.9643 12.1135C31.9468 11.6123 31.8784 11.0014 31.7049 10.4042C31.5323 9.81023 31.2463 9.19714 30.7715 8.72747L30.0683 9.43842ZM27.3205 8.55239C27.7426 8.56497 28.265 8.61526 28.7707 8.75342C29.2792 8.89238 29.738 9.11127 30.0681 9.4382L30.7717 8.72769C30.2762 8.2369 29.6386 7.95391 29.0342 7.78878C28.427 7.62285 27.8199 7.56683 27.3503 7.55284L27.3205 8.55239ZM27.8667 42.8006C27.8667 44.4978 28.2146 46.0945 28.8017 47.3844C29.3839 48.6636 30.2276 49.6947 31.2562 50.1721L31.6772 49.265C30.946 48.9257 30.2396 48.1297 29.7118 46.9701C29.1889 45.8211 28.8667 44.3672 28.8667 42.8006H27.8667ZM31.256 35.4283C30.2275 35.9062 29.3839 36.9374 28.8017 38.2168C28.2146 39.5068 27.8667 41.1035 27.8667 42.8006H28.8667C28.8667 41.2341 29.1889 39.7802 29.7118 38.631C30.2396 37.4713 30.9461 36.675 31.6774 36.3351L31.256 35.4283ZM31.9667 49.7186V35.8817H30.9667V49.7186H31.9667ZM31.3501 33.2479C29.697 33.6443 28.3059 34.8661 27.3376 36.5471C26.3675 38.2311 25.8 40.4081 25.8 42.8006H26.8C26.8 40.5597 27.3325 38.5592 28.2041 37.0462C29.0774 35.5302 30.2696 34.5354 31.5833 34.2204L31.3501 33.2479ZM30.9667 31.651V33.7342H31.9667V31.651H30.9667ZM25.7667 40.7563C25.7667 36.2866 28.3679 32.7247 31.5564 32.1429L31.3769 31.1591C27.5636 31.855 24.7667 35.9736 24.7667 40.7563H25.7667ZM27.19 46.082C26.3035 44.6131 25.7667 42.769 25.7667 40.7563H24.7667C24.7667 42.9447 25.35 44.9684 26.3338 46.5987L27.19 46.082ZM25.8 42.8006C25.8 44.1054 25.971 45.3426 26.2796 46.4721L27.2442 46.2086C26.9597 45.167 26.8 44.0185 26.8 42.8006H25.8ZM23.7 40.7563C23.7 35.1577 27.2038 30.6633 31.5332 30.0818L31.4001 29.0907C26.444 29.7563 22.7 34.8005 22.7 40.7563H23.7ZM24.3165 44.6751C23.9237 43.4573 23.7 42.1393 23.7 40.7563H22.7C22.7 42.2477 22.9413 43.6691 23.3648 44.9821L24.3165 44.6751ZM21.6667 38.712C21.6667 41.0601 22.3111 43.2461 23.4116 45.0853L24.2697 44.5719C23.2602 42.8847 22.6667 40.8757 22.6667 38.712H21.6667ZM31.4128 27.0275C25.9147 27.6235 21.6667 32.668 21.6667 38.712H22.6667C22.6667 33.1158 26.5902 28.5562 31.5206 28.0217L31.4128 27.0275ZM31.9667 29.5863V27.5246H30.9667V29.5863H31.9667ZM31.4287 24.9812C24.7877 25.5695 19.6 31.5231 19.6 38.712H20.6C20.6 31.9895 25.4418 26.5155 31.517 25.9773L31.4287 24.9812ZM31.0225 17.9029L30.9729 25.476L31.9729 25.4825L32.0225 17.9094L31.0225 17.9029ZM29.1783 17.3046L31.3008 18.3543L31.7441 17.458L29.6217 16.4082L29.1783 17.3046ZM29.9 22.9658V16.8564H28.9V22.9658H29.9ZM28.8022 24.4247C29.45 24.2343 29.9 23.6427 29.9 22.9658H28.9C28.9 23.1925 28.7486 23.3982 28.5202 23.4653L28.8022 24.4247ZM19.5667 36.6677C19.5667 31.0665 23.3627 26.028 28.8025 24.4246L28.5198 23.4654C22.6612 25.1922 18.5667 30.6164 18.5667 36.6677H19.5667ZM21.3096 43.0499C20.2071 41.167 19.5667 38.9917 19.5667 36.6677H18.5667C18.5667 39.1786 19.2592 41.5272 20.4466 43.5552L21.3096 43.0499ZM19.6 38.712C19.6 40.3862 19.8946 41.9836 20.4054 43.4654L21.3508 43.1396C20.8737 41.7553 20.6 40.2679 20.6 38.712H19.6ZM41.806 7.55172C41.0505 7.53483 39.8767 7.57175 38.6522 7.84591C37.4324 8.11903 36.1179 8.63748 35.1284 9.61684L35.8319 10.3276C36.6362 9.53147 37.7474 9.07326 38.8707 8.82175C39.9893 8.5713 41.076 8.53565 41.7837 8.55147L41.806 7.55172ZM40.206 14.6544C41.1957 13.6747 41.72 12.3765 41.9963 11.1691C42.2734 9.95781 42.3107 8.79538 42.2947 8.04099L41.2949 8.06219C41.3099 8.76948 41.2739 9.843 41.0215 10.9461C40.7681 12.0532 40.3066 13.1477 39.5025 13.9436L40.206 14.6544ZM33.5261 16.7195C34.2879 16.7337 35.4618 16.6972 36.6849 16.4238C37.9037 16.1514 39.2149 15.6342 40.2058 14.6546L39.5027 13.9434C38.6966 14.7403 37.5883 15.1972 36.4668 15.4479C35.3497 15.6976 34.2626 15.7331 33.5447 15.7197L33.5261 16.7195ZM35.1285 9.61674C34.1338 10.6006 33.6078 11.8996 33.3314 13.107C33.0541 14.318 33.0185 15.4785 33.0355 16.2309L34.0353 16.2083C34.0193 15.5032 34.0539 14.4322 34.3062 13.3302C34.5593 12.2244 35.0222 11.1285 35.8318 10.3277L35.1285 9.61674ZM34.0333 49.9036V34.6234H33.0333V49.9036H34.0333ZM45.4333 36.6677C45.4333 43.381 40.1667 48.8988 33.4955 49.405L33.5712 50.4021C40.7487 49.8575 46.4333 43.9191 46.4333 36.6677H45.4333ZM36.1975 24.4246C41.6373 26.028 45.4333 31.0665 45.4333 36.6677H46.4333C46.4333 30.6164 42.3388 25.1922 36.4802 23.4654L36.1975 24.4246ZM35.1 22.9658C35.1 23.6427 35.55 24.2343 36.1978 24.4247L36.4798 23.4653C36.2514 23.3982 36.1 23.1925 36.1 22.9658H35.1ZM35.1 19.9229V22.9658H36.1V19.9229H35.1ZM33.3613 19.3734L35.3783 20.371L35.8217 19.4747L33.8046 18.4771L33.3613 19.3734ZM34.0333 26.4557L34.0829 18.9285L33.0829 18.9219L33.0333 26.4491L34.0333 26.4557ZM34.0333 30.5348V26.4524H33.0333V30.5348H34.0333ZM34.0333 34.6234V30.5348H33.0333V34.6234H34.0333Z" fill="#424D9A"/>
<path d="M42.0222 40C41.0376 42.2531 39.2542 44.0366 37 45.0222L37.8637 47C40.6177 45.7963 42.7963 43.6166 44 40.8637L42.0222 40Z" fill="white"/>
<path d="M43.9496 36L42.1247 36.1828C42.1522 36.452 42.166 36.7248 42.166 37.0012C42.166 37.2777 42.1522 37.5505 42.1247 37.8215C42.0972 38.0979 42.0559 38.3707 42 38.639L43.7983 39C43.8652 38.6726 43.9166 38.338 43.9496 38.0024C43.9826 37.6723 44 37.3386 44 37.0012C44 36.6638 43.9826 36.3301 43.9496 36Z" fill="white"/>
</svg>
