<svg width="30" height="25" viewBox="0 0 30 25" fill="none" xmlns="http://www.w3.org/2000/svg">
<path d="M30 2.93002C28.8844 3.42692 27.6956 3.75629 26.4562 3.91621C27.7312 3.14325 28.7044 1.9286 29.1619 0.464538C27.9731 1.18419 26.6606 1.69252 25.2619 1.97619C24.1331 0.755827 22.5244 0 20.7694 0C17.3644 0 14.6231 2.80627 14.6231 6.24652C14.6231 6.74152 14.6644 7.21748 14.7656 7.6706C9.6525 7.41738 5.12813 4.92906 2.08875 1.1385C1.55812 2.07329 1.24688 3.14325 1.24688 4.29508C1.24688 6.45785 2.34375 8.37502 3.97875 9.48496C2.99062 9.46592 2.02125 9.17463 1.2 8.71581C1.2 8.73485 1.2 8.7596 1.2 8.78435C1.2 11.8191 3.33188 14.3398 6.1275 14.9204C5.62687 15.0594 5.08125 15.1261 4.515 15.1261C4.12125 15.1261 3.72375 15.1032 3.35063 15.0194C4.1475 17.4925 6.40875 19.3107 9.0975 19.3697C7.005 21.0318 4.34812 22.0332 1.47187 22.0332C0.9675 22.0332 0.48375 22.0104 0 21.9475C2.72438 23.7314 5.95313 24.75 9.435 24.75C20.7525 24.75 26.94 15.2308 26.94 6.9795C26.94 6.70344 26.9306 6.4369 26.9175 6.17227C28.1381 5.29269 29.1637 4.19417 30 2.93002Z" fill="white"/>
</svg>
