<svg width="32" height="20" viewBox="0 0 32 20" fill="none" xmlns="http://www.w3.org/2000/svg">
<path d="M31.8303 17.2867C31.7915 17.2041 31.7554 17.1356 31.7219 17.0807C31.1667 16.0921 30.1057 14.8786 28.5396 13.4399L28.5065 13.407L28.4899 13.3908L28.4732 13.3743H28.4564C27.7456 12.7044 27.2955 12.2539 27.107 12.0233C26.7621 11.584 26.6849 11.1393 26.8734 10.6888C27.0065 10.3484 27.5068 9.62945 28.3729 8.53107C28.8285 7.94897 29.1893 7.48243 29.4557 7.13094C31.3774 4.60496 32.2106 2.99083 31.955 2.2879L31.8557 2.12364C31.789 2.02475 31.6169 1.93428 31.3395 1.85177C31.0615 1.76944 30.7062 1.75582 30.2729 1.81069L25.4746 1.84346C25.3969 1.81623 25.2859 1.81877 25.1413 1.85177C24.9969 1.88477 24.9246 1.90133 24.9246 1.90133L24.8411 1.94259L24.7748 1.99215C24.7193 2.02492 24.6582 2.08256 24.5915 2.16495C24.5251 2.24705 24.4696 2.34341 24.4253 2.45321C23.9029 3.78203 23.3089 5.01749 22.6423 6.15955C22.2313 6.84055 21.8539 7.43073 21.5092 7.93045C21.1649 8.42999 20.8761 8.79804 20.6431 9.03396C20.4096 9.27012 20.199 9.4593 20.0098 9.60222C19.8209 9.74519 19.6767 9.8056 19.5768 9.7835C19.4768 9.76141 19.3825 9.73948 19.2933 9.71756C19.1379 9.61866 19.0129 9.48417 18.9186 9.31397C18.824 9.14376 18.7603 8.92953 18.7269 8.67145C18.6938 8.4132 18.6742 8.19107 18.6686 8.0043C18.6634 7.81776 18.6658 7.55392 18.677 7.2135C18.6886 6.87292 18.6938 6.64248 18.6938 6.52166C18.6938 6.10428 18.702 5.6513 18.7185 5.1626C18.7353 4.67391 18.7489 4.2867 18.7603 4.00145C18.7716 3.71591 18.7769 3.4138 18.7769 3.09532C18.7769 2.77683 18.7573 2.52706 18.7185 2.34577C18.6803 2.16472 18.6215 1.98897 18.544 1.8186C18.4661 1.64839 18.3521 1.51672 18.2025 1.42325C18.0526 1.3299 17.8662 1.25582 17.6444 1.20078C17.0556 1.06905 16.3059 0.997797 15.3949 0.986719C13.3291 0.964794 12.0017 1.09669 11.413 1.38223C11.1797 1.50288 10.9686 1.66772 10.7799 1.87623C10.5799 2.11793 10.552 2.24982 10.6964 2.27152C11.3629 2.37024 11.8348 2.60639 12.1125 2.97975L12.2126 3.17759C12.2905 3.32034 12.3682 3.57305 12.446 3.93539C12.5236 4.29772 12.5738 4.69855 12.5958 5.13762C12.6513 5.93944 12.6513 6.6258 12.5958 7.19677C12.5402 7.76797 12.4877 8.21264 12.4376 8.53113C12.3874 8.84962 12.3125 9.1077 12.2126 9.30531C12.1125 9.50298 12.0459 9.6238 12.0126 9.66765C11.9792 9.7115 11.9515 9.73914 11.9294 9.74998C11.785 9.80468 11.6349 9.83255 11.4795 9.83255C11.3238 9.83255 11.1351 9.75558 10.913 9.60176C10.691 9.44794 10.4605 9.23665 10.2217 8.96755C9.98283 8.6984 9.71346 8.32227 9.41345 7.83911C9.11368 7.35596 8.80264 6.78493 8.48051 6.12603L8.214 5.64818C8.0474 5.34077 7.81981 4.89316 7.531 4.30574C7.24203 3.7181 6.9866 3.14967 6.76456 2.60056C6.6758 2.36995 6.54246 2.19438 6.36476 2.07356L6.28137 2.024C6.22593 1.98015 6.13694 1.93359 6.01486 1.88397C5.8926 1.8344 5.76504 1.79886 5.63164 1.777L1.06651 1.80977C0.600015 1.80977 0.283493 1.91426 0.116829 2.12295L0.0501277 2.22167C0.0168065 2.27665 0 2.36447 0 2.48534C0 2.60616 0.0333212 2.75444 0.100022 2.93001C0.766446 4.4786 1.49117 5.97209 2.27419 7.41071C3.05721 8.84933 3.73764 10.0082 4.31507 10.8862C4.89262 11.7649 5.48131 12.5942 6.08115 13.3736C6.68099 14.1534 7.07805 14.6531 7.27231 14.8727C7.46681 15.0926 7.61959 15.2571 7.73064 15.3669L8.14724 15.7621C8.41381 16.0258 8.80526 16.3415 9.32177 16.7093C9.8384 17.0773 10.4103 17.4397 11.0379 17.7969C11.6656 18.1535 12.3958 18.4445 13.2289 18.6696C14.062 18.8949 14.8728 18.9853 15.6614 18.9417H17.5775C17.9661 18.9085 18.2605 18.7877 18.4606 18.5792L18.5269 18.4966C18.5715 18.4311 18.6132 18.3292 18.6517 18.1922C18.6907 18.055 18.7101 17.9037 18.7101 17.7392C18.6987 17.2671 18.735 16.8416 18.8181 16.4627C18.9012 16.084 18.9958 15.7985 19.1017 15.6062C19.2075 15.414 19.3269 15.2519 19.4598 15.1205C19.5929 14.9888 19.6878 14.909 19.7435 14.8815C19.7988 14.8539 19.843 14.8351 19.8763 14.8239C20.1429 14.736 20.4566 14.8211 20.8179 15.0794C21.179 15.3375 21.5176 15.6561 21.8344 16.0349C22.151 16.4139 22.5313 16.8392 22.9755 17.3114C23.42 17.7837 23.8087 18.1348 24.1418 18.3657L24.4749 18.5634C24.6973 18.6953 24.9861 18.8161 25.3416 18.9259C25.6965 19.0356 26.0074 19.0631 26.2744 19.0082L30.5395 18.9425C30.9613 18.9425 31.2896 18.8734 31.5224 18.7364C31.7557 18.5991 31.8943 18.4479 31.939 18.2834C31.9836 18.1187 31.986 17.9319 31.9475 17.723C31.908 17.5147 31.869 17.369 31.8303 17.2867Z" fill="white"/>
</svg>
