<svg width="47" height="42" viewBox="0 0 47 42" fill="none" xmlns="http://www.w3.org/2000/svg">
<path d="M18.2911 31C18.1291 31 17.9658 30.9335 17.8326 30.7982L13.249 26.1432C13.0909 25.9825 13 25.7477 13 25.4997C13 25.2522 13.0913 25.0175 13.249 24.8567L17.8326 20.2017C18.1302 19.8991 18.5773 19.942 18.8311 20.297C19.0844 20.6524 19.0489 21.1856 18.7508 21.4878L14.8009 25.4997L18.7508 29.5117C19.0489 29.8143 19.0844 30.3475 18.8311 30.7025C18.6907 30.8991 18.4915 31 18.2911 31Z" fill="white"/>
<path d="M28.7087 31C28.5083 31 28.3091 30.8991 28.1691 30.7025C27.9154 30.3475 27.9513 29.8143 28.249 29.5117L32.1991 25.4997L28.249 21.4878C27.9513 21.1856 27.9154 20.6524 28.1691 20.297C28.4225 19.942 28.87 19.8991 29.1672 20.2017L33.751 24.8567C33.9091 25.0175 34 25.2522 34 25.4997C34 25.7477 33.9091 25.9825 33.751 26.1432L29.1672 30.7982C29.034 30.9335 28.8708 31 28.7087 31Z" fill="white"/>
<path d="M21.664 34C21.6185 34 21.5727 33.9942 21.5264 33.9825C21.1683 33.891 20.9389 33.4644 21.0144 33.0302L23.6881 17.6382C23.7636 17.204 24.1151 16.9259 24.4736 17.0174C24.8317 17.1089 25.0611 17.5351 24.9856 17.9697L22.3119 33.3617C22.246 33.7403 21.9707 34 21.664 34Z" fill="white"/>
<path fill-rule="evenodd" clip-rule="evenodd" d="M5.20991 42H41.7901C44.6626 42 47 39.633 47 36.7231V5.27686C47 2.3674 44.6626 0 41.7901 0H5.20991C2.33736 0 0 2.3674 0 5.27686V36.7231C0 39.633 2.33736 42 5.20991 42ZM1.55189 5.27686C1.55189 3.23401 3.19297 1.57183 5.20991 1.57183H41.7901C43.807 1.57183 45.4481 3.23401 45.4481 5.27686V36.7231C45.4481 38.766 43.807 40.4282 41.7901 40.4282H5.20991C3.19297 40.4282 1.55189 38.766 1.55189 36.7231V5.27686Z" fill="white"/>
<path d="M46.2241 13H0.775943C0.347269 13 0 12.5525 0 12C0 11.4481 0.347269 11 0.775943 11H46.2241C46.6527 11 47 11.4481 47 12C47 12.5525 46.6527 13 46.2241 13Z" fill="white"/>
<path fill-rule="evenodd" clip-rule="evenodd" d="M12 7C12 8.10245 12.8975 9 14 9C15.1028 9 16 8.10245 16 7C16 5.8972 15.1028 5 14 5C12.8975 5 12 5.8972 12 7ZM13.264 7C13.264 6.59408 13.5944 6.26397 14 6.26397C14.4059 6.26397 14.736 6.59408 14.736 7C14.736 7.40592 14.4059 7.73603 14 7.73603C13.5944 7.73603 13.264 7.40592 13.264 7Z" fill="white"/>
<path fill-rule="evenodd" clip-rule="evenodd" d="M4 7C4 8.1028 4.8972 9 6 9C7.1028 9 8 8.1028 8 7C8 5.8972 7.1028 5 6 5C4.8972 5 4 5.8972 4 7ZM5.26397 7C5.26397 6.59443 5.59443 6.26397 6 6.26397C6.40592 6.26397 6.73603 6.59443 6.73603 7C6.73603 7.40592 6.40592 7.73603 6 7.73603C5.59443 7.73603 5.26397 7.40592 5.26397 7Z" fill="white"/>
<path fill-rule="evenodd" clip-rule="evenodd" d="M19 6.99982C19 8.10272 19.8973 9 20.9998 9C22.1027 9 23 8.10272 23 6.99982C23 5.89728 22.1027 5 20.9998 5C19.8973 5 19 5.89728 19 6.99982ZM20.2641 6.99982C20.2641 6.59386 20.5942 6.26373 20.9998 6.26373C21.4058 6.26373 21.7359 6.59386 21.7359 6.99982C21.7359 7.40578 21.4058 7.73591 20.9998 7.73591C20.5942 7.73591 20.2641 7.40578 20.2641 6.99982Z" fill="white"/>
</svg>
