<svg width="22" height="22" viewBox="0 0 22 22" fill="none" xmlns="http://www.w3.org/2000/svg">
<path d="M0 22L1.892 16.3244C0.931965 14.7097 0.37931 12.8252 0.37931 10.8103C0.37931 4.84 5.21931 0 11.1897 0C17.16 0 22 4.84 22 10.8103C22 16.7807 17.16 21.6207 11.1897 21.6207C9.37314 21.6207 7.66245 21.1704 6.16 20.3792L0 22Z" fill="#64B400"/>
<path d="M17.8767 14.8828C17.3649 13.9156 15.4776 12.8096 15.4776 12.8096C15.0506 12.5662 14.5354 12.539 14.2919 12.973C14.2919 12.973 13.6786 13.7083 13.5227 13.8141C12.8102 14.2967 12.1503 14.2781 11.4841 13.6119L9.93596 12.0638L8.38779 10.5156C7.72162 9.84946 7.70295 9.18953 8.18557 8.4771C8.29134 8.32116 9.02674 7.70789 9.02674 7.70789C9.46074 7.46406 9.43351 6.94918 9.19007 6.52218C9.19007 6.52218 8.08407 4.63494 7.1169 4.12317C6.70545 3.90539 6.20028 3.98161 5.87128 4.31061L5.18761 4.99426C3.01877 7.16306 4.08667 9.61147 6.2555 11.7803L8.23768 13.7624L10.2198 15.7445C12.3887 17.9133 14.8371 18.9812 17.006 16.8124L17.6896 16.1288C18.0187 15.799 18.0945 15.2938 17.8767 14.8828Z" fill="#505AA1"/>
</svg>
